<svg width="24" height="24" viewBox="0 0 24 24" fill="none" xmlns="http://www.w3.org/2000/svg">
<circle cx="12" cy="12" r="12" fill="#6C54F4"/>
<path d="M16.9851 14.25V14.75C16.9851 15.575 16.9851 16.25 15.4851 16.25H8.48511C6.98511 16.25 6.98511 15.575 6.98511 14.75V14.25C6.98511 13.975 7.21011 13.75 7.48511 13.75H16.4851C16.7601 13.75 16.9851 13.975 16.9851 14.25Z" fill="white"/>
<path d="M13.2048 7.83989C13.2298 7.73989 13.2448 7.64489 13.2498 7.53989C13.2648 6.95989 12.9098 6.44989 12.3498 6.29989C11.5098 6.06989 10.7498 6.69989 10.7498 7.49989C10.7498 7.61989 10.7648 7.72989 10.7948 7.83989C8.98977 8.22489 7.63477 9.82989 7.63477 11.7499V12.4999C7.63477 12.7749 7.85977 12.9999 8.13477 12.9999H15.8598C16.1348 12.9999 16.3598 12.7749 16.3598 12.4999V11.7499C16.3598 9.82989 15.0098 8.22989 13.2048 7.83989ZM13.4998 11.1249H10.4998C10.2948 11.1249 10.1248 10.9549 10.1248 10.7499C10.1248 10.5449 10.2948 10.3749 10.4998 10.3749H13.4998C13.7048 10.3749 13.8748 10.5449 13.8748 10.7499C13.8748 10.9549 13.7048 11.1249 13.4998 11.1249Z" fill="white"/>
</svg>
