<svg width="21" height="21" viewBox="0 0 21 21" fill="none" xmlns="http://www.w3.org/2000/svg">
<path d="M4.89476 17.0613C4.52807 16.8817 3.50662 16.3377 2.60619 15.1773C1.9648 14.3507 1.29829 13.4918 1.32585 12.192C1.35414 10.8587 1.98639 9.41213 2.61934 8.50262C4.69442 5.52088 7.57066 3.85934 8.16364 3.59698C8.92108 3.26189 12.6791 1.9314 16.1189 3.70366C17.018 4.16686 19.5541 5.86465 19.4425 9.18529C19.3269 12.6245 16.2599 15.2195 15.7761 15.5888C13.6865 17.1839 11.9738 17.4814 9.39937 17.6628C8.03483 17.7589 6.50224 17.8485 4.89476 17.0613Z" fill="#CBEAF2"/>
<path d="M16.3697 14.6184C16.3697 16.0924 13.6532 17.2873 10.3023 17.2873C6.95138 17.2873 4.39587 15.835 4.23492 14.6184C4.04255 13.164 6.95138 11.9494 10.3023 11.9494C13.6532 11.9494 16.3697 13.1443 16.3697 14.6184Z" fill="#A0D2DD"/>
<path d="M18.063 6.6818C18.1672 6.97599 18.2258 7.2906 18.2423 7.62001C18.2424 7.62184 18.243 7.62355 18.2432 7.62541C18.367 10.1428 16.0329 13.5192 12.5539 15.1528C8.54657 17.0346 4.15976 14.8388 3.1188 11.8325C3.10234 11.7856 3.08791 11.7373 3.07552 11.6877C3.07494 11.686 3.075 11.6848 3.0746 11.6836C2.58111 9.7479 4.70593 5.76757 8.85258 4.60118C13.0347 3.42557 17.1752 4.58096 18.063 6.6818Z" fill="#3CA4A4"/>
<path d="M16.6352 6.92583C16.717 7.1568 16.7622 7.40415 16.7735 7.66337C16.7736 7.66482 16.7741 7.66614 16.7742 7.66761C16.859 9.64858 15.3795 12.2892 11.9197 13.724C8.63847 15.0848 5.31226 13.8645 4.4951 11.5039C4.48218 11.4671 4.4709 11.4292 4.46127 11.3902C4.46081 11.3889 4.46086 11.3879 4.46054 11.387C4.07611 9.86601 5.57822 6.11171 8.89812 5.13587C13.3649 3.82292 15.9356 5.27713 16.6352 6.92583Z" fill="#ABCEC4"/>
<path d="M18.2424 7.61682C18.2426 7.61737 18.243 7.6185 18.2429 7.61981C18.2431 7.62165 18.2437 7.62335 18.2438 7.62522C18.3677 10.1426 16.0335 13.519 12.5546 15.1526C8.54724 17.0344 4.16044 14.8386 3.11947 11.8323C3.10302 11.7854 3.08861 11.7372 3.07622 11.6876C3.07562 11.6858 3.07567 11.6845 3.07527 11.6834C3.07554 11.6827 3.07533 11.6821 3.07533 11.6821C3.07533 11.6821 5.77021 16.9294 11.2594 15.1626C11.2594 15.1626 17.4658 13.1385 18.2424 7.61682Z" fill="#307778"/>
<path d="M7.42312 6.40326C7.35804 6.37639 7.2926 6.35162 7.22673 6.32903C6.41387 6.0501 5.4336 6.17939 4.53866 6.6716C4.41993 6.7369 4.30266 6.80874 4.18579 6.89006C3.52844 7.3475 3.10892 8.09526 3.09203 8.82086C3.07501 9.55095 3.32298 10.2717 3.85853 10.7005C4.31706 11.0013 5.30594 10.8807 5.94226 9.40533C5.9977 9.2768 6.09059 9.16134 6.20465 9.07552C6.60118 8.77715 7.45023 8.15364 7.86518 7.39279C8.00126 7.14329 7.99156 6.87067 7.83883 6.69973C7.73135 6.57943 7.58502 6.48349 7.42312 6.40326Z" fill="#FEFDF0"/>
<path d="M4.61225 7.26716C4.90918 7.26169 5.25565 7.43401 5.48291 7.5887C5.71204 7.82476 5.79711 8.07396 5.79855 8.30032C5.80067 8.63988 5.57065 8.98562 5.24525 9.16459C4.74846 9.43781 4.29305 9.40743 3.9793 9.10479C3.79265 8.9038 3.7028 8.44108 3.71092 8.0538C3.72018 7.61304 4.18162 7.27511 4.61225 7.26716Z" fill="#EDE050"/>
<path d="M8.99173 8.89477C8.93384 8.86274 8.8785 8.82607 8.823 8.78952C8.4993 8.57643 8.23618 8.23651 8.09747 7.84069C7.88461 7.23325 7.88474 6.7101 8.02115 6.24087C8.17939 5.69662 8.54672 5.29928 9.01959 5.13263C10.7548 4.52117 11.838 5.27135 12.5849 6.80353C12.6926 7.02434 12.6858 7.27848 12.57 7.44853C12.2417 7.93069 11.7546 8.16754 11.1647 8.24549C11.0123 8.26562 10.7736 8.29189 10.5173 8.58466C10.261 8.87744 9.32602 9.07976 8.99173 8.89477Z" fill="#FEFDF0"/>
<path d="M9.36925 5.94442C9.05827 6.12746 8.90104 6.51758 8.92902 6.98661C8.95184 7.36869 9.20613 7.73144 9.53316 7.83312C9.84591 7.93034 10.1698 7.87286 10.4492 7.65136C10.915 7.28472 11.0226 6.75767 10.665 6.18824C10.3411 5.64101 9.81757 5.6207 9.36925 5.94442Z" fill="#EDE050"/>
<g opacity="0.121368">
<path d="M8.27603 7.06154C8.27603 7.06154 6.88138 6.97137 8.22329 6.66484C8.22329 6.66484 9.28795 6.6752 8.27603 7.06154Z" fill="#F8F3A8"/>
</g>
<path d="M16.2495 5.00429C16.9727 5.54902 17.4649 6.00988 17.4801 6.48081C17.0669 6.79761 16.6631 7.11126 16.5678 7.32059C16.136 8.0322 15.6716 8.46956 15.1623 8.52937C14.9258 9.15621 14.5716 9.62971 13.9416 9.74386C13.6627 10.1116 13.4818 10.5389 13.3507 10.9966C12.9228 11.0722 12.5359 11.2067 12.2693 11.514C11.9419 12.2098 11.6029 12.6356 11.2467 12.6583L9.83862 11.0085C10.6427 10.1943 11.4621 9.36037 11.8931 9.02794C12.0443 8.66963 12.2859 8.28475 12.5661 7.88838C12.954 7.67918 13.3161 7.50834 13.611 7.43695C14.0346 6.69482 14.6552 6.11 15.4959 5.70086C15.7209 5.32544 15.9432 5.08568 16.2495 5.00429Z" fill="#A04D31"/>
<path d="M17.0148 5.6478L16.6127 6.17294L15.183 7.28761L14.8505 7.88948C14.4453 8.27289 13.9906 8.54523 13.4806 8.69363L12.4672 10.3251C12.4447 10.3612 12.4167 10.3907 12.3846 10.412C12.2019 10.533 11.5651 10.9563 11.5477 10.9878L11.1539 11.7005C11.1274 11.7484 11.0906 11.7856 11.0479 11.8077L10.6823 11.9969L11.1104 12.5382L11.4988 11.6739C11.5333 11.5972 11.5824 11.5326 11.6416 11.4859C12.1357 11.0696 12.612 10.6841 12.9673 10.5082C13.0311 10.4767 13.0798 10.4103 13.1026 10.3288C13.2201 9.90855 13.3868 9.52656 13.7533 9.29945L15.0259 8.22649C15.6383 7.56458 16.2281 6.95235 16.6709 6.66262C16.7877 6.31566 16.9891 6.07824 17.2747 5.95015L17.0148 5.6478Z" fill="#E78E5D"/>
<path d="M16.4932 5.17682L16.8 5.45914C16.5827 5.61217 16.3655 5.7652 16.1482 5.91821C16.066 5.97471 15.9654 6.05574 15.8617 6.17045C15.7608 6.28202 15.6855 6.394 15.6309 6.48743C15.5549 6.56538 15.4579 6.65029 15.3387 6.72536C15.2808 6.76173 15.2254 6.79105 15.1736 6.8148C15.0971 6.86796 15.0651 6.92647 15.0536 6.97948C15.0334 7.07276 15.0787 7.14025 15.0489 7.20917C15.0255 7.2632 14.9704 7.28448 14.9189 7.29306L14.5498 7.51613L14.4283 7.84074C14.4031 7.87655 14.3593 7.93102 14.2944 7.97362C14.2286 8.01686 14.1714 8.02803 14.1519 8.03218C14.044 8.05509 13.7892 8.13889 13.3645 8.29152C13.1108 8.65515 12.978 8.77205 12.9032 8.80228C12.8858 8.8093 12.8156 8.83422 12.7851 8.90948C12.7683 8.95081 12.769 8.99389 12.772 9.02352C12.7719 9.08236 12.7657 9.18928 12.7218 9.30772C12.68 9.42054 12.6228 9.49295 12.5881 9.53097C12.4193 9.644 12.2258 9.80163 12.0338 10.0221C11.9676 10.0982 11.908 10.1744 11.8544 10.2488L11.507 10.7699C11.3531 10.8861 11.2272 10.978 11.1424 11.0392C10.8898 11.2217 10.8162 11.2664 10.7244 11.3771C10.6065 11.5192 10.5388 11.6735 10.4997 11.7837L10.1663 11.3931C10.5933 10.8523 11.1005 10.3289 11.6718 9.8195C11.8229 9.49544 12.0288 9.23104 12.3103 9.04902C12.481 8.83529 12.6498 8.61794 12.7447 8.26296C13.0705 8.25889 13.4301 8.04236 13.8319 7.55896C14.1239 7.47088 14.4001 7.35034 14.5913 7.05634C14.7334 6.93988 14.8741 6.74511 15.0142 6.51868C15.2233 6.48486 15.7292 6.01365 15.7903 5.82066C15.9061 5.73324 16.3721 5.30631 16.4932 5.17682Z" fill="#E88D5C"/>
<path d="M18.0576 8.86663C18.489 9.5905 18.734 10.1527 18.4955 10.5226C17.9106 10.594 17.3367 10.6668 17.1283 10.7885C16.3119 11.1568 15.6107 11.2998 15.0679 11.1324C14.493 11.5172 13.8828 11.7343 13.1897 11.5582C12.712 11.7252 12.3003 11.9792 11.9222 12.2776C11.4524 12.1566 10.9921 12.0982 10.5593 12.2237C9.8561 12.6236 9.28674 12.8102 8.91736 12.6783L8.395 10.8141C9.63993 10.5226 10.9107 10.2224 11.5219 10.1465C11.8666 9.93321 12.3162 9.73731 12.8108 9.54883C13.3124 9.54996 13.7674 9.56985 14.1015 9.63842C14.9261 9.24305 15.8634 9.05174 16.9267 9.08839C17.3546 8.8929 17.7067 8.801 18.0576 8.86663Z" fill="#D3613A"/>
<path d="M18.4773 9.68415L17.7912 9.92096L15.7572 10.1821L15.0995 10.5073C14.4866 10.6334 13.884 10.6531 13.2928 10.5538L11.3976 11.3885C11.3557 11.4069 11.3117 11.418 11.268 11.4209C11.0197 11.4378 10.1532 11.4975 10.1187 11.5145L9.33981 11.8997C9.28751 11.9256 9.23055 11.9388 9.17576 11.938L8.70735 11.9308L8.84482 12.5282L9.69993 12.0238C9.77581 11.979 9.85987 11.9497 9.94447 11.9385C10.6642 11.8243 11.3494 11.7264 11.8003 11.7396C11.8813 11.7419 11.9658 11.7111 12.0326 11.6577C12.3769 11.3825 12.7499 11.1575 13.2396 11.1358L15.0936 10.8411C16.0643 10.5868 16.9855 10.3614 17.5856 10.3234C17.8897 10.1045 18.2195 10.0057 18.5749 10.0266L18.4773 9.68415Z" fill="#E78E5D"/>
<path d="M18.2096 9.1024L18.365 9.44902C18.0648 9.47609 17.7645 9.50312 17.4643 9.53019C17.3514 9.5393 17.2068 9.55969 17.0411 9.60474C16.8798 9.64862 16.7439 9.70348 16.6389 9.75271C16.5207 9.78106 16.3777 9.80594 16.2177 9.81389C16.1401 9.81774 16.0687 9.8171 16.004 9.81373C15.8987 9.82269 15.8351 9.85444 15.795 9.89059C15.7245 9.95412 15.7335 10.0252 15.6664 10.0659C15.6139 10.0978 15.5472 10.0912 15.4909 10.0762C15.3275 10.082 15.1641 10.0878 15.0007 10.0936C14.9018 10.1602 14.8029 10.2268 14.7039 10.2933C14.6594 10.3104 14.5862 10.3341 14.4981 10.3398C14.4089 10.3455 14.3454 10.3302 14.3237 10.3252C14.2032 10.2976 13.9025 10.2555 13.3946 10.1953C12.9443 10.3696 12.7482 10.4042 12.6569 10.3962C12.6356 10.3943 12.5518 10.3841 12.4807 10.4294C12.4416 10.4543 12.4191 10.4878 12.4062 10.512C12.3744 10.5574 12.3105 10.6373 12.2026 10.7103C12.0999 10.7799 12.0036 10.8119 11.9482 10.8266C11.7181 10.8431 11.4392 10.8837 11.1279 10.9735C11.0205 11.0044 10.9197 11.0382 10.826 11.0732C10.6162 11.1588 10.4065 11.2444 10.1968 11.3299C9.97992 11.3551 9.80411 11.3733 9.6862 11.385C9.33462 11.42 9.2367 11.4236 9.08503 11.4705C8.89024 11.5308 8.73922 11.6215 8.64061 11.6903L8.51692 11.2489C9.23648 11.0104 10.027 10.819 10.8742 10.6652C11.2003 10.4784 11.5492 10.3606 11.9296 10.3381C12.2159 10.2446 12.5022 10.1476 12.7887 9.91333C13.1175 10.0468 13.5946 10.0304 14.258 9.8257C14.5982 9.88011 14.9399 9.90284 15.2901 9.75606C15.4954 9.72574 15.7413 9.63433 16.0038 9.51824C16.2317 9.57984 16.9928 9.42817 17.1581 9.30479C17.3212 9.2858 18.0185 9.15163 18.2096 9.1024Z" fill="#E88D5C"/>
</svg>
