<svg width="24" height="24" viewBox="0 0 24 24" fill="none" xmlns="http://www.w3.org/2000/svg">
<circle cx="12" cy="12" r="12" fill="#F86667"/>
<path fill-rule="evenodd" clip-rule="evenodd" d="M14.8218 5.003C14.8063 5.0063 14.791 5.01094 14.7762 5.01682C13.4926 5.42308 12.5027 6.59957 11.9659 7.89999C11.5043 9.0188 11.3619 10.2538 11.7561 11.2221C11.237 11.1952 10.8389 11.0196 10.5973 10.6584C10.2895 10.1981 10.1902 9.33141 10.6156 7.8954V7.8955C10.6491 7.78161 10.6121 7.65833 10.5215 7.58281C10.4309 7.50719 10.3044 7.49388 10.2005 7.54897C7.68069 8.86369 6.66946 11.4777 7.09386 13.7638C7.51827 16.0497 9.41588 18.0147 12.5272 18.0147C13.9807 18.0147 15.2366 17.5032 16.0991 16.55C16.9619 15.5967 17.4202 14.2172 17.3445 12.5301C17.2677 10.5832 16.2296 9.62767 15.5197 8.78282C15.1648 8.36037 14.8935 7.96937 14.7899 7.47056C14.6862 6.97165 14.7455 6.33969 15.1321 5.41441H15.1319C15.1746 5.31589 15.1609 5.20169 15.0965 5.11617C15.032 5.03075 14.9268 4.98742 14.8216 5.0032L14.8218 5.003Z" fill="white"/>
</svg>
