<svg width="24" height="24" viewBox="0 0 24 24" fill="none" xmlns="http://www.w3.org/2000/svg">
<circle cx="12" cy="12" r="12" fill="#63A0FC"/>
<path d="M12 6C8.69147 6 6 8.69147 6 12C6 15.3085 8.69147 18 12 18C15.3085 18 18 15.3085 18 12C18 8.69147 15.3085 6 12 6ZM14.8535 15.1035C14.756 15.201 14.628 15.25 14.5 15.25C14.372 15.25 14.244 15.201 14.1465 15.1035L11.6465 12.6035C11.5525 12.51 11.5 12.383 11.5 12.25V9C11.5 8.72351 11.724 8.50003 12 8.50003C12.276 8.50003 12.5 8.72351 12.5 9V12.043L14.8535 14.3965C15.049 14.592 15.049 14.908 14.8535 15.1035Z" fill="white"/>
</svg>
