<svg width="36" height="36" viewBox="0 0 36 36" fill="none" xmlns="http://www.w3.org/2000/svg">
<path d="M14 2.3094C16.4752 0.880339 19.5248 0.880339 22 2.3094L29.5885 6.6906C32.0637 8.11966 33.5885 10.7607 33.5885 13.6188V22.3812C33.5885 25.2393 32.0637 27.8803 29.5885 29.3094L22 33.6906C19.5248 35.1197 16.4752 35.1197 14 33.6906L6.41154 29.3094C3.93633 27.8803 2.41154 25.2393 2.41154 22.3812V13.6188C2.41154 10.7607 3.93633 8.11966 6.41154 6.6906L14 2.3094Z" fill="#E0464D"/>
<mask id="mask0_101_256" style="mask-type:alpha" maskUnits="userSpaceOnUse" x="2" y="1" width="32" height="34">
<path d="M14 2.3094C16.4752 0.880339 19.5248 0.880339 22 2.3094L29.5885 6.6906C32.0637 8.11966 33.5885 10.7607 33.5885 13.6188V22.3812C33.5885 25.2393 32.0637 27.8803 29.5885 29.3094L22 33.6906C19.5248 35.1197 16.4752 35.1197 14 33.6906L6.41154 29.3094C3.93633 27.8803 2.41154 25.2393 2.41154 22.3812V13.6188C2.41154 10.7607 3.93633 8.11966 6.41154 6.6906L14 2.3094Z" fill="#C4C4C4"/>
</mask>
<g mask="url(#mask0_101_256)">
<path d="M3.72421 28.8754C3.72421 28.8754 4.75519 32.641 8.64 30.3591C12.4513 28.0792 10.4815 26.0746 10.4815 26.0746L3.72421 28.8754Z" fill="#FFFEFD"/>
<path d="M10.4815 26.0775L3.72421 28.8755C3.77871 29.0567 3.84854 29.2332 3.93295 29.4031C4.70619 30.182 6.04686 29.8344 6.87302 30.3072C7.08276 30.4721 7.22899 30.7024 7.28757 30.9599C7.76278 30.8176 8.21734 30.6157 8.64 30.3592C12.4513 28.0821 10.4815 26.0775 10.4815 26.0775Z" fill="#FFF4E1"/>
<path d="M6.37126 31.1294C6.05104 31.1316 5.73346 31.0724 5.43632 30.9551C4.12603 30.4342 3.69285 28.8985 3.68795 28.8831L3.68011 28.8523L3.70951 28.8408L10.4903 26.0322L10.5079 26.0505C10.7009 26.2704 10.8453 26.5274 10.9318 26.805C11.0183 27.0826 11.0452 27.3749 11.0107 27.6632C10.8852 28.6164 10.0944 29.535 8.65863 30.3928C7.82071 30.8848 7.05531 31.1294 6.37126 31.1294ZM3.76832 28.8947C3.83594 29.1104 4.28969 30.4207 5.46376 30.8887C6.33598 31.2353 7.39734 31.0466 8.62139 30.3293C10.0356 29.483 10.8147 28.5827 10.9372 27.6536C10.9692 27.3808 10.9445 27.1044 10.8645 26.8412C10.7844 26.578 10.6508 26.3336 10.4717 26.1227L3.76832 28.8947Z" fill="#C47618"/>
<path d="M14.7955 20.0493C14.7955 20.0493 11.0195 20.5875 8.41754 24.4224C6.62704 27.0268 9.67001 28.0166 9.67001 28.0166L15.6844 21.5658L14.7955 20.0493Z" fill="#FFFEFD"/>
<path d="M9.68079 28.058L9.65825 28.0503C9.64453 28.0503 8.28622 27.593 7.91087 26.5223C7.69233 25.8927 7.85305 25.1792 8.38716 24.4041C10.9676 20.6001 14.7573 20.0214 14.7906 20.0156H14.8151L15.7295 21.5744L15.7109 21.5937L9.68079 28.058ZM14.7769 20.0888C14.4476 20.1456 10.9019 20.8263 8.44989 24.4426C7.92851 25.2004 7.77073 25.8917 7.98144 26.4983C8.31562 27.4611 9.48381 27.9107 9.66021 27.9743L15.6383 21.559L14.7769 20.0888Z" fill="#C47618"/>
<path d="M4.78558 23.5231C4.78558 23.5231 4.75814 23.5443 4.70815 23.5905C4.51705 23.7706 4.00058 24.3338 3.50273 25.546C2.87649 27.0711 3.2636 27.6141 3.2636 27.6141C2.91373 28.0118 2.76673 28.7897 4.36809 29.5137C5.1902 29.8912 6.12995 29.9378 6.98658 29.6436C7.84321 29.3495 8.5488 28.7379 8.95263 27.9395C9.89247 26.1487 10.113 23.3084 8.34502 23.2006C6.57706 23.0927 4.78558 23.5231 4.78558 23.5231Z" fill="#FFFEFD"/>
<path d="M8.34502 23.1987C7.74172 23.1661 7.13673 23.1812 6.5359 23.244C6.79564 23.4052 7.0181 23.618 7.18893 23.8689C7.35976 24.1198 7.47517 24.403 7.52771 24.7004C7.58026 24.9978 7.56876 25.3027 7.49398 25.5954C7.4192 25.8882 7.28278 26.1623 7.09353 26.4001C6.43006 27.1241 5.54706 27.3407 4.73658 27.7027C5.84106 28.0648 6.94653 27.1963 7.82953 26.5474C7.68253 28.2804 5.39908 28.8629 3.9261 28.2121C4.58958 29.4426 6.20955 29.1527 7.24053 28.5009C7.60902 29.0786 6.87205 29.224 6.57804 29.5138C7.45516 29.4117 8.15196 28.8841 8.76839 28.2544C8.8352 28.1526 8.89669 28.0475 8.95263 27.9396C9.89247 26.1468 10.113 23.3065 8.34502 23.1987Z" fill="#FFF4E1"/>
<path d="M5.8538 29.8719C5.33516 29.8705 4.82298 29.7588 4.35241 29.5446C3.56839 29.1883 3.11562 28.7849 3.0186 28.3468C2.99173 28.2172 2.99542 28.0833 3.02939 27.9553C3.06337 27.8272 3.12672 27.7086 3.2146 27.6084C3.14698 27.4861 2.90295 26.8997 3.46451 25.5306C3.96236 24.3175 4.47981 23.7504 4.67876 23.5626C4.72972 23.5154 4.75814 23.4933 4.75912 23.4923L4.77284 23.4865C4.79048 23.4817 6.59078 23.0552 8.34404 23.1621C8.56484 23.1678 8.78015 23.231 8.96799 23.3452C9.15582 23.4593 9.30947 23.6204 9.41324 23.812C9.98558 24.8018 9.64551 26.6937 8.98596 27.9521C8.69625 28.5258 8.24995 29.0092 7.69687 29.3482C7.14379 29.6872 6.50569 29.8685 5.8538 29.8719ZM4.80224 23.5549C4.79146 23.5626 4.76794 23.5828 4.73364 23.6146C4.53763 23.7995 4.029 24.3579 3.53703 25.5576C2.9255 27.048 3.29006 27.5862 3.29398 27.591L3.30967 27.6141L3.29104 27.6363C3.20519 27.7289 3.14271 27.8401 3.10867 27.9609C3.07462 28.0816 3.06995 28.2086 3.09504 28.3314C3.1852 28.7406 3.63209 29.1373 4.38769 29.4791C5.84596 30.1377 7.93145 29.8151 8.92421 27.9213C9.57495 26.6812 9.91306 24.8191 9.35248 23.8505C9.25541 23.6695 9.11117 23.5171 8.93451 23.4089C8.75785 23.3006 8.5551 23.2404 8.34698 23.2343C6.66036 23.1313 4.92964 23.5231 4.80224 23.5549Z" fill="#C47618"/>
<path d="M11.6144 16.9144C11.633 16.7757 11.779 16.5129 11.4801 16.4166C11.3825 16.4006 11.2827 16.4032 11.1861 16.4243C11.4125 16.302 11.5095 16.1798 11.2586 15.9188C10.9823 15.63 10.5432 15.3681 10.1522 15.3113C9.76116 15.2545 9.20842 15.5915 9.1604 16.3983C9.0624 15.9593 8.72527 14.7144 8.77329 14.3427C8.82131 13.9711 8.68215 13.5214 8.30974 13.5397C7.93733 13.558 7.79719 13.947 7.76681 14.6903C7.70605 14.2089 7.32188 14.1386 7.03473 14.283C6.74759 14.4274 6.72406 15.0436 6.82795 15.5347C6.71818 15.2227 6.29677 15.2112 6.23993 15.4923C6.18309 15.7735 6.17917 16.1942 6.41046 16.7815C6.64174 17.3688 7.07001 17.806 7.13665 18.0399C7.21789 18.3791 7.34617 18.7056 7.51788 19.0104C7.77759 19.4784 7.5512 19.7605 7.51788 19.8048C7.33364 20.0445 6.98867 20.4142 6.34186 20.937C5.04039 21.9961 4.1613 23.2545 4.03194 25.7001C3.97314 26.7592 4.09662 27.49 4.61995 27.8096C5.14329 28.1293 8.02063 26.8025 8.63805 24.9009C9.25546 22.9994 9.27212 20.6347 9.92776 19.7682C10.5462 19.3128 11.4164 18.3451 11.5468 17.9061C11.6771 17.467 11.5938 17.0521 11.6144 16.9144ZM10.7177 17.2138C10.651 17.2196 10.4981 17.5258 10.4981 17.5258C10.4981 17.5258 10.4923 17.2013 10.1443 16.8663C10.1372 16.7276 10.1228 16.5894 10.1012 16.4522C10.1592 16.4375 10.209 16.401 10.2399 16.3506C10.2709 16.3002 10.2805 16.2399 10.2668 16.1827C10.3109 16.2876 10.75 16.5485 11.0362 16.4869C10.8392 16.614 10.7657 16.8797 10.7177 17.2138Z" fill="#FFDF99"/>
<path d="M11.6144 16.9144C11.633 16.7757 11.779 16.5129 11.4801 16.4166C11.3825 16.4006 11.2827 16.4032 11.1861 16.4243C11.4125 16.302 11.5095 16.1798 11.2586 15.9188C10.9823 15.63 10.5432 15.3681 10.1522 15.3113C9.76116 15.2545 9.20842 15.5915 9.1604 16.3983C9.0624 15.9593 8.72527 14.7144 8.77329 14.3427C8.82131 13.9711 8.68215 13.5214 8.30974 13.5397C7.93733 13.558 7.79719 13.947 7.76681 14.6903C7.70605 14.2089 7.32188 14.1386 7.03473 14.283C6.74759 14.4274 6.72406 15.0436 6.82795 15.5347C6.71818 15.2227 6.4624 15.3479 6.40752 15.631C6.35263 15.914 6.51336 16.2038 6.74563 16.7912C6.97789 17.3785 7.267 17.5373 7.33364 17.7713C7.40028 18.0053 7.61687 18.3355 7.87657 18.8025C8.13628 19.2694 8.01671 19.8799 8.00691 19.9328C7.89715 20.5394 7.35422 21.2644 6.70838 21.7872C5.40691 22.8463 5.17269 24.0017 4.99628 24.9529C4.93846 26.012 5.18053 26.8343 5.72346 27.0153C6.30462 27.2079 8.02162 26.6831 8.63903 24.9019C9.29271 23.0119 9.27212 20.6347 9.92776 19.7682C10.5462 19.3128 11.4164 18.3451 11.5468 17.9061C11.6771 17.467 11.5938 17.0521 11.6144 16.9144ZM10.7177 17.2138C10.651 17.2196 10.4981 17.5258 10.4981 17.5258C10.4981 17.5258 10.4923 17.2013 10.1443 16.8663C10.1372 16.7276 10.1228 16.5894 10.1012 16.4522C10.1592 16.4375 10.209 16.401 10.2399 16.3506C10.2709 16.3002 10.2805 16.2399 10.2668 16.1827C10.3109 16.2876 10.75 16.5485 11.0362 16.4869C10.8392 16.614 10.7657 16.8797 10.7177 17.2138Z" fill="#FFCE83"/>
<path d="M11.6418 16.5552C11.6418 16.5552 11.4115 16.4301 11.1861 16.7911C10.9607 17.1522 11.1988 17.3524 11.2733 17.5556C11.1293 17.3929 11.0773 17.3447 10.9921 17.3236C10.8941 17.6037 10.8588 17.7896 10.7392 17.907C10.6197 18.0245 9.71509 17.9715 9.49949 18.7273C9.55307 18.4826 9.66916 18.2553 9.83684 18.0668C10.0045 17.8783 10.2183 17.7349 10.458 17.6499C10.5805 17.3168 10.7177 17.2186 10.7177 17.2186C10.7177 17.2186 10.7853 16.795 10.8823 16.6409C10.9793 16.4869 11.4292 16.2336 11.6418 16.5552Z" fill="#FFDF99"/>
<path d="M10.4629 15.3893C10.3016 15.366 10.137 15.3917 9.9911 15.463C9.84518 15.5342 9.72493 15.6476 9.64649 15.7879C9.37013 16.3059 9.44559 16.6901 9.44559 16.6901L9.17902 16.6622C9.17021 16.4807 9.17973 16.2988 9.20744 16.1191C9.2535 15.812 9.65629 15.0427 10.4629 15.3893Z" fill="#FFDF99"/>
<path d="M7.64626 14.3524C7.64626 14.3524 7.31404 14.181 7.12979 14.7866C6.94555 15.3922 7.19153 15.9324 7.43752 16.2819C7.63661 16.5409 7.86697 16.7753 8.12353 16.9799L7.84325 17.1782C7.84325 17.1782 7.3699 16.8037 7.16703 16.4879C6.96417 16.1721 6.81226 15.5145 6.78972 15.3181C6.76718 15.1217 6.74954 14.5016 6.96515 14.3302C7.06189 14.2517 7.18453 14.2106 7.30997 14.2146C7.43542 14.2187 7.55502 14.2677 7.64626 14.3524Z" fill="#FFDF99"/>
<path d="M8.67235 13.7872C8.67235 13.7872 8.34894 13.5792 8.1647 14.1848C7.98045 14.7904 8.10394 15.3152 8.3019 15.8216C8.44045 16.1224 8.62015 16.4033 8.83601 16.6564L8.60571 16.6939C8.38932 16.5234 8.19919 16.3229 8.04121 16.0989C7.83933 15.7831 7.79719 15.2584 7.77465 15.0619C7.75211 14.8655 7.77465 13.868 8.05102 13.6331C8.09867 13.5929 8.15545 13.5645 8.21659 13.5504C8.27773 13.5363 8.34144 13.5368 8.40234 13.5519C8.46324 13.567 8.51956 13.5962 8.56655 13.6372C8.61354 13.6781 8.64982 13.7296 8.67235 13.7872Z" fill="#FFDF99"/>
<path d="M8.72723 17.8126C8.72723 17.8126 9.20646 18.1333 9.3417 18.6031C9.47695 19.073 9.27996 19.6391 8.98498 19.797C9.17412 19.4812 9.30642 18.2719 8.41754 17.7289C8.52546 17.736 8.63079 17.7645 8.72723 17.8126Z" fill="#FFDF99"/>
<path d="M4.84242 27.8934C4.75813 27.8978 4.67418 27.8799 4.59938 27.8414C4.10937 27.541 3.931 26.9007 3.99666 25.6991C4.13877 23.0302 5.19719 21.82 6.3203 20.9101C6.98475 20.3709 7.32286 20.0002 7.48848 19.7836C7.57962 19.6633 7.69723 19.41 7.48848 19.0288C7.32912 18.7503 7.20849 18.452 7.1298 18.142C7.12098 18.1112 7.11314 18.0804 7.10431 18.0457C7.04436 17.905 6.96595 17.7727 6.87107 17.6519C6.67516 17.3838 6.51078 17.0947 6.38106 16.7902C6.19093 16.3088 6.13311 15.8688 6.20857 15.4818C6.21933 15.4191 6.25171 15.3621 6.30026 15.3202C6.34881 15.2783 6.41056 15.2541 6.47514 15.2516C6.52808 15.2489 6.58102 15.257 6.63061 15.2754C6.68021 15.2938 6.72538 15.3221 6.76327 15.3585C6.69564 14.8771 6.75739 14.3784 7.02101 14.2455C7.09893 14.2028 7.18611 14.1791 7.27527 14.1762C7.36443 14.1734 7.45299 14.1915 7.53357 14.2291C7.62885 14.2805 7.70375 14.3619 7.74623 14.4602C7.78641 13.9663 7.90499 13.5186 8.3117 13.4974C8.37284 13.4939 8.43399 13.5039 8.49065 13.5267C8.54731 13.5496 8.59802 13.5846 8.63903 13.6293C8.78113 13.7814 8.84973 14.0606 8.81347 14.3418C8.77721 14.6229 8.9791 15.4731 9.11434 16.0306C9.12806 16.0835 9.13982 16.1345 9.15158 16.1827C9.19396 15.9002 9.33789 15.642 9.55731 15.4548C9.63958 15.3848 9.73566 15.3323 9.83953 15.3005C9.94341 15.2687 10.0528 15.2583 10.161 15.2699C10.5305 15.3229 10.9842 15.5713 11.288 15.8881C11.4096 16.0142 11.4586 16.1153 11.4439 16.2077C11.4304 16.2707 11.3938 16.3266 11.341 16.3647C11.3911 16.3641 11.4413 16.3676 11.4909 16.3752C11.7712 16.4648 11.7114 16.691 11.6761 16.8268C11.6676 16.8549 11.6611 16.8835 11.6565 16.9125C11.6525 16.9705 11.6525 17.0287 11.6565 17.0868C11.6778 17.364 11.6526 17.6427 11.582 17.9119C11.4458 18.3702 10.5599 19.3417 9.95422 19.7903C9.59259 20.2718 9.43089 21.2249 9.2437 22.3264C9.10454 23.1477 8.9497 24.0787 8.67725 24.9058C8.21762 26.3202 6.56236 27.3696 5.56176 27.7307C5.33287 27.8239 5.08975 27.8789 4.84242 27.8934ZM6.49768 15.3277H6.48004C6.43229 15.3298 6.38672 15.3479 6.35102 15.3791C6.31531 15.4104 6.29166 15.4527 6.28404 15.4991C6.21151 15.8727 6.26836 16.2992 6.4526 16.7681C6.58248 17.0679 6.74689 17.3522 6.94261 17.6153C7.04198 17.7423 7.12341 17.8819 7.18468 18.0303C7.19382 18.0605 7.20264 18.0926 7.21114 18.1266C7.28891 18.4295 7.40722 18.7208 7.56296 18.9931C7.79425 19.41 7.66097 19.6921 7.56296 19.8231C7.21296 20.2456 6.81623 20.6286 6.38008 20.965C5.26971 21.8643 4.22403 23.061 4.0829 25.702C4.0192 26.8738 4.18875 27.4948 4.65132 27.7788C4.78754 27.8616 5.12075 27.8212 5.54412 27.6681C6.531 27.3128 8.16372 26.2788 8.61551 24.8894C8.88207 24.0672 9.03986 23.139 9.17902 22.3206C9.36817 21.2067 9.53183 20.2448 9.9062 19.748L9.91306 19.7412C10.5011 19.3051 11.39 18.3326 11.5193 17.8975C11.5878 17.6358 11.612 17.3648 11.5909 17.0954C11.5863 17.0332 11.5863 16.9708 11.5909 16.9086C11.5962 16.8762 11.6034 16.844 11.6124 16.8124C11.6585 16.6391 11.6761 16.511 11.4821 16.4494C11.3903 16.4353 11.2966 16.4379 11.2057 16.4571L11.1293 16.4754L11.0695 16.5149C10.8735 16.6419 10.8088 16.9269 10.7667 17.2167V17.2456H10.7392C10.6584 17.3298 10.5936 17.4277 10.5481 17.5345L10.4815 17.6673V17.5191C10.4815 17.5191 10.4697 17.2052 10.1385 16.8855L10.1267 16.8749V16.8595C10.1199 16.7228 10.1059 16.5866 10.0846 16.4513V16.4166L10.1189 16.4099C10.1345 16.4099 10.2747 16.3733 10.2541 16.1798L10.2286 15.9381L10.3266 16.1625C10.3629 16.2472 10.7814 16.5033 11.0548 16.4446L11.1038 16.434L11.193 16.3858C11.3233 16.3155 11.3821 16.2587 11.389 16.1933C11.3958 16.1278 11.3547 16.0421 11.2527 15.9352C10.9587 15.6291 10.5226 15.3893 10.1679 15.3393C10.0698 15.3295 9.97069 15.3395 9.87667 15.3686C9.78264 15.3978 9.69565 15.4454 9.62101 15.5087C9.38385 15.7013 9.24076 16.0123 9.21724 16.3916L9.20254 16.6381L9.14472 16.3974C9.12512 16.3088 9.09474 16.1856 9.06044 16.044C8.92422 15.4818 8.71841 14.6325 8.75761 14.3293C8.79191 14.0693 8.73115 13.8122 8.60179 13.6755C8.56819 13.6385 8.52647 13.6095 8.47978 13.5906C8.43309 13.5718 8.38266 13.5636 8.33228 13.5667C8.0079 13.5831 7.85599 13.9162 7.82463 14.6836H7.75113C7.74823 14.6036 7.72534 14.5257 7.6845 14.4565C7.64365 14.3873 7.58609 14.3291 7.5169 14.2869C7.44669 14.2549 7.36977 14.2397 7.29244 14.2426C7.2151 14.2454 7.13955 14.2662 7.07197 14.3033C6.81129 14.4342 6.77797 15.0263 6.88381 15.5164L6.81325 15.5357C6.79037 15.4723 6.74733 15.4178 6.69049 15.3804C6.63365 15.3429 6.56604 15.3245 6.49768 15.3277ZM10.1845 16.8509C10.3477 17.0029 10.4644 17.1966 10.5217 17.4103C10.5615 17.3262 10.6181 17.2509 10.6883 17.1888C10.7255 16.9356 10.7863 16.6872 10.9303 16.5322C10.7007 16.5103 10.4829 16.4215 10.3051 16.277C10.2993 16.3213 10.2815 16.3633 10.2536 16.3985C10.2256 16.4337 10.1886 16.4609 10.1463 16.4773C10.1641 16.6012 10.1755 16.7259 10.1806 16.8509H10.1845Z" fill="#C47618"/>
<path d="M7.53944 17.597C7.61548 17.4366 7.71449 17.2878 7.83345 17.155C7.95278 17.0203 8.09222 16.904 8.24702 16.8104C8.40297 16.7155 8.5771 16.6533 8.75859 16.6274C8.93812 16.6022 9.12102 16.614 9.29564 16.6621L9.16138 16.6544H9.09572C9.07318 16.6544 9.05162 16.6544 9.02908 16.6544L8.89775 16.6611L8.76839 16.6842C8.59719 16.7204 8.4337 16.7855 8.28524 16.8768C8.13574 16.9674 7.99787 17.0754 7.87461 17.1984C7.81203 17.2591 7.75313 17.3234 7.69821 17.3909C7.64153 17.4567 7.58853 17.5255 7.53944 17.597Z" fill="#C47618"/>
<path d="M8.55573 16.7286C8.27089 16.5094 8.04677 16.2233 7.90401 15.8967C7.69625 15.3922 7.72271 14.7173 7.72467 14.6893H7.79817C7.79817 14.6961 7.77073 15.3768 7.97261 15.8669C8.11226 16.18 8.32755 16.455 8.59983 16.6679L8.55573 16.7286Z" fill="#C47618"/>
<path d="M7.83051 17.2264C7.59801 17.0486 7.38809 16.8439 7.20525 16.6169C6.91125 16.2472 6.79365 15.5703 6.78973 15.5415L6.86225 15.5299C6.86225 15.5366 6.97985 16.2174 7.26308 16.5726C7.44164 16.7949 7.64698 16.995 7.87461 17.1686L7.83051 17.2264Z" fill="#C47618"/>
<path d="M10.4648 17.6741C10.3607 17.7128 10.2619 17.7643 10.1708 17.8272C10.0641 17.8965 9.96549 17.9773 9.8768 18.0679C9.83208 18.1135 9.78987 18.1613 9.75037 18.2114C9.71245 18.2628 9.67776 18.3165 9.64649 18.3721C9.58342 18.4839 9.53563 18.6034 9.50439 18.7274C9.53003 18.6013 9.5722 18.479 9.62983 18.3635C9.65926 18.3059 9.69198 18.2499 9.72783 18.1959C9.76587 18.1428 9.80676 18.0917 9.85034 18.0429C10.0272 17.8472 10.2461 17.6927 10.4913 17.5903L10.4648 17.6741Z" fill="#C47618"/>
<path d="M8.72723 17.8127C8.88273 17.9109 9.02134 18.0328 9.13786 18.1738C9.2586 18.315 9.34895 18.4788 9.40345 18.6552C9.45764 18.8336 9.46001 19.0234 9.41031 19.203C9.35921 19.3774 9.26801 19.5378 9.14374 19.6719C9.19277 19.5966 9.23601 19.5177 9.27311 19.436C9.31142 19.3565 9.34004 19.2728 9.35837 19.1867C9.39416 19.0158 9.38642 18.8388 9.33583 18.6716C9.28348 18.5036 9.20227 18.3457 9.09572 18.2046C9.04322 18.1323 8.98593 18.0635 8.92422 17.9986C8.86221 17.933 8.79644 17.871 8.72723 17.8127Z" fill="#C47618"/>
<path d="M10.1296 16.899C10.09 16.8799 10.0487 16.8644 10.0062 16.8528C9.96291 16.8405 9.91863 16.8322 9.87386 16.8277C9.82894 16.8224 9.78353 16.8224 9.73861 16.8277C9.69279 16.8338 9.64798 16.8458 9.60533 16.8634C9.64588 16.8399 9.68937 16.8218 9.73469 16.8094C9.78044 16.7973 9.82748 16.7905 9.87484 16.7892C9.92267 16.787 9.97062 16.7896 10.0179 16.7969C10.0664 16.8032 10.114 16.8145 10.16 16.8306L10.1296 16.899Z" fill="#C47618"/>
<path d="M10.0953 16.4879C10.0619 16.4781 10.0304 16.4628 10.0022 16.4426C9.97488 16.4245 9.95015 16.4028 9.92874 16.3781C9.88834 16.3292 9.85985 16.2719 9.84544 16.2106C9.87 16.2654 9.90725 16.3139 9.95422 16.3521C9.97716 16.37 10.0026 16.3846 10.0297 16.3954C10.0544 16.4068 10.0809 16.414 10.1081 16.4166L10.0953 16.4879Z" fill="#C47618"/>
<path d="M10.7235 17.1782C10.7803 17.1924 10.8354 17.2121 10.8882 17.237C10.9399 17.2605 10.9894 17.2886 11.0362 17.3207C11.1293 17.384 11.2097 17.4636 11.2733 17.5556C11.2013 17.4726 11.1142 17.4034 11.0166 17.3515C10.9689 17.3259 10.919 17.3043 10.8676 17.287C10.817 17.2696 10.7648 17.2571 10.7118 17.2495L10.7235 17.1782Z" fill="#C47618"/>
<path d="M3.29889 27.6036C3.34345 27.7197 3.41183 27.8255 3.49979 27.9146C3.58824 28.0077 3.68684 28.091 3.7938 28.163C4.00955 28.3082 4.24298 28.4263 4.48863 28.5144C4.54842 28.5394 4.61114 28.5587 4.67386 28.5799C4.73517 28.6018 4.79766 28.6205 4.86104 28.6357L5.05117 28.68L5.24717 28.7022C5.37763 28.7125 5.50872 28.7125 5.63918 28.7022L5.83519 28.68L6.03119 28.6396C6.28618 28.5778 6.53264 28.486 6.76523 28.3661L6.85343 28.3228L6.93869 28.2727C6.99455 28.24 7.05237 28.2082 7.10726 28.1765C7.21604 28.1033 7.32776 28.0349 7.42968 27.9531C7.84797 27.6362 8.21677 27.2609 8.52437 26.8391C8.22155 27.265 7.85668 27.6449 7.44144 27.9666C7.34344 28.0503 7.2278 28.1206 7.12 28.1957L6.95143 28.2978L6.86617 28.3478L6.77797 28.3931C6.54464 28.5181 6.29688 28.615 6.04001 28.6819L5.84401 28.7262L5.648 28.7503C5.58306 28.759 5.51751 28.7625 5.452 28.7609C5.38675 28.7655 5.32124 28.7655 5.25599 28.7609L5.05999 28.7407L4.86398 28.6973C4.79917 28.683 4.73535 28.6647 4.67288 28.6425C4.61016 28.6222 4.54646 28.6039 4.48471 28.5789C4.23316 28.492 3.99377 28.3743 3.77224 28.2285C3.66033 28.1553 3.55712 28.07 3.46451 27.9743C3.36664 27.878 3.2911 27.762 3.24303 27.6344L3.29889 27.6036Z" fill="#C47618"/>
<path d="M8.90168 27.4312C8.7458 27.7237 8.54775 27.9925 8.31366 28.2294C8.0809 28.4665 7.81492 28.6697 7.52376 28.8331C7.23252 28.995 6.91794 29.1125 6.59078 29.1816C6.26404 29.2472 5.92986 29.2699 5.59704 29.249C5.92935 29.2642 6.26224 29.2357 6.58686 29.1643C6.90978 29.0898 7.21937 28.9677 7.50514 28.8023C7.7895 28.6357 8.04822 28.4302 8.27348 28.1918C8.49957 27.956 8.69001 27.6894 8.83896 27.4004L8.90168 27.4312Z" fill="#C47618"/>
<path d="M8.84974 24.2645C8.88818 24.3719 8.91351 24.4834 8.9252 24.5967C8.93891 24.7085 8.94187 24.8213 8.93402 24.9337C8.92018 25.1581 8.86955 25.3789 8.78407 25.5874C8.696 25.7923 8.5835 25.9863 8.44891 26.1651C8.31879 26.3471 8.17463 26.519 8.0177 26.6793C7.86276 26.8411 7.69639 26.992 7.51984 27.1308C7.4336 27.2021 7.34148 27.2656 7.25034 27.3321C7.1592 27.3985 7.06512 27.4582 6.96711 27.5121C6.58172 27.7445 6.16033 27.9136 5.71954 28.0128C6.15788 27.9078 6.57593 27.7335 6.95731 27.4967C7.05531 27.4418 7.1445 27.3754 7.2376 27.3138C7.3307 27.2521 7.41792 27.1819 7.50319 27.1096C7.67732 26.9695 7.84107 26.8173 7.9932 26.6542C8.14645 26.4933 8.287 26.3211 8.41362 26.1391C8.54359 25.9597 8.65149 25.7658 8.73507 25.5614C8.81544 25.3577 8.86145 25.1424 8.8713 24.9241C8.87734 24.8154 8.87307 24.7065 8.85856 24.5986C8.84546 24.492 8.82049 24.387 8.78407 24.2857L8.84974 24.2645Z" fill="#C47618"/>
<path d="M22.1584 19.7412C22.1584 19.7412 22.6073 19.9953 22.8641 21.0092C23.1208 22.023 25.9943 23.1081 26.6381 24.3376C27.282 25.5672 27.8465 28.8359 29 30.4997C27.38 33.6327 14.9327 37.0025 7.85011 32.3338C8.86248 23.7022 12.2681 22.2021 12.661 21.5272C13.054 20.8522 14.1918 19.8413 15.4355 19.7412C16.6791 19.641 22.1584 19.7412 22.1584 19.7412Z" fill="#FFF4E1"/>
<path d="M25.3778 24.5005C24.7369 23.2758 22.5994 23.0736 22.329 22.0713C21.6635 22.8021 20.8452 23.5203 19.8348 23.5781C20.2768 24.591 19.9828 25.9659 21.2343 26.4723C20.2405 26.843 19.7084 26.7929 18.8244 26.5041C17.8669 26.1421 17.5504 24.41 16.8154 23.9045C16.4469 23.6156 15.2826 23.5713 14.8406 23.7119C13.8096 24.1461 12.6904 25.3121 11.5085 25.0223C12.319 24.5159 12.466 23.503 13.203 23.0004C14.431 22.1753 15.3179 21.0748 15.5168 19.7365L15.4316 19.7422C14.1879 19.8385 13.0501 20.8524 12.6571 21.5283C12.2641 22.2041 8.85855 23.7033 7.84619 32.3349C14.9288 37.0017 25.5758 33.5866 27.43 31.9575C26.2804 30.2918 26.0207 25.7309 25.3778 24.5005Z" fill="#FFFEFD"/>
<path d="M8.42048 29.042C8.42048 29.042 8.70567 30.5257 11.1645 32.0267C14.1095 33.8253 20.6296 35.8616 26.9017 29.6996C27.069 30.3308 27.1801 30.9751 27.234 31.6252C27.234 31.6252 21.544 36.4393 13.2138 34.5705C8.46948 33.5047 7.97457 31.1409 7.97457 31.1409L8.42048 29.042Z" fill="#FFF4E1"/>
<path d="M20.3033 29.0623C20.3033 29.0623 20.0298 30.8213 23.0258 32.6391L23.1718 33.1282C23.1718 33.1282 20.3033 32.2068 20.3033 29.0623Z" fill="#FFF4E1"/>
<path d="M21.8419 27.5034C21.8419 27.5034 21.9811 29.0622 22.8572 31.2199C22.9287 31.786 22.9954 32.2453 22.9954 32.2453C22.9954 32.2453 21.9899 30.9368 21.8419 27.5034Z" fill="#FFF4E1"/>
<path d="M28.85 30.1974C28.2493 29.1923 27.8181 27.7683 27.4349 26.4973C27.1605 25.5904 26.9243 24.8076 26.6705 24.3214C26.349 23.7061 25.4886 23.1352 24.6565 22.5825C23.8245 22.0299 23.0258 21.5013 22.8993 21.0006C22.6426 19.9839 22.1957 19.721 22.1761 19.7104L22.1682 19.7056H22.1584C22.1036 19.7056 16.6635 19.6094 15.4325 19.7056C14.1634 19.8067 13.0295 20.8215 12.6287 21.509C12.565 21.6187 12.4141 21.7555 12.2034 21.9451C11.144 22.9012 8.66451 25.1388 7.81777 32.2916H7.89225C8.73703 25.1725 11.1998 22.9522 12.2534 21.9981C12.468 21.8055 12.6238 21.664 12.6934 21.5446C13.0736 20.8899 14.2095 19.8761 15.4374 19.7778C16.6399 19.6816 21.8762 19.7778 22.1457 19.7778C22.2045 19.8164 22.5965 20.1052 22.8317 21.018C22.965 21.5446 23.7686 22.077 24.6193 22.6422C25.4435 23.1901 26.2961 23.7552 26.6087 24.3541C26.8596 24.8355 27.0987 25.6144 27.3682 26.5185C27.7475 27.7779 28.1738 29.1874 28.7687 30.1974H28.85Z" fill="#C47618"/>
<path d="M16.2421 34.6379L16.1695 34.6215C16.9271 31.529 19.6858 27.7172 21.2078 26.6359C22.2858 25.8657 22.5328 25.157 22.4162 24.7796C22.3893 24.6859 22.3315 24.6035 22.2519 24.5455C22.1723 24.4875 22.0753 24.4571 21.9762 24.459C20.2317 24.2193 18.5079 23.4307 18.4912 23.423L18.5226 23.3575C18.5392 23.3652 20.2533 24.149 21.983 24.3868C22.0967 24.3866 22.2073 24.4228 22.2982 24.4898C22.3891 24.5569 22.4552 24.6512 22.4867 24.7584C22.6102 25.159 22.3613 25.9061 21.2509 26.6947C19.7378 27.7692 16.9947 31.5627 16.2421 34.6379Z" fill="#C47618"/>
<path d="M15.6119 34.5686L15.5403 34.5512C16.2264 31.8082 18.2922 28.4229 20.2445 26.8429C21.593 25.7482 21.9899 25.1176 21.9105 24.8923C21.885 24.8172 21.8007 24.7767 21.6606 24.7719C19.532 24.5687 17.3534 23.631 17.3318 23.6194L17.3612 23.553C17.3828 23.5626 19.5486 24.4946 21.6625 24.6968C21.8341 24.7026 21.9409 24.7594 21.9771 24.8653C22.0889 25.1878 21.4567 25.9465 20.2876 26.8959C18.3501 28.4701 16.2979 31.839 15.6119 34.5686Z" fill="#C47618"/>
<path d="M23.2561 33.7463C23.2404 33.6857 21.7498 27.5843 23.5883 25.185C24.9211 23.4432 26.0923 23.6695 26.1364 23.6801L26.1216 23.7504C26.1099 23.7504 24.9456 23.527 23.6422 25.2283C21.8242 27.6016 23.307 33.6683 23.3227 33.729L23.2561 33.7463Z" fill="#C47618"/>
<path d="M20.3042 25.4411C20.3001 25.477 20.3041 25.5133 20.3162 25.5474C20.3282 25.5815 20.3479 25.6125 20.3738 25.6381C20.3997 25.6637 20.4311 25.6832 20.4657 25.6953C20.5003 25.7074 20.5372 25.7117 20.5737 25.7078C20.6533 25.6943 20.7255 25.654 20.7783 25.594C20.831 25.5339 20.8609 25.4578 20.8629 25.3785C20.8669 25.3426 20.8626 25.3063 20.8505 25.2722C20.8383 25.2381 20.8185 25.2072 20.7926 25.1816C20.7666 25.156 20.7352 25.1364 20.7005 25.1244C20.6659 25.1123 20.6289 25.108 20.5924 25.1118C20.5129 25.1254 20.4408 25.1657 20.3882 25.2257C20.3357 25.2858 20.306 25.3619 20.3042 25.4411Z" fill="#C47618"/>
<path d="M17.1388 28.7454C17.1348 28.7813 17.139 28.8175 17.1511 28.8515C17.1632 28.8855 17.1829 28.9164 17.2087 28.942C17.2346 28.9676 17.2659 28.9871 17.3004 28.9993C17.3349 29.0114 17.3718 29.0158 17.4083 29.0121C17.4879 28.9988 17.5603 28.9586 17.613 28.8985C17.6658 28.8384 17.6956 28.7622 17.6974 28.6829C17.7014 28.6471 17.6972 28.6108 17.6851 28.5768C17.673 28.5428 17.6533 28.5119 17.6274 28.4863C17.6016 28.4608 17.5703 28.4412 17.5357 28.429C17.5012 28.4169 17.4644 28.4125 17.4279 28.4162C17.3483 28.4296 17.2759 28.4697 17.2231 28.5298C17.1704 28.5899 17.1406 28.6661 17.1388 28.7454Z" fill="#C47618"/>
<path d="M15.2973 32.486C15.2931 32.5219 15.2972 32.5582 15.3092 32.5923C15.3213 32.6264 15.341 32.6574 15.3668 32.683C15.3927 32.7086 15.4241 32.7281 15.4587 32.7402C15.4934 32.7523 15.5303 32.7565 15.5668 32.7527C15.6464 32.7389 15.7187 32.6985 15.7714 32.6383C15.8241 32.5781 15.854 32.5018 15.8559 32.4225C15.8599 32.3866 15.8557 32.3502 15.8435 32.3162C15.8314 32.2821 15.8116 32.2511 15.7857 32.2255C15.7597 32.1999 15.7283 32.1804 15.6936 32.1683C15.659 32.1562 15.622 32.152 15.5854 32.1558C15.506 32.1697 15.4339 32.2102 15.3814 32.2704C15.3289 32.3306 15.2992 32.4068 15.2973 32.486Z" fill="#C47618"/>
<path d="M22.9621 32.2752C22.7557 31.905 22.5813 31.5186 22.4407 31.1198C22.2971 30.7241 22.1793 30.3199 22.0879 29.9095C21.9962 29.5 21.9307 29.0851 21.8919 28.6675C21.8664 28.4586 21.8605 28.2487 21.8488 28.0398C21.8409 27.9348 21.8488 27.8308 21.8488 27.7259V27.413V27.7278C21.8488 27.8318 21.8488 27.9367 21.8586 28.0417C21.8733 28.2506 21.8821 28.4595 21.9105 28.6675C21.9563 29.0836 22.0283 29.4965 22.1261 29.9038C22.2232 30.311 22.3466 30.7117 22.4956 31.1034C22.6406 31.4953 22.8186 31.8747 23.0277 32.2376L22.9621 32.2752Z" fill="#C47618"/>
<path d="M23.1522 33.1985C22.7848 33.0707 22.4405 32.8864 22.132 32.6526C21.8229 32.4236 21.5443 32.1574 21.3029 31.8602C21.2421 31.787 21.1882 31.708 21.1314 31.631L21.0461 31.5155L20.9716 31.3942C20.9226 31.3123 20.8736 31.2324 20.8236 31.1496L20.6953 30.8954L20.6316 30.7683L20.5786 30.6355L20.4728 30.3717C20.4553 30.3276 20.4402 30.2826 20.4277 30.2369L20.3866 30.1011L20.3033 29.8296L20.3905 30.1001L20.4346 30.2349C20.4473 30.2805 20.463 30.3252 20.4816 30.3688L20.5914 30.6307L20.6463 30.7616L20.7119 30.8877L20.8442 31.139C20.8922 31.2209 20.9422 31.2998 20.9951 31.3797L21.0716 31.4991L21.1569 31.6127C21.2157 31.6878 21.2696 31.7658 21.3313 31.838C21.5755 32.128 21.8556 32.3867 22.1653 32.6083C22.4708 32.8324 22.8105 33.0075 23.1718 33.1272L23.1522 33.1985Z" fill="#C47618"/>
<path d="M22.0546 18.5752C22.0546 18.5752 22.8386 19.4533 22.1192 20.8764C21.3999 22.2994 18.9949 23.8919 16.7115 23.3855C14.428 22.879 14.1928 21.0747 15.0454 19.6469C15.8981 18.219 22.0546 18.5752 22.0546 18.5752Z" fill="#E81A1A"/>
<path d="M21.7664 19.6526C21.7664 19.6526 20.5404 21.7477 17.5582 22.1068C18.2442 22.4919 18.599 22.4861 18.599 22.4861C18.599 22.4861 21.198 21.5522 21.7664 19.6526Z" fill="#F24444"/>
<path d="M21.9438 18.9979C21.9762 19.086 21.9944 19.1786 21.9977 19.2723C22.002 19.3688 21.9974 19.4654 21.984 19.5611C21.956 19.7532 21.9026 19.941 21.8252 20.1195C21.7495 20.2998 21.6577 20.4732 21.5508 20.6375L21.4714 20.7617C21.443 20.8022 21.4126 20.8407 21.3842 20.8802C21.3558 20.9196 21.3274 20.9601 21.2941 20.9967L21.1961 21.1084C20.9309 21.4014 20.6259 21.657 20.2895 21.868C19.9551 22.0832 19.5971 22.2608 19.2223 22.3976C19.6 22.2661 19.9616 22.0936 20.3003 21.8834C20.6422 21.6762 20.9532 21.4234 21.2245 21.1324L21.3225 21.0217C21.3558 20.9851 21.3842 20.9437 21.4205 20.9042C21.4567 20.8648 21.4812 20.8263 21.5106 20.7858L21.593 20.6616C21.7033 20.4963 21.799 20.322 21.8791 20.1407C21.9612 19.9584 22.0191 19.7665 22.0516 19.5698C22.0881 19.3691 22.0754 19.1628 22.0144 18.968L21.9438 18.9979Z" fill="#91520D"/>
<path d="M16.7036 23.4201C15.7177 23.2016 15.0376 22.7211 14.7299 22.0298C14.4221 21.3385 14.5211 20.4498 15.0111 19.6286C15.8618 18.2017 21.8047 18.5252 22.0575 18.5396H22.0722L22.083 18.5502C22.0908 18.5598 22.8739 19.4639 22.1526 20.8918C21.5351 22.1146 19.6231 23.5164 17.6033 23.5164C17.3007 23.5172 16.999 23.4849 16.7036 23.4201ZM15.0739 19.6651C14.5966 20.4662 14.4956 21.3173 14.7975 22.0009C15.0993 22.6845 15.7579 23.1361 16.7203 23.3489C19.0096 23.8563 21.3891 22.2416 22.0869 20.86C22.7416 19.5621 22.1222 18.7168 22.0369 18.6099C21.688 18.5926 15.8814 18.3114 15.0739 19.6651Z" fill="#91520D"/>
<path d="M16.5508 22.4246C16.5508 22.4246 17.8189 21.534 18.8881 22.5295C19.9573 23.5251 19.4212 25.2427 20.2013 25.9148C19.1321 26.531 17.8091 25.2668 17.4945 24.3242C17.1799 23.3816 17.0153 23.2045 16.833 23.0013C16.7029 22.8282 16.6071 22.6325 16.5508 22.4246Z" fill="#E81A1A"/>
<path d="M16.5723 22.4111C16.7389 22.3023 17.8983 21.6081 18.8881 22.5295C19.0327 22.6648 19.1559 22.8206 19.2537 22.9917C19.1232 22.823 18.9604 22.681 18.7744 22.5738C18.3932 22.3543 18.2325 22.5498 18.3756 22.6923C18.5186 22.8347 18.5931 23.1313 18.7009 23.4153C18.2756 22.8704 17.9424 22.6711 17.7278 22.7943C17.5131 22.9176 17.7278 23.268 17.8189 23.4885C17.4818 23.0957 17.3406 23.1997 17.4083 23.3759C17.4759 23.552 17.5955 24.2299 18.0561 24.7633C18.5167 25.2967 19.3213 26.3278 20.1386 25.9071C20.1269 25.9273 20.1131 25.9475 20.0994 25.9668C19.0488 26.4482 17.7993 25.237 17.4945 24.3242C17.1799 23.3816 17.0153 23.2045 16.833 23.0013C16.7038 22.8304 16.6086 22.637 16.5527 22.4313L16.5723 22.4111Z" fill="#F24444"/>
<path d="M19.0596 26.0111C18.2883 25.7222 17.6592 24.9337 17.4592 24.3358C17.1505 23.4105 16.9859 23.2266 16.8124 23.0321L16.8056 23.0254C16.67 22.8486 16.5702 22.6479 16.5115 22.4342L16.5047 22.4101L16.5253 22.3957C16.538 22.3861 17.8307 21.4993 18.9097 22.5035C19.4977 23.0485 19.6074 23.8101 19.7074 24.4831C19.7917 25.0502 19.8711 25.5855 20.2219 25.8868L20.2601 25.9205L20.216 25.9456C20.0262 26.0561 19.8095 26.114 19.5888 26.1131C19.4076 26.111 19.2282 26.0764 19.0596 26.0111ZM19.6388 24.4937C19.5408 23.8322 19.4291 23.0831 18.8626 22.5565C17.9032 21.662 16.7634 22.3321 16.5939 22.44C16.6481 22.6339 16.7388 22.8162 16.8614 22.9772L16.8673 22.984C17.0466 23.1842 17.2162 23.3739 17.5298 24.3126C17.7258 24.9038 18.3628 25.675 19.0861 25.9437C19.2532 26.0148 19.4345 26.0485 19.6165 26.0422C19.7986 26.0358 19.977 25.9897 20.1386 25.9071C19.8005 25.5836 19.7221 25.054 19.6388 24.4937Z" fill="#91520D"/>
<path d="M16.0147 22.4005C16.0147 22.4005 15.457 21.2595 14.2791 21.5638C13.1011 21.868 12.7953 23.3209 11.9593 23.5029C12.4846 24.3694 13.9547 23.9679 14.5633 23.4066C15.1719 22.8453 15.363 22.7827 15.5776 22.7067C15.7415 22.6324 15.8898 22.5285 16.0147 22.4005Z" fill="#E81A1A"/>
<path d="M14.4408 21.8595C14.0605 21.9018 13.5019 22.2513 12.9129 22.9455C12.5425 23.3817 12.2377 23.4683 12.0622 23.4722C12.8227 23.1987 13.1511 21.8546 14.2791 21.5639C14.4822 21.5056 14.6964 21.4949 14.9045 21.5325C15.1126 21.5701 15.3089 21.655 15.4776 21.7805C15.2699 22.1117 14.8367 22.6374 14.8367 22.6374C14.7008 22.6535 14.5671 22.6838 14.4378 22.7279C14.1438 22.8155 13.7097 23.2719 13.7097 23.2719C13.8141 23.0844 13.9515 22.9166 14.1154 22.776C14.4163 22.5016 14.7034 22.4477 14.4868 22.4179C14.2702 22.388 13.8214 22.5883 13.5244 22.9359C13.299 23.2237 12.9825 23.4296 12.6248 23.5213C13.0423 23.4105 13.4088 22.9436 13.6528 22.6287C13.7766 22.4812 13.9305 22.3607 14.1045 22.2749C14.2785 22.1892 14.4688 22.1402 14.6632 22.131C14.8387 22.1088 14.822 21.8171 14.4408 21.8595Z" fill="#F24444"/>
<path d="M17.0408 22.5603C17.4024 22.5326 17.764 22.6146 18.0766 22.7952C18.2314 22.8882 18.3701 23.0049 18.4873 23.1409C18.6013 23.2804 18.6953 23.4346 18.7666 23.5992C18.8401 23.7629 18.894 23.9362 18.9557 24.1066L19.1341 24.6188C19.1939 24.7892 19.2527 24.9606 19.3301 25.1262C19.3661 25.2098 19.4125 25.2887 19.4683 25.3611C19.527 25.4308 19.5957 25.4917 19.6721 25.5421C19.598 25.4906 19.532 25.4286 19.4761 25.3582C19.4216 25.2854 19.3765 25.2061 19.3419 25.1223C19.2703 24.9567 19.2145 24.7844 19.1576 24.613L18.9812 24.1008C18.9234 23.9294 18.8724 23.7561 18.7999 23.5876C18.7299 23.4183 18.6366 23.2593 18.5226 23.1149C18.4044 22.9728 18.2638 22.8502 18.106 22.7519C17.7826 22.558 17.4061 22.4669 17.028 22.491L17.0408 22.5603Z" fill="#91520D"/>
<path d="M16.9957 22.7952C17.0686 22.8056 17.1389 22.8287 17.2034 22.8636C17.2368 22.879 17.2681 22.9011 17.3014 22.9194C17.3348 22.9377 17.3642 22.9628 17.3926 22.9878C17.5101 23.0864 17.6113 23.2024 17.6925 23.3315C17.7351 23.3956 17.7743 23.4618 17.8101 23.5299C17.8444 23.5982 17.8757 23.6685 17.9081 23.7388C17.9404 23.8091 17.9649 23.8823 17.9894 23.9545L18.058 24.175L17.9982 23.9516C17.9757 23.8784 17.9492 23.8052 17.9257 23.7321C17.9022 23.6589 17.8669 23.5886 17.8356 23.5183C17.8024 23.4478 17.7654 23.379 17.7248 23.3123C17.6466 23.1764 17.5474 23.0533 17.4308 22.9474C17.4024 22.9204 17.3691 22.8973 17.3387 22.8723C17.3072 22.8491 17.2745 22.8276 17.2407 22.8078C17.169 22.7655 17.0899 22.7368 17.0074 22.723L16.9957 22.7952Z" fill="#91520D"/>
<path d="M14.8357 22.6017C14.7182 22.6082 14.6028 22.6349 14.4947 22.6806C14.3894 22.7246 14.2886 22.7785 14.1938 22.8414C14.0997 22.9039 14.0105 22.9735 13.9272 23.0494C13.8861 23.0869 13.8469 23.1264 13.8057 23.1659L13.692 23.2891L13.8126 23.1717C13.8547 23.1351 13.8959 23.0975 13.939 23.0629C14.0253 22.9919 14.1171 22.9275 14.2134 22.8703C14.3086 22.8136 14.4094 22.7666 14.5143 22.7297C14.6159 22.6926 14.7233 22.673 14.8318 22.672L14.8357 22.6017Z" fill="#91520D"/>
<path d="M14.9327 22.1281C14.7921 22.1015 14.6477 22.0998 14.5064 22.1232C14.3667 22.1451 14.2314 22.1887 14.1056 22.2523C13.8573 22.3826 13.6454 22.5707 13.4882 22.8001L13.3667 22.9638C13.3245 23.0177 13.2775 23.0668 13.2334 23.1178C13.1392 23.2162 13.0336 23.3035 12.9188 23.3778C12.6898 23.5337 12.412 23.6046 12.1348 23.5781C12.4126 23.6098 12.693 23.5444 12.9266 23.3932C13.0442 23.3201 13.1531 23.2342 13.251 23.1371C13.2971 23.0861 13.349 23.0408 13.3892 22.984L13.5166 22.8213C13.6736 22.6014 13.8833 22.4228 14.1272 22.3014C14.2489 22.2431 14.3792 22.2041 14.5133 22.1858C14.6456 22.1664 14.7803 22.1704 14.9112 22.1974L14.9327 22.1281Z" fill="#91520D"/>
<path d="M12.7463 24.0258C12.5797 24.0093 12.4191 23.9553 12.2772 23.868C12.1353 23.7806 12.0158 23.6623 11.928 23.5222L11.9015 23.4789L11.9515 23.4683C12.3249 23.3865 12.5983 23.0302 12.8874 22.6538C13.2324 22.2041 13.6234 21.6909 14.2702 21.5292C15.4629 21.2201 16.0421 22.3726 16.048 22.3842L16.0598 22.4073L16.0421 22.4256C15.9131 22.5578 15.7598 22.665 15.5903 22.7414H15.5825C15.3786 22.8136 15.1856 22.8829 14.5887 23.4307C14.1431 23.8094 13.5774 24.0242 12.9884 24.0383C12.9075 24.0395 12.8266 24.0353 12.7463 24.0258ZM14.2889 21.5976C13.6675 21.7583 13.2843 22.2561 12.9462 22.6961C12.661 23.0678 12.3906 23.4192 12.0172 23.5251C12.1009 23.6452 12.2105 23.7457 12.3382 23.8196C12.4659 23.8935 12.6086 23.9389 12.7561 23.9526C13.3872 24.0402 14.1575 23.7302 14.5378 23.3807C15.1464 22.8213 15.3463 22.75 15.558 22.6749H15.5649C15.7164 22.6076 15.8537 22.5129 15.9696 22.3957C15.8843 22.2378 15.3326 21.3289 14.2889 21.5976Z" fill="#91520D"/>
<path d="M17.6131 21.6427C17.6131 21.6427 16.7115 22.2445 17.08 23.4817C16.59 24.0045 16.1734 23.4817 15.6991 23.5058C15.0886 23.5356 14.8828 23.2709 14.8367 22.7278C14.7818 22.0905 15.2846 21.4078 15.8373 21.3443C16.39 21.2807 17.6131 21.6427 17.6131 21.6427Z" fill="#E81A1A"/>
<path d="M15.3738 21.5012C15.3738 21.5012 14.8436 21.946 14.8357 22.6036C14.8279 23.2612 15.3679 23.242 15.4786 22.8742C15.5894 22.5064 15.6629 22.1858 15.9137 22.051C15.8001 22.3158 15.6197 22.7779 15.6795 23.087C15.7393 23.396 16.4577 23.4538 16.586 23.0735C16.7144 22.6932 16.5655 22.1453 17.0319 21.9277C16.4948 21.7325 15.9394 21.5897 15.3738 21.5012Z" fill="#F24444"/>
<path d="M16.1646 23.6455C16.0185 23.5816 15.861 23.5466 15.7011 23.5424C15.1131 23.5723 14.8514 23.3364 14.7995 22.7308C14.7436 22.079 15.2552 21.3742 15.8334 21.3078C16.3861 21.2452 17.5739 21.5966 17.6239 21.6081L17.6974 21.6303L17.6337 21.6727C17.6249 21.6784 16.7585 22.2744 17.1152 23.4712L17.1211 23.4905L17.1074 23.5059C17.0479 23.5805 16.9724 23.6413 16.8861 23.6837C16.7998 23.7262 16.705 23.7493 16.6086 23.7514C16.4554 23.742 16.3051 23.7062 16.1646 23.6455ZM17.5367 21.6582C17.273 21.5841 16.3087 21.327 15.8442 21.38C15.3032 21.4425 14.823 22.1088 14.8759 22.7279C14.9249 23.2979 15.1483 23.4982 15.7001 23.4731C15.8692 23.4761 16.0359 23.5128 16.1901 23.581C16.4743 23.684 16.7438 23.7812 17.0388 23.475C16.737 22.4246 17.3387 21.8209 17.5337 21.6582H17.5367Z" fill="#91520D"/>
<path d="M18.0737 11.2165C18.0737 11.2165 16.3283 11.9694 15.9539 14.3186C15.948 14.3593 15.9323 14.398 15.9081 14.4315C15.8839 14.465 15.8519 14.4923 15.8148 14.5112C14.7152 15.0812 14.1624 15.9805 14.4545 17.3034C14.7554 18.6773 15.2385 19.2338 15.018 20.1764C14.7975 21.119 16.3342 21.9008 17.7621 21.3318C19.19 20.7628 21.64 20.5866 21.6674 18.9171C21.8037 17.5431 23.4217 15.9805 23.4217 15.9805C23.4217 15.9805 24.2439 13.7987 22.5171 12.3218C20.7903 10.8448 18.0737 11.2165 18.0737 11.2165Z" fill="#FFDF99"/>
<path d="M19.1066 11.174C19.1066 11.174 18.1266 11.2097 17.1015 12.3891C17.077 12.4161 17.619 12.6212 17.5827 12.6289C16.7399 12.7868 16.1921 13.6581 16.1979 14.4929C16.1979 14.5891 15.9343 14.5304 15.8598 14.5689C14.7593 15.138 14.5427 16.1171 14.8337 17.4439C15.1356 18.8178 15.2375 19.2347 15.018 20.1773C14.7985 21.1199 16.3342 21.9017 17.7621 21.3327C19.1899 20.7637 21.64 20.5875 21.6674 18.918C21.8037 17.544 23.4217 15.9814 23.4217 15.9814C23.4217 15.9814 24.2439 13.7996 22.5171 12.3227C20.7903 10.8457 19.1066 11.174 19.1066 11.174Z" fill="#FFCE83"/>
<path d="M20.5355 13.1315C20.5355 13.1315 20.3983 12.783 19.727 12.6867C18.8205 12.5558 18.3481 13.6351 18.3481 13.6351C18.6235 12.4864 19.1929 12.1909 19.5526 12.1591C19.9122 12.1273 20.5198 12.7734 20.5355 13.1315Z" fill="#F7BE72"/>
<path d="M17.91 11.6584C18.5882 11.1933 19.1066 11.177 19.1066 11.177C19.1066 11.177 20.7874 10.8429 22.5152 12.3237C24.243 13.8045 23.4197 15.9824 23.4197 15.9824C23.4197 15.9824 23.3502 16.0498 23.2394 16.1682C23.1326 15.0311 22.8288 13.9191 22.0889 12.9206C21.1 11.6959 19.4134 11.1028 17.91 11.6584Z" fill="#F7BE72"/>
<path d="M16.9702 16.329C16.9702 16.329 17.8522 16.1547 18.2717 16.329C18.6911 16.5033 19.7838 17.4844 20.317 16.9269C20.3846 17.7597 18.6372 18.8198 16.5743 17.3005C15.5992 17.8781 15.0464 17.2639 15.0004 16.3502C15.3688 16.7661 15.6452 16.1239 16.05 16.1152C16.4547 16.1066 16.9702 16.329 16.9702 16.329Z" fill="#F7BE72"/>
<path d="M18.9959 15.5665C18.9959 15.5665 18.5588 15.5501 18.3795 14.8694C18.2315 14.3129 18.3609 13.8045 18.7009 13.5465C19.041 13.2884 19.4908 13.4829 19.7025 13.9316C19.3771 13.7544 19.0929 13.9797 19.0831 14.2272C19.0733 14.4746 18.9959 15.5665 18.9959 15.5665Z" fill="#F7BE72"/>
<path d="M19.8034 15.4355C19.8034 15.4355 20.22 15.1467 20.119 14.2609C20.3679 14.5141 20.3356 15.3055 19.9995 15.5125C19.9293 15.5008 19.8625 15.4745 19.8034 15.4355Z" fill="#F7BE72"/>
<path d="M18.6372 14.1839C18.6372 14.1839 18.846 13.6621 19.2488 13.6726C19.366 13.6794 19.4786 13.7205 19.5719 13.7907C19.6651 13.8609 19.7349 13.9569 19.7721 14.0664C19.7721 14.0664 19.4595 13.7776 19.2047 14.0761C18.9989 14.0202 18.7323 14.0558 18.6372 14.1839Z" fill="#FFDF99"/>
<path d="M16.4283 13.8112C16.4283 13.8112 16.5331 13.3202 16.9183 13.1941C17.3034 13.0679 17.4318 13.3115 17.4524 13.5022C17.2936 13.2663 16.9526 13.4338 16.9467 13.4627C16.733 13.4858 16.4439 13.7188 16.4283 13.8112Z" fill="#FFDF99"/>
<path d="M15.3532 21.1055C15.0356 20.8397 14.9033 20.5076 14.9827 20.1696C15.1219 19.5707 14.9739 19.1298 14.7681 18.5213C14.6281 18.1251 14.5113 17.7213 14.4182 17.312C14.1409 16.0488 14.6044 15.0975 15.7981 14.4765C15.8296 14.4602 15.8569 14.437 15.8776 14.4086C15.8984 14.3802 15.9121 14.3474 15.9177 14.3128C16.2901 11.9722 18.0404 11.1914 18.058 11.1837H18.0678C18.0953 11.1837 20.8187 10.8216 22.5397 12.2967C24.2606 13.7717 23.4628 15.9775 23.454 15.9997L23.4452 16.0131C23.4295 16.0285 21.836 17.5816 21.7017 18.9237C21.6802 20.2245 20.2092 20.6424 18.9116 21.0111C18.5 21.1286 18.11 21.2393 17.7738 21.3722C17.4547 21.4993 17.1136 21.5647 16.7693 21.5647C16.1783 21.5638 15.6638 21.3654 15.3532 21.1055ZM22.4907 12.3487C20.8315 10.9256 18.2178 11.2347 18.0806 11.252C17.9826 11.2973 16.3449 12.082 15.9872 14.3244C15.9797 14.37 15.9615 14.4132 15.9341 14.4508C15.9068 14.4884 15.8709 14.5192 15.8295 14.541C14.6691 15.1418 14.2173 16.069 14.4868 17.2966C14.58 17.7031 14.6961 18.1043 14.8347 18.4982C15.0445 19.1182 15.1954 19.5669 15.0513 20.186C14.9788 20.496 15.1023 20.8031 15.3982 21.0525C15.8598 21.4376 16.7899 21.6822 17.7434 21.3038C18.0835 21.169 18.4745 21.0583 18.8881 20.9408C20.2239 20.5615 21.6047 20.1706 21.6253 18.9189C21.7576 17.5912 23.2757 16.0738 23.3893 15.9669C23.4374 15.8254 24.1302 13.7544 22.4907 12.3487Z" fill="#C47618"/>
<path d="M16.6341 17.6818C16.6341 17.6818 16.096 18.1054 15.7922 18.349C15.4884 18.5926 16.0686 19.6007 17.0261 19.7306C17.9835 19.8606 19.3585 18.9132 19.1821 17.2369" fill="#F7BE72"/>
<path d="M16.6341 17.6818C16.6341 17.6818 16.096 18.1054 15.7922 18.349C15.4884 18.5926 15.8197 19.3715 16.7771 19.4976C17.7346 19.6238 19.189 19.0008 19.1802 17.2369" fill="#FFA466"/>
<path d="M15.7922 18.349C16.096 18.1054 16.6341 17.6818 16.6341 17.6818L19.1821 17.2369C19.1821 17.2475 19.1821 17.2581 19.1821 17.2687L16.8183 17.6818C16.8183 17.6818 16.2803 18.1054 15.9765 18.349C15.6727 18.5926 16.0039 19.3715 16.9614 19.4976C17.0123 19.5044 17.0643 19.5092 17.1172 19.5111C17.0046 19.5169 16.8918 19.5124 16.7801 19.4976C15.8197 19.3715 15.4884 18.5935 15.7922 18.349Z" fill="#FFBF94"/>
<path d="M17.0212 19.5496C17.5565 19.5487 18.0735 19.3583 18.4775 19.0133C18.8175 18.7245 19.2213 18.1738 19.2164 17.2369H19.14C19.14 17.9571 18.8969 18.5521 18.4255 18.9584C18.2019 19.1504 17.9399 19.2943 17.6564 19.381C17.3729 19.4677 17.0741 19.4953 16.7791 19.462C16.1813 19.3831 15.8246 19.0413 15.7373 18.737C15.7126 18.6763 15.7065 18.6098 15.7199 18.5458C15.7333 18.4818 15.7656 18.423 15.8128 18.3769C16.1127 18.1362 16.6488 17.7135 16.6537 17.7097L16.6076 17.6529C16.6027 17.6577 16.0666 18.0794 15.7658 18.3211C15.7075 18.3762 15.6671 18.447 15.6497 18.5246C15.6323 18.6022 15.6386 18.6831 15.6678 18.7572C15.7658 19.0836 16.1391 19.4504 16.7703 19.5342C16.8535 19.5446 16.9373 19.5497 17.0212 19.5496Z" fill="#C47618"/>
<path d="M16.0039 16.9269C16.0039 16.9269 16.5253 17.6008 16.635 17.6817C16.7144 17.7405 16.4018 18.0668 16.1832 18.2921C16.1275 18.35 16.0952 18.426 16.0927 18.5057C16.0902 18.5854 16.1175 18.6633 16.1695 18.7245C16.6194 19.2415 17.3309 19.2569 18.0316 18.8535C18.3651 18.6676 18.6478 18.405 18.8554 18.0882C19.0629 17.7715 19.1892 17.41 19.2233 17.0347C18.748 17.2648 16.6203 17.2908 16.0039 16.9269Z" fill="#FFFEFD"/>
<path d="M16.0039 16.9269C16.0039 16.9269 16.5253 17.6008 16.635 17.6817C16.7144 17.7405 16.4018 18.0668 16.1832 18.2921C16.1275 18.35 16.0952 18.426 16.0927 18.5057C16.0902 18.5854 16.1175 18.6633 16.1695 18.7245C16.6194 19.2415 17.3309 19.2569 18.0316 18.8535C18.3651 18.6676 18.6478 18.405 18.8554 18.0882C19.0629 17.7715 19.1892 17.41 19.2233 17.0347C18.748 17.2648 16.6203 17.2908 16.0039 16.9269Z" fill="#B24620"/>
<path d="M18.5353 17.8291C18.5591 17.8315 18.582 17.839 18.6026 17.8509C18.6231 17.8629 18.6408 17.8791 18.6544 17.8984C18.668 17.9177 18.6772 17.9396 18.6813 17.9627C18.6854 17.9858 18.6844 18.0096 18.6784 18.0323C18.6509 18.2181 18.3657 18.6793 17.9737 18.8786C17.5817 19.0779 16.9565 19.2637 16.492 18.9874C16.0274 18.711 16.1186 18.4944 16.2479 18.3355C16.4859 18.0955 16.7981 17.9397 17.1358 17.8926C17.5092 17.8522 18.5353 17.8291 18.5353 17.8291Z" fill="#E87243"/>
<path d="M18.3706 17.7742C18.3706 17.7742 16.782 18.0053 16.5743 18.9825C16.5755 18.7436 16.6537 18.5112 16.7977 18.3187C16.9418 18.1261 17.1442 17.9834 17.3759 17.9109C17.9698 17.7068 18.3706 17.7742 18.3706 17.7742Z" fill="#DD5F33"/>
<path d="M16.1411 18.7476C16.0826 18.6797 16.0518 18.593 16.0545 18.5041C16.0572 18.4152 16.0933 18.3305 16.1558 18.2662L16.1744 18.2459C16.3214 18.0929 16.6272 17.7722 16.6115 17.7097C16.4988 17.6268 15.9951 16.976 15.9735 16.9481L15.8579 16.7988L16.0225 16.8951C16.6292 17.2533 18.7264 17.2321 19.2066 17.002L19.2654 16.9731L19.2595 17.0376C19.2248 17.4184 19.0967 17.7852 18.8861 18.1067C18.6754 18.4281 18.3886 18.6946 18.0502 18.8833C17.7593 19.0625 17.4251 19.1622 17.0819 19.1722C16.9028 19.1749 16.7253 19.1382 16.5625 19.0647C16.3997 18.9912 16.2557 18.8829 16.1411 18.7476ZM16.1264 17.0261C16.2905 17.2448 16.4671 17.454 16.6556 17.6528C16.6636 17.6585 16.6702 17.6659 16.6749 17.6744C16.6797 17.6829 16.6825 17.6923 16.6831 17.7019C16.6919 17.803 16.5008 18.012 16.2283 18.297L16.2087 18.3172C16.1589 18.3687 16.1301 18.4365 16.1279 18.5075C16.1258 18.5786 16.1503 18.648 16.197 18.7023C16.6203 19.1885 17.2995 19.2338 18.0129 18.8227C18.3325 18.6443 18.6048 18.3945 18.8076 18.0933C19.0104 17.7922 19.1381 17.4483 19.1802 17.0896C18.6362 17.2889 16.8526 17.3091 16.1264 17.0261Z" fill="#C47618"/>
<path d="M15.9275 16.9269C15.9275 16.9269 15.9882 17.4324 16.1911 17.6923C16.394 17.9523 18.6519 18.4039 19.1184 17.493C18.5235 16.9019 16.6684 16.7228 16.6684 16.7228L15.9275 16.9269Z" fill="#FFFEFD"/>
<path d="M16.1617 17.7145C15.9559 17.4497 15.8932 16.9529 15.8902 16.9317V16.9009L16.6684 16.6814H16.6762C16.7517 16.6891 18.55 16.874 19.1478 17.4671L19.1664 17.4853L19.1547 17.5085C18.9969 17.8166 18.6225 18.0062 18.0717 18.0573C17.9737 18.0669 17.8659 18.0707 17.7611 18.0707C17.0447 18.0717 16.2861 17.8734 16.1617 17.7145ZM16.6723 16.7517L15.9676 16.95C15.9853 17.0617 16.0539 17.4536 16.2205 17.6664C16.3371 17.8156 17.2632 18.0515 18.0619 17.9822C18.4197 17.9494 18.8812 17.8377 19.0733 17.4959C18.4932 16.9577 16.7958 16.7681 16.6723 16.7555V16.7517Z" fill="#C47618"/>
<path d="M19.7515 15.137C19.8809 14.8241 19.8064 14.5082 19.4751 14.2338C19.0537 13.8853 18.6088 14.0345 18.5667 14.3985C18.4745 15.1861 18.7372 15.5182 19.1321 15.5808C19.434 15.628 19.6751 15.3199 19.7515 15.137Z" fill="#FFFEFD"/>
<path d="M19.0077 15.1226C19.0119 15.1878 19.0354 15.2504 19.0753 15.3026C19.1153 15.3549 19.1699 15.3945 19.2325 15.4167C19.295 15.4388 19.3628 15.4425 19.4275 15.4273C19.4922 15.412 19.5509 15.3786 19.5965 15.331C19.642 15.2834 19.6724 15.2237 19.6839 15.1594C19.6954 15.095 19.6875 15.0288 19.6612 14.9688C19.6349 14.9088 19.5913 14.8576 19.5358 14.8217C19.4802 14.7857 19.4152 14.7665 19.3487 14.7664C19.3025 14.7677 19.257 14.778 19.2149 14.7967C19.1727 14.8153 19.1347 14.842 19.103 14.875C19.0714 14.9081 19.0466 14.947 19.0303 14.9895C19.0139 15.032 19.0062 15.0772 19.0077 15.1226Z" fill="#633507"/>
<path d="M19.4124 15.1072C19.4633 15.1072 19.5045 15.0666 19.5045 15.0167C19.5045 14.9667 19.4633 14.9261 19.4124 14.9261C19.3615 14.9261 19.3203 14.9667 19.3203 15.0167C19.3203 15.0666 19.3615 15.1072 19.4124 15.1072Z" fill="#FFFEFD"/>
<path d="M19.1262 15.6165C18.795 15.5645 18.4236 15.3103 18.5304 14.3947C18.5372 14.3156 18.5665 14.2399 18.6148 14.1763C18.6631 14.1127 18.7286 14.0636 18.8038 14.0346C19.0116 13.9537 19.2713 14.0182 19.4987 14.206C19.8289 14.4804 19.9279 14.8068 19.7858 15.1505C19.7182 15.3123 19.4918 15.6213 19.1978 15.6213C19.1739 15.6213 19.15 15.6197 19.1262 15.6165ZM19.7143 15.1226C19.8436 14.8116 19.7515 14.5131 19.4477 14.2618C19.2419 14.0904 19.0096 14.0308 18.8283 14.101C18.7656 14.1256 18.711 14.1667 18.6707 14.2199C18.6304 14.2732 18.6059 14.3363 18.6 14.4024C18.5206 15.0821 18.7058 15.4779 19.1351 15.5443C19.4193 15.5886 19.6515 15.2737 19.7143 15.1226Z" fill="#C47618"/>
<path d="M19.8358 14.9791C19.9536 14.6969 19.9536 14.3804 19.8358 14.0982C19.7907 13.9987 19.7256 13.9093 19.6444 13.8352C19.5632 13.761 19.4677 13.7038 19.3634 13.6668C19.3064 13.6442 19.2452 13.6336 19.1837 13.6358C19.1222 13.6379 19.0619 13.6528 19.0067 13.6793C18.7186 13.8161 18.5804 14.2262 18.5745 14.2436L18.6441 14.2667C18.6441 14.2667 18.7793 13.8671 19.0361 13.7439C19.0819 13.7227 19.1315 13.711 19.1821 13.7093C19.2326 13.7077 19.283 13.7161 19.3301 13.7342C19.4251 13.768 19.5122 13.8203 19.5861 13.888C19.6601 13.9556 19.7193 14.0373 19.7603 14.128C19.8713 14.3926 19.8713 14.6895 19.7603 14.9541L19.8358 14.9791Z" fill="#C47618"/>
<path d="M16.5429 14.8338C16.5429 14.8338 16.2489 14.7789 16.291 14.2407C16.3332 13.7025 16.7526 13.4416 17.0133 13.4955C17.274 13.5494 17.4357 13.8296 17.2779 14.3283C17.1201 14.827 16.5429 14.8338 16.5429 14.8338Z" fill="#FFFEFD"/>
<path d="M16.6262 14.2984C16.6292 14.3591 16.65 14.4176 16.686 14.467C16.7221 14.5164 16.7718 14.5545 16.8294 14.5768C16.8869 14.5991 16.9498 14.6046 17.0104 14.5927C17.0711 14.5807 17.1269 14.5518 17.1713 14.5095C17.2156 14.4672 17.2466 14.4131 17.2605 14.3539C17.2744 14.2947 17.2706 14.2328 17.2496 14.1757C17.2286 14.1185 17.1912 14.0686 17.142 14.0317C17.0928 13.9949 17.0338 13.9729 16.9722 13.9682C16.8819 13.9674 16.7949 14.0016 16.7301 14.0634C16.6654 14.1253 16.628 14.2097 16.6262 14.2984Z" fill="#633507"/>
<path d="M16.9261 14.2156C16.9243 14.2271 16.925 14.2388 16.928 14.25C16.9311 14.2613 16.9364 14.2718 16.9438 14.2809C16.9511 14.29 16.9603 14.2975 16.9708 14.303C16.9812 14.3085 16.9927 14.3118 17.0045 14.3127C17.0163 14.3137 17.0282 14.3122 17.0394 14.3084C17.0506 14.3046 17.0608 14.2986 17.0696 14.2908C17.0783 14.2829 17.0853 14.2734 17.0901 14.2628C17.095 14.2521 17.0975 14.2407 17.0976 14.229C17.0994 14.2175 17.0987 14.2058 17.0957 14.1946C17.0926 14.1833 17.0873 14.1728 17.0799 14.1637C17.0726 14.1546 17.0634 14.147 17.0529 14.1416C17.0425 14.1361 17.031 14.1328 17.0192 14.1319C17.0074 14.1309 16.9955 14.1324 16.9843 14.1362C16.9731 14.14 16.9629 14.146 16.9541 14.1538C16.9454 14.1617 16.9384 14.1712 16.9336 14.1818C16.9288 14.1924 16.9262 14.2039 16.9261 14.2156Z" fill="#FFFEFD"/>
<path d="M16.5361 14.8694C16.5223 14.8694 16.2117 14.802 16.2538 14.2377C16.2588 14.11 16.2919 13.9849 16.351 13.871C16.41 13.7571 16.4936 13.6572 16.5958 13.5782C16.6545 13.5305 16.7226 13.4954 16.7958 13.475C16.869 13.4546 16.9458 13.4494 17.0212 13.4598C17.0794 13.4711 17.1345 13.4946 17.1826 13.5287C17.2308 13.5627 17.271 13.6065 17.3005 13.6572C17.3691 13.7708 17.4259 13.9816 17.3132 14.3388C17.1495 14.8559 16.5488 14.8694 16.5429 14.8694H16.5361ZM16.6399 13.636C16.546 13.7087 16.4694 13.8006 16.4154 13.9053C16.3614 14.0101 16.3313 14.1252 16.3273 14.2426C16.292 14.7143 16.5145 14.7885 16.5468 14.7971C16.6017 14.7971 17.1005 14.7673 17.2426 14.3157C17.3475 13.9845 17.2975 13.7939 17.2368 13.6928C17.2124 13.651 17.1791 13.6148 17.1392 13.5867C17.0993 13.5586 17.0537 13.5393 17.0055 13.5301C16.9849 13.5254 16.9639 13.5231 16.9428 13.5233C16.8322 13.5284 16.7262 13.5679 16.6399 13.636Z" fill="#C47618"/>
<path d="M17.3044 14.362C17.4675 14.085 17.533 13.7628 17.4906 13.4454C17.4788 13.3753 17.4489 13.3094 17.4037 13.254C17.3586 13.1985 17.2996 13.1555 17.2326 13.1289C17.1656 13.1023 17.0927 13.0931 17.021 13.1021C16.9493 13.1112 16.8812 13.1382 16.8232 13.1806C16.4733 13.3857 16.3861 13.8142 16.3822 13.8315L16.4547 13.8161C16.5112 13.5802 16.656 13.374 16.8604 13.2384C16.9081 13.2018 16.9647 13.1781 17.0246 13.1696C17.0845 13.1611 17.1456 13.168 17.2019 13.1898C17.2582 13.2116 17.3078 13.2474 17.3457 13.2938C17.3836 13.3401 17.4086 13.3954 17.4181 13.4541C17.4569 13.7543 17.3942 14.0588 17.2397 14.3206L17.3044 14.362Z" fill="#C47618"/>
<path d="M20.6796 13.3654C20.6796 13.3654 20.219 12.4517 19.5477 12.5066C19.2252 12.5519 19.2713 11.9732 19.6114 11.8326C19.5903 11.8573 19.5748 11.8862 19.5662 11.9173C19.5576 11.9484 19.5559 11.9809 19.5614 12.0127C19.5937 11.9049 19.8025 11.8596 19.8652 11.8596C19.7593 11.9135 19.777 11.9857 19.777 11.9857C19.9573 11.9049 20.2376 12.0445 20.2376 12.0445C20.1679 12.04 20.0982 12.0526 20.0347 12.081C20.1438 12.0918 20.2486 12.1278 20.3408 12.186C20.433 12.2442 20.5098 12.3231 20.5649 12.4161C20.5104 12.3892 20.4605 12.3541 20.4169 12.3121C20.4169 12.3121 20.6796 12.5288 20.711 12.7165C20.6129 12.601 20.559 12.5962 20.559 12.5962C20.6416 12.6806 20.7015 12.7838 20.7335 12.8966C20.7574 12.9742 20.7649 13.0558 20.7556 13.1364C20.7463 13.2171 20.7205 13.295 20.6796 13.3654Z" fill="#91520D"/>
<path d="M16.3577 12.9861C16.3577 12.9861 17.0437 12.394 17.5612 12.6568C17.8052 12.7993 17.9659 12.3131 17.7385 12.0917C17.7471 12.1188 17.7497 12.1475 17.7462 12.1757C17.7427 12.2039 17.733 12.2311 17.718 12.2553C17.7287 12.1591 17.5768 12.0522 17.522 12.031C17.5896 12.11 17.5504 12.1629 17.5504 12.1629C17.4338 12.0377 17.1584 12.0609 17.1584 12.0609C17.2159 12.0799 17.2675 12.113 17.3083 12.1571C17.217 12.1298 17.1204 12.1243 17.0264 12.141C16.9325 12.1578 16.844 12.1963 16.7683 12.2534C16.8212 12.2492 16.8731 12.2368 16.9222 12.2168C16.9222 12.2168 16.638 12.3083 16.5517 12.4518C16.6684 12.3892 16.7144 12.4036 16.7144 12.4036C16.6193 12.4454 16.5362 12.5095 16.4723 12.5904C16.4276 12.6456 16.3944 12.7091 16.3747 12.777C16.355 12.8449 16.3492 12.916 16.3577 12.9861Z" fill="#91520D"/>
<path d="M21.4636 18.1141L22.3103 16.7883C22.3103 16.7883 23.8206 16.0402 24.3909 16.7883C24.9613 17.5364 23.4109 19.0731 22.4946 19.1722C21.5783 19.2714 21.3156 18.6388 21.4636 18.1141Z" fill="#FFCE83"/>
<path d="M22.325 17.5643C22.325 17.5643 22.8592 16.8586 23.6481 16.8903C23.9999 16.9606 24.2439 17.1503 23.7882 17.8608C23.5069 18.1497 23.4207 18.2883 23.2423 18.3962C23.3972 18.2508 23.8303 17.7559 23.9029 17.4516C23.9754 17.1474 23.6157 17.1175 23.6157 17.1175C23.6157 17.1175 23.6579 17.5576 23.4364 17.856C23.5344 17.5855 23.5873 17.2677 23.3933 17.1416C23.4648 17.2968 23.481 17.4711 23.4392 17.6363C23.3974 17.8016 23.3001 17.9482 23.163 18.0524C23.3041 17.8599 23.3639 17.6673 23.2404 17.4555C23.1169 17.2437 22.8562 17.6538 22.7396 17.8859C22.623 18.1179 22.325 17.5643 22.325 17.5643Z" fill="#F7BE72"/>
<path d="M21.4273 18.4655C21.4189 18.3471 21.4312 18.2283 21.4636 18.114L21.544 17.9869C21.4588 18.132 21.4183 18.2982 21.4273 18.4655Z" fill="#FFDF99"/>
<path d="M24.3605 16.9866C23.7892 16.2395 22.6798 16.8393 22.2917 17.1879C22.0614 17.3958 21.5449 17.987 21.544 17.987L22.3103 16.7883C22.3103 16.7883 23.8206 16.0402 24.3909 16.7883C24.4522 16.8753 24.4924 16.9749 24.5086 17.0796C24.5247 17.1842 24.5163 17.291 24.484 17.392C24.4929 17.2468 24.4491 17.1032 24.3605 16.9866Z" fill="#FFDF99"/>
<path d="M21.4528 18.614C21.4532 18.6113 21.4532 18.6087 21.4528 18.6061V18.614Z" fill="#FFDF99"/>
<path d="M22.4946 19.1722C21.8811 19.2386 21.5616 18.9796 21.4607 18.6445C21.5685 18.9806 21.9223 19.2338 22.4946 19.1722Z" fill="#FFDF99"/>
<path d="M22.3103 16.7882C22.5947 16.661 22.8939 16.5685 23.2012 16.5129C23.3537 16.4852 23.5088 16.4742 23.6638 16.4801C23.817 16.4848 23.9674 16.5219 24.1048 16.5889C24.1721 16.6222 24.2333 16.6661 24.2861 16.7189C24.3132 16.7443 24.3385 16.7717 24.3615 16.8007C24.3834 16.8313 24.4027 16.8635 24.4194 16.897C24.4516 16.963 24.4716 17.0341 24.4782 17.1069C24.4839 17.1807 24.4792 17.2549 24.4644 17.3274C24.4334 17.4745 24.3789 17.6159 24.3027 17.7462C24.2273 17.8787 24.1401 18.0044 24.042 18.1217C23.8475 18.3589 23.6222 18.57 23.3717 18.7495C23.2478 18.8396 23.1167 18.9198 22.9797 18.9892C22.8435 19.059 22.698 19.1095 22.5475 19.1394C22.3957 19.164 22.2407 19.164 22.0889 19.1394C21.9374 19.1171 21.7955 19.0534 21.6792 18.9555C21.5643 18.8543 21.4859 18.7191 21.4558 18.5704C21.4245 18.42 21.4282 18.2647 21.4665 18.116C21.4201 18.2643 21.41 18.4213 21.4371 18.5743C21.4627 18.7302 21.539 18.8738 21.6547 18.9834C21.7741 19.0899 21.9221 19.1604 22.081 19.1866C22.238 19.2144 22.3986 19.2166 22.5563 19.1933C22.7139 19.1668 22.8663 19.1165 23.0081 19.0441C23.1498 18.9744 23.2855 18.8936 23.4139 18.8024C23.6698 18.6206 23.9004 18.4066 24.0999 18.166C24.1989 18.0451 24.2874 17.9163 24.3645 17.7809C24.4431 17.6434 24.499 17.4946 24.5301 17.3399C24.545 17.2616 24.5496 17.1816 24.5438 17.1021C24.5352 17.0215 24.5123 16.943 24.4762 16.8701C24.4575 16.8341 24.4358 16.7996 24.4115 16.7671C24.3864 16.7358 24.3589 16.7065 24.3292 16.6794C24.2715 16.6241 24.2054 16.578 24.1332 16.5427C23.9878 16.4755 23.8293 16.4401 23.6687 16.4387C23.5104 16.4358 23.3523 16.4503 23.1973 16.4821C22.8893 16.5458 22.5912 16.6487 22.3103 16.7882Z" fill="#C47618"/>
<path d="M22.771 18.6812C23.1529 18.5193 23.4907 18.2713 23.7569 17.9571C23.8922 17.7982 23.9924 17.6132 24.0509 17.4141C24.0786 17.3085 24.0718 17.197 24.0313 17.0954C24.0069 17.0457 23.9725 17.0013 23.9303 16.9649C23.888 16.9285 23.8387 16.9008 23.7853 16.8836C23.5781 16.8236 23.356 16.8373 23.1581 16.9221C22.9623 16.995 22.7794 17.0977 22.6161 17.2264C22.4522 17.3541 22.3156 17.5125 22.2143 17.6924C22.1167 17.8728 22.0617 18.0726 22.0536 18.2768C22.0771 18.0776 22.1424 17.8854 22.2453 17.7122C22.3481 17.5391 22.4864 17.3887 22.6514 17.2706C22.8131 17.1499 22.9917 17.0526 23.1816 16.9818C23.2757 16.9456 23.3748 16.9235 23.4756 16.9163C23.5733 16.9075 23.6718 16.919 23.7647 16.95C23.8093 16.9634 23.8507 16.9856 23.8862 17.0152C23.9218 17.0448 23.9508 17.0813 23.9715 17.1224C24.0064 17.2101 24.0126 17.3064 23.9891 17.3977C23.9337 17.588 23.8412 17.7659 23.7167 17.9215C23.5932 18.081 23.4493 18.224 23.2884 18.3471C23.128 18.4755 22.9546 18.5875 22.771 18.6812Z" fill="#C47618"/>
<path d="M22.6328 17.2793C22.7242 17.2506 22.8191 17.2338 22.915 17.2292C23.0107 17.2209 23.107 17.2372 23.1943 17.2764C23.2369 17.2976 23.2743 17.3275 23.3041 17.364C23.3328 17.4022 23.3541 17.4453 23.3668 17.4911C23.3897 17.5858 23.3937 17.6839 23.3786 17.78C23.3975 17.6846 23.3975 17.5865 23.3786 17.4911C23.3683 17.4428 23.3483 17.397 23.3198 17.3563C23.2897 17.3167 23.2512 17.2838 23.2071 17.2601C23.116 17.2149 23.015 17.1928 22.9131 17.1955C22.8137 17.1968 22.7149 17.2104 22.619 17.236L22.6328 17.2793Z" fill="#C47618"/>
<path d="M22.3789 17.4873C22.3789 17.4873 22.8592 17.315 22.9209 17.6558C22.9826 17.9966 22.7367 18.2797 22.4946 18.3885C22.2525 18.4973 22.0242 18.3981 22.0585 18.2171C22.0928 18.0361 22.0644 17.9273 22.3789 17.4873Z" fill="#C47618"/>
<path d="M23.3462 16.9C23.407 16.9 23.2129 16.8932 23.261 16.925C23.3639 16.925 23.5452 16.9568 23.5795 17.0983C23.6049 17.2259 23.6012 17.3574 23.5687 17.4835C23.5193 17.6901 23.4182 17.8813 23.2747 18.04C23.1269 18.2238 22.9454 18.3789 22.7396 18.4973C22.6366 18.5561 22.5238 18.5962 22.4064 18.6157C22.3478 18.6258 22.2881 18.6278 22.229 18.6215C22.169 18.6144 22.1103 18.5991 22.0546 18.5762C22.1626 18.6371 22.2873 18.6633 22.4113 18.6513C22.5348 18.637 22.6548 18.6019 22.7661 18.5474C22.9857 18.4339 23.1787 18.2765 23.3325 18.0852C23.4926 17.8975 23.6024 17.6734 23.652 17.4334C23.6815 17.3146 23.6802 17.1905 23.6481 17.0723C23.6276 17.0122 23.5854 16.9615 23.5295 16.9298C23.4738 16.8993 23.409 16.8888 23.3462 16.9Z" fill="#C47618"/>
<path d="M23.0463 12.5085C23.0463 12.5085 22.329 13.791 22.5308 14.9666C22.7327 16.1422 21.1069 17.0261 20.6159 18.375C20.1249 19.7239 16.6507 21.1479 16.2528 19.592C15.7246 19.9415 15.2865 20.1379 14.8641 18.6937C14.9817 19.5669 14.9563 19.7123 14.8641 20.1947C14.772 20.6771 14.8592 21.611 15.804 21.895C16.7173 22.1651 17.7019 22.0742 18.548 21.6418C19.3713 21.2268 20.709 20.7926 21.1069 19.7961C21.5048 18.7996 21.5126 18.4482 21.7704 17.7742C22.0281 17.1002 22.6308 16.2664 23.9548 16.4715C24.2087 16.2847 24.7898 15.0629 24.7898 15.0629L23.0463 12.5085Z" fill="#7F460D"/>
<path d="M22.5308 14.9666C22.7337 16.1422 21.1069 17.0261 20.6159 18.375C20.1249 19.7239 16.6507 21.1479 16.2528 19.592C15.7246 19.9415 15.2865 20.1379 14.8641 18.6937C14.9817 19.567 14.9563 19.7123 14.8641 20.1947C14.772 20.6771 14.9131 21.1123 15.8579 21.3963C16.8026 21.6803 17.3995 21.3328 18.2227 20.9149C19.0459 20.497 20.513 20.1764 20.9109 19.1818C21.3088 18.1872 21.4989 17.987 21.7576 17.3169C22.0163 16.6467 22.4828 16.278 23.4776 15.9641C23.3551 15.1694 23.0509 14.4122 22.5877 13.7496C22.4902 14.1481 22.4709 14.5611 22.5308 14.9666Z" fill="#91520D"/>
<g style="mix-blend-mode:multiply" opacity="0.57">
<g style="mix-blend-mode:multiply" opacity="0.57">
<path d="M16.6654 16.6814H16.6732C16.7487 16.6891 18.5471 16.874 19.1449 17.4671L19.1635 17.4853L19.1517 17.5085C18.9969 17.8108 18.6323 17.9995 18.0972 18.0544C17.5213 17.9629 16.9784 17.7293 16.5194 17.3756C16.3809 17.4622 16.2285 17.5251 16.0686 17.5614C15.9788 17.3606 15.9187 17.1483 15.8902 16.9308V16.9L16.6654 16.6814Z" fill="#E2DBCF"/>
</g>
</g>
<path d="M16.9702 16.329C16.9702 16.329 17.8522 16.1547 18.2717 16.329C18.6911 16.5033 19.7819 16.7575 20.316 16.2058C20.3826 17.0376 18.6088 18.6783 16.5468 17.158C15.5668 17.7357 15.0464 16.7151 15.0004 15.8014C15.3688 16.2173 15.6452 16.1268 16.05 16.1182C16.4547 16.1095 16.9702 16.329 16.9702 16.329Z" fill="#7F460D"/>
<path d="M18.846 16.4947C19.336 16.5861 19.9573 16.5832 20.316 16.2058C20.3836 17.0338 18.6176 18.2961 16.5664 16.8076C17.3181 17.0329 18.1933 16.8037 18.846 16.4947Z" fill="#91520D"/>
<path d="M15.9578 16.1191C16.0018 16.2701 16.0791 16.4098 16.1841 16.5282C16.2891 16.6467 16.4193 16.741 16.5654 16.8046C15.5952 17.3736 15.0464 16.7083 14.9974 15.7985C15.3404 16.1826 15.6011 16.1354 15.9578 16.1191Z" fill="#91520D"/>
<path d="M16.6693 15.0812L15.8598 14.569C16.5841 14.3215 16.6693 15.0812 16.6693 15.0812Z" fill="#FFDF99"/>
<path d="M16.6693 15.0812L15.8598 14.569C16.0293 14.5745 16.1941 14.625 16.3366 14.7152C16.4791 14.8054 16.5941 14.9319 16.6693 15.0812Z" fill="#FFCE83"/>
<path d="M16.6693 15.0812C16.6698 14.9854 16.6498 14.8906 16.6105 14.8029C16.5719 14.711 16.5081 14.6314 16.4263 14.5728C16.3426 14.5149 16.2413 14.4867 16.1391 14.4929H16.1019L16.0656 14.4996L15.9931 14.5141C15.948 14.5304 15.903 14.5478 15.8598 14.568C15.9079 14.5632 15.9578 14.5526 16 14.5487H16.0696H16.1039H16.1382C16.2266 14.5521 16.3122 14.5809 16.3841 14.6315C16.4563 14.6823 16.5162 14.748 16.5596 14.8241C16.6057 14.9056 16.6425 14.9918 16.6693 15.0812Z" fill="#C47618"/>
<path d="M17.5474 13.6716C17.5474 13.6716 17.5033 14.6344 16.7497 14.8337C15.9961 15.0331 15.4551 15.3922 15.852 16.1056C16.2489 16.8191 17.7307 16.6313 17.9639 16.1056C18.1972 15.5799 17.7581 15.4596 17.7581 15.4596" fill="#FFDF99"/>
<path d="M17.5474 13.6716C17.5474 13.6716 17.6513 14.879 16.8977 15.0812C16.144 15.2834 16.2499 15.6695 16.538 16.0334C16.8134 16.432 17.7307 16.6313 17.9639 16.1056C18.1972 15.5799 17.7581 15.4596 17.7581 15.4596" fill="#FFCE83"/>
<path d="M17.5474 13.6716C17.5227 13.9424 17.4298 14.2028 17.277 14.4294C17.2004 14.5396 17.1021 14.6335 16.9878 14.7057C16.868 14.7695 16.7397 14.8165 16.6066 14.8453C16.342 14.9262 16.0705 15.0282 15.8667 15.2304C15.7627 15.3342 15.6989 15.4704 15.6864 15.6156C15.6802 15.7578 15.7098 15.8993 15.7726 16.0276C15.8279 16.1591 15.9167 16.2745 16.0304 16.3627C16.1446 16.448 16.2748 16.5105 16.4135 16.5466C16.5499 16.5833 16.6906 16.6023 16.832 16.6034C16.973 16.6058 17.1137 16.5923 17.2515 16.563C17.388 16.535 17.5199 16.4886 17.6435 16.4253C17.7729 16.365 17.8815 16.269 17.9561 16.149C17.9721 16.118 17.9856 16.0858 17.9963 16.0527C18.0086 16.0214 18.0181 15.9892 18.0247 15.9564C18.0313 15.922 18.0359 15.8873 18.0384 15.8524C18.0388 15.8178 18.0352 15.7832 18.0277 15.7494C18.0127 15.6814 17.9793 15.6186 17.931 15.5678C17.8827 15.5169 17.8213 15.4798 17.7532 15.4605C17.8181 15.4821 17.876 15.5202 17.9209 15.5709C17.9659 15.6217 17.9963 15.6833 18.009 15.7494C18.0231 15.8833 17.9936 16.0181 17.9248 16.1345C17.8508 16.2459 17.7456 16.3338 17.6219 16.3877C17.4993 16.4461 17.369 16.4876 17.2348 16.511C16.9673 16.5639 16.6909 16.5554 16.4273 16.4859C16.2977 16.4511 16.1762 16.392 16.0696 16.3117C15.9656 16.2295 15.8849 16.1224 15.8353 16.0007C15.7762 15.8835 15.7473 15.7539 15.7511 15.6233C15.7618 15.4941 15.8183 15.3728 15.9108 15.2805C16.096 15.0879 16.3606 14.9916 16.6184 14.9011C16.7557 14.8679 16.8876 14.816 17.0104 14.7471C17.1272 14.6685 17.2271 14.5681 17.3044 14.4515C17.4519 14.2162 17.5356 13.9477 17.5474 13.6716Z" fill="#C47618"/>
<path d="M20.7697 15.7985L18.5843 15.8775C18.5843 15.8775 19.3458 14.9965 20.7697 15.7985Z" fill="#FFDF99"/>
<path d="M20.7697 15.7985L18.5843 15.8774C18.5843 15.8774 19.4928 15.4701 20.7697 15.7985Z" fill="#FFCE83"/>
<path d="M18.5843 15.8774C18.7303 15.7498 18.9005 15.6516 19.0851 15.5885C19.2673 15.5272 19.4589 15.4969 19.6515 15.499L19.7966 15.5057C19.8446 15.5057 19.8946 15.5202 19.9397 15.526C20.0353 15.5411 20.1299 15.562 20.2229 15.5885C20.3209 15.6136 20.4071 15.6511 20.4993 15.6848C20.5914 15.7185 20.6776 15.7647 20.7697 15.8013C20.6864 15.7503 20.6002 15.705 20.5149 15.653C20.4297 15.6011 20.3346 15.5712 20.2405 15.5385C20.1449 15.5048 20.0465 15.479 19.9465 15.4614C19.8975 15.4537 19.8485 15.4412 19.7985 15.4383L19.6476 15.4297C19.446 15.4273 19.246 15.4649 19.0596 15.5404C19.0371 15.55 19.0135 15.5587 18.991 15.5693L18.9244 15.6039C18.8803 15.6261 18.8391 15.655 18.797 15.681C18.7179 15.7374 18.6465 15.8034 18.5843 15.8774Z" fill="#C47618"/>
<path d="M24.1881 16.1152C24.1881 16.1152 23.8441 13.6456 22.0546 12.2582C20.265 10.8707 17.6641 11.5024 17.3407 11.7171C17.6974 11.1182 18.4804 10.1958 18.8303 9.14634C19.1802 8.09687 19.2488 7.82632 19.2488 7.82632C19.2488 7.82632 23.6118 7.64531 26.4843 11.8701C26.8079 12.3515 26.9785 12.9166 26.9743 13.4935C26.9743 13.4935 24.9956 14.7422 24.1881 16.1152Z" fill="#FFFEFD"/>
<path d="M18.4393 10.0129C18.5576 9.80076 18.662 9.58143 18.7519 9.35622C22.6906 8.81897 23.3982 10.5925 24.24 11.6805C24.8633 12.4873 25.0897 14.0432 25.1691 14.9223C24.7909 15.2762 24.4614 15.6773 24.189 16.1152C24.0697 15.4291 23.8515 14.7633 23.5412 14.1376C23.1933 13.0785 22.6112 11.8153 21.6665 10.9506C20.3542 9.74905 18.944 9.9031 18.4393 10.0129Z" fill="#FFF4E1"/>
<path d="M24.1508 16.12C24.1508 16.095 23.7892 13.6495 22.032 12.2813C20.2356 10.8833 17.667 11.539 17.3612 11.7421L17.226 11.8317L17.3083 11.694C17.4063 11.5255 17.5396 11.3377 17.6905 11.1163C18.0708 10.5646 18.5451 9.87907 18.795 9.12711C19.14 8.09305 19.2125 7.8119 19.2135 7.80901L19.2203 7.78302H19.2478C19.2585 7.78302 20.3621 7.74354 21.7958 8.22206C23.1247 8.66399 25.0201 9.64992 26.5097 11.8394C26.8368 12.3277 27.0097 12.9002 27.0066 13.4848V13.5098L26.9909 13.5204C26.9713 13.533 25.0103 14.7885 24.2155 16.1383L24.1616 16.2288L24.1508 16.12ZM26.4529 11.8836C24.976 9.7125 23.0973 8.73428 21.7801 8.29524C20.9755 8.01723 20.1301 7.86992 19.2772 7.85908C19.2527 7.94959 19.1537 8.28946 18.8656 9.15503C18.6117 9.91565 18.1345 10.607 17.7513 11.1615C17.6317 11.3339 17.5259 11.4879 17.4377 11.6275C18.0453 11.383 20.3973 10.9179 22.0781 12.2264C23.6549 13.455 24.1195 15.5385 24.2077 16.0141C24.9995 14.748 26.7557 13.5888 26.939 13.4665C26.9365 12.9032 26.7677 12.3526 26.4529 11.8817V11.8836Z" fill="#C47618"/>
<path d="M18.6813 9.5277C18.6813 9.5277 17.4622 9.13583 17.5053 7.71279C17.5484 6.28975 19.6094 5.51854 20.9599 6.43417C22.3103 7.34981 23.4148 6.21754 25.6738 6.79619C27.9327 7.37484 27.8828 9.3284 27.8828 10.7274C27.8828 12.1263 29.3812 14.1935 28.4708 15.4615C27.5603 16.7296 25.1093 16.5331 24.5438 15.138C23.9783 13.7429 23.6726 9.99178 18.6813 9.5277Z" fill="#FFFEFD"/>
<path d="M18.6813 9.52761C18.6813 9.52761 17.4651 9.13671 17.5053 7.71655C17.5053 7.7801 17.52 8.67167 18.355 9.09627C18.2354 8.9037 18.0717 8.49258 18.3256 8.16908C18.2472 8.58694 18.4834 9.02694 18.7225 9.1627C18.9616 9.29846 19.0733 9.13189 19.1037 9.00576C19.1341 8.87963 19.1184 8.54939 19.4075 8.25573C19.2203 8.6293 19.2625 9.1627 19.4252 9.31483C19.5878 9.46695 20.0367 9.50739 20.1739 9.19351C20.2744 8.94503 20.4202 8.71663 20.6041 8.51954C20.3748 8.93644 20.363 9.52183 20.6943 9.71151C21.0255 9.90118 22.1261 10.087 22.8993 10.9738C23.6726 11.8605 24.1792 13.4703 24.2616 14.2656C23.7461 12.5701 22.8297 9.9137 18.6813 9.52761Z" fill="#FFF4E1"/>
<path d="M24.5105 15.0504C25.0172 15.3787 25.908 14.5343 25.563 12.8263C26.6244 15.1322 27.5397 13.4319 27.2634 12.3824C26.987 11.3329 27.3918 10.3932 27.3555 8.81132C27.3581 8.40609 27.283 8.004 27.134 7.6261C27.9063 8.49263 27.8827 9.74429 27.8827 10.7302C27.8827 12.1292 29.3812 14.1964 28.4708 15.4644C27.6299 16.6419 25.467 16.5562 24.7006 15.4307C24.632 15.3046 24.5683 15.1775 24.5046 15.0504H24.5105Z" fill="#FFF4E1"/>
<path d="M21.2549 6.62097C21.2549 6.62097 22.4309 7.40856 23.5991 7.81968C24.7673 8.2308 25.8178 8.39063 26.0109 10.2267C26.0668 9.14162 26.0178 8.78249 25.2935 8.14704C24.5693 7.51158 22.1633 7.15533 21.2549 6.62097Z" fill="#FFF4E1"/>
<path d="M26.2853 16.3271C25.4337 16.2308 24.7702 15.7898 24.5115 15.1515C24.4282 14.9454 24.3517 14.6941 24.2635 14.4024C23.7588 12.7396 22.914 9.95804 18.6774 9.56329H18.6696C18.6568 9.56329 17.4259 9.14735 17.4681 7.71372C17.4867 7.10907 17.8601 6.58049 18.4941 6.2695C18.884 6.07413 19.3198 5.98418 19.7567 6.00889C20.1936 6.03359 20.616 6.17205 20.9805 6.41007C21.6812 6.8857 22.3035 6.80193 23.0914 6.69891C23.8019 6.60263 24.6085 6.4948 25.6826 6.77016C27.922 7.34785 27.921 9.25422 27.92 10.6484V10.736C27.92 11.2521 28.1248 11.8548 28.3404 12.4922C28.706 13.5676 29.0823 14.6787 28.5021 15.4913C28.1101 16.0392 27.4123 16.3579 26.6273 16.3579C26.5128 16.3538 26.3987 16.3435 26.2853 16.3271ZM23.1012 6.7615C22.329 6.86548 21.6625 6.95406 20.9393 6.46399C20.5856 6.23333 20.1759 6.0992 19.7521 6.07534C19.3283 6.05149 18.9056 6.13876 18.5275 6.32823C17.9179 6.63152 17.5592 7.13603 17.5416 7.71372C17.5014 9.05396 18.6196 9.46604 18.6892 9.49204C22.9709 9.89257 23.8235 12.7021 24.3341 14.3812C24.4213 14.6701 24.4978 14.9214 24.5801 15.1245C24.829 15.7378 25.469 16.1605 26.2932 16.2549C27.1752 16.3559 28.017 16.0363 28.4423 15.4403C29.001 14.6585 28.6295 13.5647 28.2708 12.5066C28.0523 11.8635 27.8465 11.255 27.8465 10.7273V10.6397C27.8465 9.26867 27.8465 7.39118 25.664 6.83082C25.223 6.71615 24.7687 6.65822 24.3125 6.65847C23.9068 6.66464 23.502 6.69907 23.1012 6.7615Z" fill="#C47618"/>
<path d="M20.8874 6.43027C21.3493 6.73498 21.8283 7.01399 22.3221 7.266C22.8133 7.52348 23.3238 7.74395 23.849 7.92552C23.9803 7.9727 24.1146 8.00929 24.2469 8.04876C24.3145 8.06706 24.3792 8.09017 24.4429 8.11135L24.5409 8.14312C24.5744 8.15284 24.6072 8.16507 24.6389 8.17971C24.8928 8.28386 25.1253 8.43264 25.3249 8.61875C25.5267 8.80408 25.6895 9.02652 25.8041 9.27347C25.9205 9.52156 25.9895 9.78849 26.008 10.061C25.9922 9.78803 25.9258 9.52014 25.812 9.27058C25.7009 9.01797 25.5408 8.78905 25.3406 8.59661C25.1387 8.40675 24.9036 8.25412 24.6467 8.14601C24.6152 8.1308 24.5824 8.11824 24.5487 8.10846L24.4507 8.07476C24.3841 8.05262 24.3184 8.02855 24.2547 8.00929C24.1224 7.96885 23.9891 7.9313 23.8627 7.8822C23.3414 7.69544 22.8352 7.47014 22.3486 7.20823C21.8602 6.95158 21.3868 6.6684 20.9305 6.35999L20.8874 6.43027Z" fill="#C47618"/>
<path d="M25.7061 16.1604C25.7726 15.9959 25.825 15.8261 25.8629 15.653C25.8845 15.5673 25.8972 15.4797 25.9149 15.394C25.9325 15.3084 25.9413 15.2198 25.9482 15.1322C25.9836 14.7817 25.9804 14.4286 25.9384 14.0788C25.8933 13.7303 25.8129 13.3872 25.6983 13.0544L25.6081 12.807C25.5777 12.7251 25.5376 12.6462 25.5033 12.5663C25.4356 12.4035 25.3465 12.2504 25.2671 12.0935C25.0929 11.7879 24.8964 11.495 24.6791 11.2173C24.4591 10.9416 24.2187 10.6822 23.9597 10.4413C23.6999 10.2018 23.4188 9.9856 23.1198 9.79527C22.8231 9.60183 22.501 9.44894 22.1624 9.34082C22.4997 9.45189 22.8201 9.60735 23.1149 9.80297C23.4115 9.99548 23.6899 10.2136 23.947 10.4548C24.2031 10.6968 24.4406 10.9571 24.6575 11.2337C24.8708 11.5121 25.0634 11.8052 25.2338 12.1108C25.3122 12.2678 25.3984 12.4199 25.4641 12.5826C25.4984 12.6625 25.5366 12.7415 25.5621 12.8233L25.6503 13.0688C25.7617 13.3999 25.8388 13.7412 25.8806 14.0875C25.9183 14.4331 25.9183 14.7817 25.8806 15.1273C25.8727 15.213 25.8561 15.2987 25.8443 15.3844C25.8325 15.4701 25.8139 15.5558 25.7914 15.6396C25.7535 15.808 25.7011 15.9729 25.6346 16.1325L25.7061 16.1604Z" fill="#C47618"/>
<path d="M19.3056 9.58157C19.2431 9.47895 19.1959 9.36806 19.1654 9.25229C19.1348 9.13478 19.1235 9.0132 19.1321 8.89219C19.1399 8.77049 19.1708 8.65129 19.2233 8.54077C19.2477 8.48451 19.2776 8.43067 19.3125 8.37998C19.3458 8.32798 19.3879 8.2837 19.4252 8.23267C19.386 8.27984 19.3409 8.32895 19.3046 8.3742C19.2677 8.4245 19.2349 8.47763 19.2066 8.53306C19.1473 8.64396 19.1098 8.7648 19.0959 8.88931C19.0805 9.01416 19.0858 9.14064 19.1115 9.26384C19.1378 9.38857 19.1824 9.50889 19.2439 9.62105L19.3056 9.58157Z" fill="#C47618"/>
<path d="M18.795 9.51709C18.671 9.41777 18.5566 9.30755 18.453 9.1878C18.3676 9.08199 18.2995 8.96375 18.2511 8.83734C18.2006 8.71133 18.186 8.57419 18.2089 8.44066C18.2363 8.30634 18.3003 8.18186 18.3942 8.08057C18.2948 8.17912 18.2244 8.30219 18.1903 8.43681C18.1609 8.57392 18.1697 8.71628 18.2158 8.84889C18.2613 8.98163 18.3274 9.10667 18.4118 9.21958C18.4936 9.33432 18.5872 9.44047 18.6911 9.53634L18.795 9.51709Z" fill="#C47618"/>
<path d="M20.1249 9.75969C20.1123 9.64835 20.1163 9.53581 20.1367 9.42559C20.157 9.31295 20.1898 9.20285 20.2347 9.09727C20.279 8.99078 20.3328 8.88832 20.3954 8.7911C20.4258 8.74199 20.463 8.69482 20.4934 8.64956C20.5238 8.60431 20.5679 8.56002 20.6051 8.51477C20.5659 8.55713 20.5247 8.5995 20.4865 8.64379C20.4483 8.68808 20.4111 8.73333 20.3787 8.78147C20.3096 8.87645 20.2493 8.97731 20.1984 9.08283C20.1484 9.18937 20.1096 9.30068 20.0828 9.415C20.0551 9.53167 20.0452 9.65172 20.0534 9.77124L20.1249 9.75969Z" fill="#C47618"/>
<path d="M15.8383 23.5444C15.756 23.4479 15.6998 23.3327 15.6746 23.2093C15.6494 23.0903 15.6431 22.9682 15.656 22.8473C15.6682 22.7278 15.6925 22.6097 15.7285 22.4949L15.7903 22.3264L15.8628 22.1627L15.7991 22.3293L15.7462 22.4997C15.7164 22.6141 15.6987 22.7312 15.6932 22.8492C15.6862 22.9659 15.6981 23.0829 15.7285 23.1958C15.7564 23.3057 15.8113 23.4072 15.8883 23.4914L15.8383 23.5444Z" fill="#91520D"/>
</g>
</svg>
