<svg width="20" height="20" viewBox="0 0 20 20" fill="none" xmlns="http://www.w3.org/2000/svg">
<path d="M16.668 10.1673V11.584C16.668 14.209 15.168 15.334 12.918 15.334H5.41797C3.16797 15.334 1.66797 14.209 1.66797 11.584V7.08398C1.66797 4.45898 3.16797 3.33398 5.41797 3.33398H7.66797C7.55963 3.65065 7.5013 4.00065 7.5013 4.37565V7.62567C7.5013 8.434 7.76797 9.11733 8.24297 9.59233C8.71797 10.0673 9.4013 10.334 10.2096 10.334V11.4923C10.2096 11.9173 10.693 12.1756 11.0513 11.9423L13.4596 10.334H15.6263C16.0013 10.334 16.3513 10.2756 16.668 10.1673Z" stroke="white" stroke-width="1.25" stroke-miterlimit="10" stroke-linecap="round" stroke-linejoin="round"/>
<path d="M18.3333 4.37435V7.62437C18.3333 8.86604 17.7 9.79931 16.6667 10.166C16.35 10.2743 16 10.3327 15.625 10.3327H13.4583L11.05 11.941C10.6917 12.1743 10.2083 11.916 10.2083 11.491V10.3327C9.4 10.3327 8.71667 10.066 8.24167 9.59102C7.76667 9.11602 7.5 8.4327 7.5 7.62437V4.37435C7.5 3.99935 7.55833 3.64935 7.66667 3.33268C8.03333 2.29935 8.96667 1.66602 10.2083 1.66602H15.625C17.25 1.66602 18.3333 2.74935 18.3333 4.37435Z" stroke="white" stroke-width="1.25" stroke-miterlimit="10" stroke-linecap="round" stroke-linejoin="round"/>
<path d="M6.16797 18.334H12.168" stroke="white" stroke-width="1.25" stroke-miterlimit="10" stroke-linecap="round" stroke-linejoin="round"/>
<path d="M9.16797 15.334V18.334" stroke="white" stroke-width="1.25" stroke-miterlimit="10" stroke-linecap="round" stroke-linejoin="round"/>
<path d="M15.4129 6.04167H15.4204" stroke="white" stroke-width="1.25" stroke-linecap="round" stroke-linejoin="round"/>
<path d="M13.0809 6.04167H13.0884" stroke="white" stroke-width="1.25" stroke-linecap="round" stroke-linejoin="round"/>
<path d="M10.7449 6.04167H10.7524" stroke="white" stroke-width="1.25" stroke-linecap="round" stroke-linejoin="round"/>
</svg>
