<svg width="24" height="24" viewBox="0 0 24 24" fill="none" xmlns="http://www.w3.org/2000/svg">
<circle cx="12" cy="12" r="12" fill="#96DB82"/>
<path d="M9.11486 9.78282C9.11766 9.73947 9.1031 9.69674 9.07442 9.66412L7.77649 8.1875C7.74781 8.15487 7.70733 8.13497 7.66394 8.13217C7.62038 8.12939 7.57787 8.14393 7.54524 8.17261C6.94884 8.69685 6.4538 9.31511 6.07379 10.0102C6.05297 10.0483 6.0481 10.0932 6.06032 10.1349C6.07254 10.1765 6.10082 10.2117 6.13896 10.2325L7.86406 11.1755C7.88901 11.1891 7.91594 11.1956 7.94252 11.1956C8.00047 11.1956 8.05665 11.1647 8.08641 11.1103C8.33757 10.6509 8.66499 10.2421 9.05951 9.89532C9.0922 9.86668 9.1121 9.82621 9.11486 9.78282Z" fill="white"/>
<path d="M9.69424 9.23616C9.72367 9.29164 9.78043 9.32325 9.83913 9.32325C9.86502 9.32325 9.89129 9.31709 9.91574 9.30412C10.3781 9.0589 10.8756 8.89888 11.3942 8.82852C11.4839 8.81636 11.5467 8.73382 11.5346 8.64415L11.2703 6.69602C11.2582 6.60638 11.1754 6.54362 11.0859 6.55568C10.2983 6.66251 9.54297 6.90547 8.841 7.2778C8.76108 7.32019 8.73066 7.41932 8.77301 7.49929L9.69424 9.23616Z" fill="white"/>
<path d="M7.58348 11.8726L5.68606 11.3577C5.64412 11.3464 5.59939 11.3521 5.56169 11.3737C5.52399 11.3954 5.49644 11.431 5.48504 11.473C5.3291 12.0479 5.25 12.6438 5.25 13.2441C5.25 13.3468 5.25245 13.4499 5.25754 13.5592C5.26162 13.647 5.33404 13.7155 5.42109 13.7155C5.42365 13.7155 5.42625 13.7154 5.42881 13.7153L7.39271 13.6245C7.4361 13.6226 7.47698 13.6034 7.5062 13.5713C7.53548 13.5392 7.55081 13.4967 7.54878 13.4533C7.54536 13.3796 7.5437 13.3112 7.5437 13.2441C7.5437 12.8466 7.59587 12.4528 7.69875 12.0736C7.72238 11.9862 7.67078 11.8963 7.58348 11.8726Z" fill="white"/>
<path d="M14.9277 7.1607C14.2128 6.81603 13.4489 6.60244 12.6573 6.52572C12.6138 6.52135 12.5709 6.53472 12.5373 6.56231C12.5038 6.58993 12.4826 6.62972 12.4784 6.673L12.2889 8.62987C12.2801 8.71991 12.3461 8.80001 12.4361 8.80872C12.9579 8.85926 13.4611 8.99995 13.9317 9.22682C13.9541 9.23763 13.9785 9.2431 14.0029 9.2431C14.0211 9.2431 14.0394 9.24003 14.0569 9.23392C14.0979 9.21961 14.1316 9.18954 14.1504 9.15041L15.0041 7.37939C15.0434 7.2979 15.0092 7.19996 14.9277 7.1607Z" fill="white"/>
<path d="M17.8157 9.90886C17.8263 9.8667 17.8198 9.82212 17.7975 9.7848C17.3909 9.10462 16.8725 8.50578 16.2567 8.00498C16.223 7.97758 16.1799 7.96475 16.1365 7.96909C16.0933 7.97357 16.0536 7.99499 16.0263 8.02869L14.7857 9.55391C14.7583 9.58764 14.7454 9.63085 14.7499 9.67407C14.7543 9.71728 14.7758 9.75696 14.8095 9.7844C15.2169 10.1157 15.5598 10.5118 15.8287 10.9616C15.8594 11.013 15.9138 11.0415 15.9695 11.0415C15.9981 11.0415 16.0271 11.034 16.0534 11.0182L17.7409 10.0095C17.7782 9.98721 17.8051 9.95101 17.8157 9.90886Z" fill="white"/>
<path d="M18.4424 11.2238C18.4153 11.1374 18.3233 11.0893 18.2371 11.1164L16.361 11.7043C16.2746 11.7313 16.2266 11.8232 16.2536 11.9095C16.3883 12.3394 16.4565 12.7883 16.4565 13.244C16.4565 13.311 16.4549 13.3795 16.4515 13.4532C16.4494 13.4966 16.4648 13.539 16.494 13.5711C16.5233 13.6032 16.5642 13.6224 16.6075 13.6244L18.5715 13.7151C18.5741 13.7152 18.5766 13.7153 18.5792 13.7153C18.6662 13.7153 18.7386 13.6468 18.7427 13.559C18.7478 13.4497 18.7503 13.3467 18.7503 13.244C18.7502 12.5554 18.6467 11.8757 18.4424 11.2238Z" fill="white"/>
<path d="M11.9943 12.896C11.966 12.896 11.9379 12.8969 11.9099 12.8984L9.24855 11.3281C9.18341 11.2896 9.10072 11.2993 9.04614 11.3516C8.99153 11.4039 8.97842 11.4862 9.01403 11.5528L10.4658 14.2739C10.4605 14.3263 10.4576 14.3792 10.4576 14.4326C10.4576 14.8431 10.6175 15.2289 10.9077 15.5191C11.1979 15.8094 11.5838 15.9692 11.9943 15.9692C12.4048 15.9692 12.7906 15.8094 13.0809 15.5191C13.3711 15.2289 13.5309 14.8431 13.5309 14.4326C13.5309 14.0221 13.3711 13.6362 13.0809 13.346C12.7906 13.0558 12.4047 12.896 11.9943 12.896Z" fill="white"/>
</svg>
