<svg width="18" height="18" viewBox="0 0 18 18" fill="none" xmlns="http://www.w3.org/2000/svg">
<path d="M13.0727 1.65833C12.5023 1.47944 11.9035 1.41141 11.3072 1.45381C9.58397 1.57652 5.67151 2.23756 2.41704 5.58887C-1.89486 10.0291 0.877033 15.5473 0.877033 15.5473C0.877033 15.5473 3.46938 20.1416 12.5551 15.1623C12.5551 15.1623 19.254 11.0044 17.7911 5.7429C16.9952 3.20714 14.4373 2.08629 13.0727 1.65833Z" fill="#C9E9EF"/>
<path d="M4.64928 15.81C4.65771 15.854 4.665 15.8983 4.672 15.9425C4.68955 16.0532 4.79371 16.3612 5.41009 16.3393C6.16037 16.3127 9.54 15.485 10.9335 14.9527C12.327 14.4205 14.2917 14.0293 14.2917 14.0293C14.2917 14.0293 14.7909 13.8477 15.0396 13.6249C15.0968 13.5736 15.1239 13.497 15.111 13.4212C15.0148 12.8552 14.4496 10.2347 12.1843 9.83151L11.0488 9.85729L5.01498 13.7778C5.01498 13.7778 4.3969 14.4904 4.64928 15.81Z" fill="#A8D5DD"/>
<path d="M3.95862 13.9176L4.12411 14.2178C4.1835 14.3256 4.29893 14.391 4.42189 14.3844C4.63701 14.373 4.997 14.3318 5.37781 14.1935C5.98445 13.9733 7.64924 13.5765 8.63346 13.4675C9.61767 13.3586 13.2469 12.0889 13.6915 11.6961C13.7894 11.5889 14.5458 11.272 14.5458 11.272C14.5458 11.272 14.9129 11.1525 14.8972 10.8064C14.887 10.5814 14.8432 10.3362 14.8139 10.1921C14.7944 10.0962 14.7807 9.99953 14.7719 9.90203C14.7173 9.2983 14.5229 7.22534 14.4031 7.00064C14.4031 7.00064 14.3973 8.2855 14.4427 8.43762C14.4882 8.58969 14.5167 9.78312 14.5167 9.78312C14.5167 9.78312 14.5633 10.8087 14.0959 10.9841C13.6286 11.1594 13.1158 11.4654 13.1158 11.4654C13.1158 11.4654 12.7155 11.7019 12.2965 11.8109C11.8775 11.9199 10.5314 12.2637 9.70163 12.6611C9.70163 12.6611 9.26751 12.848 8.59257 12.929C8.37387 12.9553 8.15806 13.0018 7.94983 13.0737L7.1761 13.341C7.1761 13.341 5.4198 13.7035 5.16747 13.8049C4.91513 13.9063 3.95862 13.9176 3.95862 13.9176Z" fill="#7D5C49"/>
<path d="M3.28909 12.3483C3.28909 12.3483 3.37652 10.0321 4.514 8.20755C5.31286 6.97448 5.74704 5.50512 6.1705 4.87811C6.25285 4.75627 6.38685 4.68003 6.53368 4.67109C6.89591 4.64905 7.65003 4.59285 7.98068 4.49162C8.42413 4.35583 9.99222 4.0919 11.7148 4.96425C11.7148 4.96425 14.4529 5.85472 14.3745 6.67401C14.2962 7.49331 3.28909 12.3483 3.28909 12.3483Z" fill="#EE3A37"/>
<path d="M4.04521 14.1059L3.67309 13.0345C3.67309 13.0345 3.90075 13.0654 3.9136 12.9235C3.9264 12.7816 3.61788 11.7876 5.26612 11.732C5.77249 11.709 6.322 10.9389 6.322 10.9389L10.0952 9.16167L11.0406 8.34152L14.1078 6.71842L14.3756 6.67411L14.4032 7.00048L14.6746 10.8998L9.84157 12.9114L4.04521 14.1059Z" fill="#F7F191"/>
<path d="M14.3279 6.44478C14.3611 6.49422 14.3886 6.7588 14.4071 6.99625C14.4244 7.21944 14.216 7.39316 13.9998 7.33488C13.8884 7.30481 13.7782 7.25983 13.7009 7.19242C13.4751 6.9955 13.0108 7.69588 13.0108 7.69588C13.0108 7.69588 12.898 7.97078 12.0738 8.06596C12.0329 8.06781 11.9969 8.074 11.9651 8.08336C11.8152 8.12728 11.7244 8.27888 11.7442 8.43391C11.7607 8.56223 11.7713 8.7907 11.6459 8.82726C11.5288 8.86148 11.4079 8.76561 11.3402 8.69764C11.2916 8.64896 11.2297 8.61616 11.1618 8.60551C11.0484 8.58782 10.8792 8.58909 10.7506 8.70956C10.7372 8.7221 10.7229 8.73439 10.7078 8.74472C9.9849 9.23853 10.1559 9.91998 8.52894 10.3435C7.37136 10.5952 7.41842 10.7824 7.41842 10.7824C7.41842 10.7824 7.25861 11.3646 6.85245 11.1905C6.44629 11.0162 6.11324 11.3204 6.11324 11.3204C6.11324 11.3204 5.77991 11.7594 5.01655 11.7812C4.46034 11.7972 4.18009 12.1075 4.06899 12.2747C4.03112 12.3316 4.01312 12.3987 4.01586 12.467C4.02406 12.6672 4.00467 13.135 3.6352 13.0452C3.16758 12.9316 3.18769 12.2433 3.18769 12.2433C3.18769 12.2433 3.14982 11.2688 3.95543 11.1872C4.16581 11.1519 4.83013 11.2117 5.72603 10.4323C6.53658 9.72719 7.8284 9.4865 8.07166 9.46639C8.10015 9.46402 8.1274 9.45816 8.15424 9.44843C8.34391 9.37969 9.14525 9.1699 9.8185 8.47357C10.5915 7.67409 11.3651 7.31061 12.1136 7.10394C13.1856 6.80794 13.7749 6.13562 13.9276 6.17365C14.2571 6.21646 14.3223 6.43825 14.3279 6.44478Z" fill="#EF503A"/>
<path d="M3.96519 11.6669C4.08699 11.6731 4.29243 11.6611 4.49798 11.5472C4.58177 11.5007 4.66817 11.4588 4.75989 11.431C4.86994 11.3974 5.02552 11.3582 5.20758 11.3355C6.56984 10.7824 6.4199 10.2399 8.00595 9.94623C9.59194 9.65253 11.2598 7.97743 11.2598 7.97743C11.2598 7.97743 11.6631 7.52548 12.4266 7.36556C13.7025 7.0314 13.9698 6.34159 13.9698 6.34159C13.9698 6.34159 14.0188 6.14668 13.7102 6.35338C13.4017 6.56014 12.9905 7.00722 11.8721 7.24622C11.185 7.39308 9.30947 8.94825 9.30947 8.94825C9.30947 8.94825 8.72664 9.47987 7.43777 9.74076C6.14896 10.0016 4.88064 11.1384 4.88064 11.1384C4.88064 11.1384 4.49037 11.4548 4.01618 11.4089C3.75539 11.3837 3.72504 11.5008 3.75712 11.5748C3.79135 11.6538 3.8792 11.6625 3.96519 11.6669Z" fill="#FFFEFF"/>
<path d="M8.62898 3.33966C8.62898 3.33966 7.81763 3.93571 8.00178 4.40254C8.18586 4.86939 9.86752 5.32057 11.0103 4.15799C11.4847 3.6416 11.0895 2.93802 11.0895 2.93802C11.0895 2.93802 10.5364 1.96341 9.52451 2.38505C9.2585 2.51254 8.96273 2.9516 8.82509 3.17465C8.78462 3.24017 8.72774 3.29591 8.65624 3.32462C8.6462 3.32867 8.6368 3.3336 8.62898 3.33966Z" fill="#DA473B"/>
<path d="M11.2587 2.63614C11.2299 2.63256 11.2012 2.63196 11.1724 2.63472C11.093 2.64236 10.9446 2.66584 10.8943 2.7369C10.8242 2.83571 10.7211 2.83154 10.6002 2.77764C10.4792 2.72375 10.4342 2.58993 10.4901 2.34952C10.5303 2.17645 10.2856 1.89091 10.1403 1.66118C10.0918 1.58456 10.126 1.48298 10.211 1.45143C10.2826 1.42489 10.3622 1.45949 10.3919 1.52981C10.4688 1.71152 10.5839 1.9326 10.6696 1.97081C10.7905 2.02471 10.8874 2.02562 10.9727 1.91426C11.0581 1.80295 11.2481 1.59188 11.3992 1.67786C11.5504 1.76387 11.4037 2.03955 11.4037 2.03955C11.4037 2.03955 11.2198 2.15522 11.2435 2.26541C11.2672 2.37559 11.4564 2.37417 11.4564 2.37417C11.4564 2.37417 11.7205 2.36008 11.7086 2.50402C11.6944 2.67598 11.3675 2.64973 11.2587 2.63614Z" fill="#648B90"/>
<path d="M10.2117 2.91192C10.2117 2.91192 10.3155 2.81049 10.3899 2.87605C10.4644 2.94155 10.3603 3.03001 10.306 3.03923C10.2517 3.04846 10.1761 3.08553 10.131 3.05042C10.0859 3.01525 10.136 2.96071 10.2117 2.91192Z" fill="#FFFEFF"/>
<path d="M9.65174 4.06736C9.65174 4.06736 9.74206 3.97904 9.80692 4.03612C9.87174 4.09314 9.78111 4.17017 9.73382 4.17821C9.68659 4.18628 9.62072 4.21857 9.58145 4.18794C9.54218 4.15732 9.58582 4.10983 9.65174 4.06736Z" fill="#FFFEFF"/>
<path d="M9.15697 4.14324C9.15697 4.14324 9.24751 4.02701 9.33139 4.08278C9.41527 4.13855 9.32259 4.2418 9.26921 4.25851C9.21583 4.27516 9.14482 4.32281 9.09466 4.29358C9.04449 4.2644 9.08749 4.20268 9.15697 4.14324Z" fill="#FFFEFF"/>
<path d="M9.95298 3.49402C9.95298 3.49402 10.0567 3.39259 10.1312 3.45814C10.2057 3.52365 10.1016 3.61211 10.0473 3.62133C9.99298 3.63056 9.91738 3.66764 9.87228 3.63252C9.82718 3.59735 9.87729 3.54281 9.95298 3.49402Z" fill="#FFFEFF"/>
<path d="M9.64983 2.91442C9.64983 2.91442 9.66645 2.81709 9.73371 2.82344C9.80091 2.82977 9.77889 2.92013 9.75265 2.94691C9.72646 2.9737 9.69959 3.02436 9.6607 3.023C9.62183 3.02165 9.62765 2.97158 9.64983 2.91442Z" fill="#FFFEFF"/>
<path d="M10.2993 3.58367C10.2993 3.58367 10.3672 3.49969 10.4279 3.54169C10.4887 3.58369 10.4193 3.65811 10.38 3.6696C10.3407 3.68113 10.288 3.71507 10.2516 3.69302C10.2152 3.67092 10.2476 3.62628 10.2993 3.58367Z" fill="#FFFEFF"/>
</svg>
