<svg width="14" height="14" viewBox="0 0 14 14" fill="none" xmlns="http://www.w3.org/2000/svg">
<path d="M4.04411 3.15865C4.49516 3.6097 4.57297 4.26465 4.37233 4.46529C4.1717 4.66592 3.55408 4.55079 3.10302 4.09973C2.65196 3.64867 2.51968 3.0497 2.73746 2.83042C2.95513 2.61113 3.58674 2.70759 4.04411 3.15865Z" fill="#7474A9"/>
<path d="M6.10638 3.87389C6.14989 4.54586 5.80463 5.16817 5.53858 5.22253C5.27262 5.277 4.90391 4.79783 4.86041 4.12433C4.81689 3.45083 5.08903 2.84252 5.37841 2.78502C5.66769 2.7274 6.06744 3.20027 6.10638 3.87389Z" fill="#7474A9"/>
<path d="M7.44625 5.21469C7.48977 5.88666 7.146 6.50897 6.88006 6.56333C6.61411 6.6178 6.24389 6.13864 6.20025 5.46514C6.15674 4.79163 6.42888 4.18332 6.71825 4.12582C7.00764 4.06832 7.4012 4.54119 7.44623 5.21469H7.44625Z" fill="#7474A9"/>
<path d="M8.79779 6.56552C8.84292 7.23902 8.49753 7.8613 8.23159 7.91416C7.96564 7.967 7.59692 7.48947 7.55178 6.81596C7.50664 6.14246 7.78041 5.53568 8.06978 5.47665C8.35917 5.41752 8.75273 5.89202 8.79776 6.56552H8.79779Z" fill="#7474A9"/>
<path d="M10.2409 8.0082C10.2844 8.68017 9.94068 9.30398 9.67473 9.35684C9.40879 9.4097 9.04007 8.93214 8.99493 8.25864C8.94979 7.58514 9.22355 6.97683 9.51293 6.91933C9.77888 6.86486 10.1958 7.33458 10.2409 8.0082H10.2409Z" fill="#7474A9"/>
<path d="M3.80246 6.17535C4.47596 6.22049 5.09824 5.8751 5.15271 5.60915C5.20718 5.34309 4.72649 4.97754 4.05451 4.92934C3.38243 4.88106 2.7727 5.15797 2.71509 5.4442C2.66073 5.7133 3.13045 6.13018 3.80246 6.17532V6.17535Z" fill="#7474A9"/>
<path d="M5.14276 7.51567C5.81626 7.56081 6.43854 7.21542 6.49301 6.94947C6.54737 6.68341 6.06668 6.31469 5.3947 6.26955C4.72273 6.22441 4.11289 6.49818 4.05539 6.78756C3.99788 7.07695 4.47075 7.46584 5.14276 7.51564V7.51567Z" fill="#7474A9"/>
<path d="M6.49627 8.86655C7.16825 8.91169 7.79206 8.56629 7.84492 8.30035C7.89787 8.03429 7.42033 7.66721 6.74672 7.62207C6.07322 7.57693 5.46491 7.85232 5.40741 8.14007C5.34991 8.42782 5.82277 8.82455 6.49627 8.86652V8.86655Z" fill="#7474A9"/>
<path d="M7.93263 10.3105C8.60613 10.3556 9.22841 10.0102 9.28288 9.74428C9.33724 9.47822 8.86588 9.10961 8.18771 9.06448C7.50943 9.01934 6.9059 9.2931 6.84362 9.58248C6.78145 9.87176 7.26365 10.267 7.9326 10.3105L7.93263 10.3105Z" fill="#7474A9"/>
<path d="M9.76033 9.81414L9.81198 9.76249C9.94077 9.63369 10.1739 9.6581 10.2783 9.76249L11.166 10.6502C11.2948 10.779 11.2948 10.9877 11.166 11.1165L11.1144 11.1682C10.9856 11.297 10.7524 11.2726 10.648 11.1682L9.76033 10.2805C9.63153 10.1517 9.63153 9.94294 9.76033 9.81414Z" fill="#7474A9"/>
<path d="M11.9497 2.05026C10.637 0.737419 8.8564 0 7 0C5.1436 0 3.36304 0.737419 2.05026 2.05026C0.737419 3.36299 0 5.1436 0 7C0 8.8564 0.737419 10.637 2.05026 11.9497C3.36299 13.2626 5.1436 14 7 14C8.8564 14 10.637 13.2626 11.9497 11.9497C13.2626 10.637 14 8.8564 14 7C14 5.1436 13.2626 3.36304 11.9497 2.05026ZM7 0.63153C8.56034 0.630662 10.0661 1.205 11.2297 2.2447L2.2447 11.2297C1.14942 10.0008 0.572919 8.39528 0.636308 6.75028C0.699675 5.10541 1.39803 3.54888 2.58468 2.40804C3.77132 1.2672 5.35388 0.630364 6.99997 0.631558L7 0.63153ZM7 13.3685V13.3686C5.42902 13.3697 3.9136 12.7877 2.74693 11.7353L11.735 2.74717C12.8387 3.97343 13.4232 5.58052 13.365 7.22914C13.3069 8.878 12.6106 10.4397 11.4231 11.5853C10.2356 12.7305 8.64973 13.37 7 13.3687V13.3685Z" fill="#7474A9"/>
</svg>
