<svg width="17" height="14" viewBox="0 0 17 14" fill="none" xmlns="http://www.w3.org/2000/svg">
<path d="M5.3087 13.169C4.90089 13.0984 3.74926 12.8658 2.49155 12.1031C1.59568 11.5598 0.664697 10.9952 0.22757 9.92463C-0.220875 8.8265 0.086492 7.7742 0.356031 6.89712C1.23975 4.02164 3.4164 2.36695 3.87902 2.02832C4.46991 1.59583 7.44855 -0.584423 11.3054 0.149841C12.3135 0.34178 15.6044 0.968294 16.6826 3.71181C17.7993 6.55328 15.6355 9.3577 15.3134 9.76115C13.9222 11.5038 12.0966 12.0365 9.74708 12.7221C8.50176 13.0855 7.09652 13.4786 5.3087 13.169Z" fill="#CAEAF4"/>
<path d="M13.4327 9.66507C13.6681 9.72751 13.7132 9.85508 13.8537 10.0416C13.9195 10.1288 13.9675 10.2232 13.9904 10.338C13.9933 10.3527 13.9957 10.3672 13.9974 10.3816C14.0296 10.6424 13.8593 10.8913 13.5993 10.9955C13.0179 11.2284 12.1118 11.714 11.5843 11.9221C11.4289 11.9833 11.2636 12.0152 11.0966 12.0309C9.07374 12.2214 7.68134 12.1395 7.32969 12.1349C7.02159 12.1308 4.80314 12.0217 3.79017 10.6604C3.70411 10.5447 3.66818 10.3419 3.71814 10.2071C4.38695 8.4026 11.6707 9.19798 13.4327 9.66507Z" fill="#A0D2DD"/>
<path d="M4.09504 8.05956C3.94622 8.67498 4.04249 10.0495 4.39917 10.3145C5.75158 11.2141 7.49794 11.4813 9.54246 11.27C12.1938 10.7232 13.544 9.59741 13.972 8.05765C13.9896 7.99422 14.1315 7.20026 13.7854 6.81852C13.7854 6.81852 10.595 9.78 6.7773 9.78707C4.48322 8.80627 4.09504 8.05956 4.09504 8.05956Z" fill="#E6C677"/>
<path d="M4.22528 7.40951C4.09093 7.41245 3.98049 7.51633 3.96931 7.65027L3.93517 8.059C3.87404 8.32398 4.03631 8.55543 4.22197 8.75412C4.42545 8.9719 4.72946 9.26913 5.11507 9.56501C6.13159 10.3451 7.40871 10.7055 8.68611 10.6053C10.8312 10.4372 11.5904 9.95068 13.8493 7.0976L13.5714 7.11898L4.22528 7.40951Z" fill="#715141"/>
<path d="M3.97406 7.63452C3.97406 7.63452 5.15123 9.04723 7.58105 9.72954C7.98457 9.84286 8.40896 9.86146 8.81981 9.77859C9.64288 9.61263 11.0961 9.23221 11.8309 8.51467C9.51681 8.13856 6.89785 7.84518 3.97406 7.63452Z" fill="#7F5E4E"/>
<path d="M7.44545 6.29386L6.30158 8.87354C6.19685 9.10975 6.38936 9.50892 6.63942 9.57399C7.41501 9.62918 8.14866 9.77094 8.82409 10.0329C8.86661 10.0488 8.90999 10.0791 8.92652 10.1152C8.94534 10.1562 8.97567 10.1908 9.01694 10.2091C9.27232 10.3227 9.59923 10.3849 9.95578 10.4259L11.1578 7.06941L7.44545 6.29386Z" fill="#F1DE2D"/>
<path d="M13.8493 6.88959C13.8756 8.08371 11.275 8.97779 8.66356 8.13128C5.81145 8.89828 3.58124 8.03623 3.43711 6.24674C3.39844 4.88325 5.65222 3.83484 8.64735 3.74985C11.6425 3.66488 13.8106 5.52611 13.8493 6.88959Z" fill="#EE4038"/>
<path d="M13.8488 6.88948C12.8866 7.88972 12.6473 7.98472 8.90897 8.04094C5.67479 7.70471 4.07296 7.11059 3.56872 6.30966C3.37699 6.00513 3.47007 5.60522 3.77181 5.40908C5.85351 4.05602 13.8118 5.58495 13.8488 6.88948Z" fill="#F1614C"/>
<path d="M4.54269 2.67583C4.13145 2.50925 3.75059 2.64381 3.39973 3.07526C3.45958 3.3796 3.72659 3.73499 3.72659 3.73499L3.76063 4.16397C3.76063 4.16397 3.13877 4.16813 3.08181 4.69683C2.99619 5.43114 3.80695 5.12539 4.2993 5.56493C4.31358 5.57766 4.32594 5.59281 4.33574 5.60926C4.50145 5.88711 4.55518 6.23176 4.57077 6.36932C4.57636 6.41877 4.59416 6.4668 4.62656 6.50456C4.65719 6.54025 4.70025 6.57603 4.76229 6.60132C4.81368 6.62227 4.86984 6.62886 4.92532 6.62678L5.7908 6.59436L6.63646 6.97634C6.55419 7.46031 6.63544 7.70978 6.85039 7.76752C7.17706 7.87192 7.46373 7.73412 7.8556 7.58618C7.97332 7.54172 8.106 7.56168 8.20534 7.63894L8.58859 8.04318C8.74346 8.20655 8.99606 8.22823 9.17648 8.09361L9.4927 7.84109C9.5652 7.78318 9.66235 7.76649 9.75002 7.79693L10.1647 8.03612C10.347 8.14126 10.5783 8.10173 10.7154 7.942L10.849 7.66743C10.9469 7.46623 11.1868 7.37906 11.391 7.47047L11.8232 7.7634C11.9738 7.86546 12.1793 7.77429 12.2046 7.59414L12.219 7.14773C12.2271 6.89531 12.3593 6.84627 12.5996 6.92415L13.1292 7.19027C13.3338 7.2931 13.5785 7.16183 13.606 6.93447L13.6017 6.62214C13.6005 6.52756 13.6823 6.45325 13.7764 6.46371L14.4412 6.6804C14.5746 6.72392 14.7452 6.41703 14.6867 6.15406C14.669 6.07414 14.6238 6.00293 14.565 5.94598L14.2938 5.73955C14.2143 5.67898 14.196 5.56677 14.2521 5.48406L14.542 5.14449C14.6599 5.00635 14.6032 4.70976 14.4427 4.62482L14.1043 4.41757L4.54269 2.67583Z" fill="#7CC17F"/>
<path d="M13.8994 3.49094C14.1948 3.98301 14.184 4.60237 13.8668 5.08061C13.0549 6.30442 10.8364 7.52803 8.28353 7.31978C5.42389 7.0865 3.90877 5.29076 3.73888 3.90401C3.70501 3.62742 3.74247 3.34689 3.85588 3.09233C4.39795 1.87568 6.32256 0.87297 9.16565 1.10489C11.6918 1.31099 13.2702 2.44296 13.8994 3.49094Z" fill="#E5C676"/>
<path d="M5.50182 4.14128C5.50182 4.14128 4.85269 2.92688 6.26121 2.10272C6.40857 2.0165 6.57251 1.96108 6.74205 1.94084C7.07466 1.90116 7.75211 1.79376 8.41479 1.52846C8.44123 1.51788 8.46891 1.51085 8.49728 1.50842C9.28072 1.44102 10.2021 1.61561 11.1847 1.91922C11.2763 1.94755 11.3662 1.98186 11.4533 2.02198C12.0318 2.28844 12.5896 2.59438 13.1283 2.93663C13.1969 2.9802 13.2209 3.0691 13.1853 3.14221C12.8316 3.87031 12.3271 4.31747 11.7006 4.5371C11.611 4.56851 11.512 4.56479 11.4257 4.52524C10.8579 4.2649 10.2368 4.11762 9.57396 4.05893C9.4418 4.04724 9.31043 4.09182 9.21248 4.18129C8.5658 4.77184 7.91387 5.12911 7.25551 5.19954C6.4024 5.2629 5.8783 4.81642 5.50182 4.14128Z" fill="#E2BE69"/>
<path d="M8.75912 2.79499C8.75365 2.77524 8.65198 2.50785 8.77144 2.49393C9.00323 2.47868 8.75365 2.77524 8.75365 2.77524" fill="#B98D3D"/>
<path d="M6.77533 5.57287C6.77581 5.5524 6.75583 5.26701 6.8742 5.28821C7.10052 5.34066 6.77581 5.5524 6.77581 5.5524" fill="#FFEDC3"/>
<path d="M8.43989 3.75054C8.44948 3.73241 8.55905 3.46818 8.6555 3.54005C8.83455 3.68806 8.44948 3.73244 8.44948 3.73244" fill="#B98D3D"/>
<path d="M10.4315 2.59661C10.4111 2.59795 10.1286 2.64325 10.1392 2.52343C10.1713 2.29335 10.4111 2.59795 10.4111 2.59795" fill="#B98D3D"/>
<path d="M10.1468 4.82995C10.1264 4.83129 9.84392 4.87656 9.85452 4.75676C9.8866 4.52669 10.1264 4.83129 10.1264 4.83129" fill="#FFEDC3"/>
<path d="M11.7219 2.98016C11.7389 2.96872 11.9603 2.78761 12.0114 2.89652C12.0993 3.11154 11.7388 2.96872 11.7388 2.96872" fill="#B98D3D"/>
<path d="M12.7403 4.67657C12.7573 4.66513 12.9788 4.48402 13.0298 4.59293C13.1177 4.80795 12.7573 4.66513 12.7573 4.66513" fill="#FFEDC3"/>
<path d="M11.0093 5.85312C11.0263 5.84168 11.2478 5.66056 11.2988 5.76947C11.3867 5.98449 11.0263 5.84168 11.0263 5.84168" fill="#FFEDC3"/>
<path d="M11.5158 3.5816C11.5361 3.58144 11.8172 3.55358 11.8041 3.66818C11.7673 3.88753 11.536 3.58144 11.536 3.58144" fill="#B98D3D"/>
<path d="M4.69259 4.5698C4.71289 4.56963 4.99403 4.54178 4.98092 4.65635C4.94407 4.87572 4.71286 4.56963 4.71286 4.56963" fill="#FFEDC3"/>
<path d="M6.52327 4.08412C6.53457 4.06724 6.66972 3.81917 6.75707 3.8945C6.91768 4.0484 6.53457 4.06724 6.53457 4.06724" fill="#B98D3D"/>
<path d="M7.16646 2.60539C7.1833 2.5965 7.40292 2.46227 7.45231 2.51778C7.53705 2.62914 7.1833 2.5965 7.1833 2.5965" fill="#B98D3D"/>
<path d="M7.89783 5.96638C7.91409 5.95482 8.12421 5.77621 8.18076 5.86534C8.27961 6.04258 7.91409 5.95482 7.91409 5.95482" fill="#FFEDC3"/>
<path d="M7.62626 1.78927C7.63331 1.77558 7.71418 1.57881 7.78463 1.6205C7.91535 1.70821 7.63331 1.77561 7.63331 1.77561" fill="#B98D3D"/>
<path d="M9.08389 1.80064C9.10211 1.79625 9.3431 1.72559 9.38107 1.77308C9.44324 1.86649 9.10211 1.79625 9.10211 1.79625" fill="#B98D3D"/>
<path d="M6.71149 1.8999C6.72001 1.88146 6.81465 1.61527 6.91269 1.67599C7.09545 1.80281 6.72001 1.88148 6.72001 1.88148" fill="#B98D3D"/>
<path d="M6.07696 2.61098C6.06494 2.59461 5.87776 2.38302 5.97835 2.32656C6.17776 2.22801 6.06493 2.59463 6.06493 2.59463" fill="#B98D3D"/>
<path d="M8.98646 4.58638C8.96819 4.57752 8.70379 4.47803 8.76628 4.3811C8.89645 4.20073 8.96819 4.57755 8.96819 4.57755" fill="#FFEDC3"/>
<path d="M5.50259 4.09903C5.49057 4.08265 5.30337 3.87106 5.40393 3.81462C5.60334 3.71605 5.49057 4.08268 5.49057 4.08268" fill="#FFEDC3"/>
<path d="M5.53195 3.18063C5.5269 3.16097 5.43197 2.89488 5.54633 2.87995C5.7681 2.8627 5.5269 3.16097 5.5269 3.16097" fill="#B98D3D"/>
</svg>
