<svg width="18" height="16" viewBox="0 0 18 16" fill="none" xmlns="http://www.w3.org/2000/svg">
<path d="M17.2313 7.50252C17.402 7.92124 17.8511 9.12188 17.8371 10.7151C17.8272 11.85 17.8169 13.0292 17.0136 14.0292C16.1896 15.055 14.965 15.352 13.9365 15.5871C10.5643 16.3578 7.63945 15.2487 7.03079 15.0057C6.2533 14.6954 2.33409 13.1311 0.785938 9.13451C0.381257 8.08987 -0.939721 4.67985 1.14374 2.15626C3.30161 -0.457427 7.35872 0.00268814 7.94877 0.0789322C10.4973 0.408285 12.1028 1.81228 14.1691 3.61921C15.2642 4.5769 16.4832 5.667 17.2313 7.50252Z" fill="#CAE9F4"/>
<path d="M5.33676 13.507C5.08224 13.507 4.89563 13.264 4.96556 13.0192C5.1995 12.2004 6.06746 10.6034 9.2862 10.2444C13.1673 9.81159 14.6612 11.6827 14.9489 13.0259C15.0018 13.2733 14.8156 13.507 14.5627 13.507H5.33676Z" fill="#A0D1DC"/>
<path d="M15.2659 11.0413L14.4422 9.70875C14.065 9.09855 13.4436 8.68009 12.7364 8.56012L11.7019 8.38464C10.3501 8.15532 8.96265 8.2606 7.66082 8.69123L6.72475 9.00088C5.48439 9.41114 4.57039 10.6294 4.21982 11.8879L4.20176 11.9527L15.2043 11.3672L15.2659 11.0413Z" fill="#FEE7D1"/>
<path d="M15.2766 11.7256L4.11092 12.5791L4.20076 11.9525L15.2626 11.0534L15.2766 11.7256Z" fill="#F7A55A"/>
<path d="M12.0453 8.331C12.1745 8.37767 12.3052 8.41875 12.4399 8.44788C12.9596 8.56025 14.2909 8.95646 14.4776 10.0915C14.7104 11.5066 12.8061 11.4621 12.8061 11.4621C12.8061 11.4621 11.5435 11.3892 10.6451 10.6829C9.74673 9.97655 9.12343 10.2212 8.34362 11.1064C7.56381 11.9917 6.39035 11.1815 6.40985 10.6609C6.40985 10.6609 4.55223 12.2193 3.6553 11.0336C2.75831 9.84789 5.58775 9.54832 5.58775 9.54832L11.1044 8.22499C11.1044 8.22499 11.533 8.14586 12.0453 8.331Z" fill="#E5DBEC"/>
<path d="M9.47183 9.26831C9.47183 9.26831 8.2823 11.6784 5.22587 10.3155C3.54181 9.56289 7.55763 8.07925 9.47183 9.26831Z" fill="#F1614B"/>
<path d="M9.47153 9.26815C9.47153 9.26815 10.0548 10.2709 7.83598 11.0272C7.33104 11.1994 6.78973 11.25 6.26592 11.1492C5.75756 11.0513 5.12811 10.6397 4.87487 10.0583C4.87487 10.0583 6.53144 10.8205 7.47194 10.6228C7.50578 10.6157 7.53912 10.6079 7.57308 10.6013C7.8301 10.5517 9.0779 9.92149 9.47153 9.26815Z" fill="#EE4337"/>
<path d="M9.99565 8.6907C9.99565 8.6907 14.1817 7.70773 14.2505 7.73515C14.5082 7.83775 14.9358 9.05338 14.4718 9.68675C14.4718 9.68675 12.6308 11.2739 9.7885 9.19626C9.7949 9.00833 9.86501 8.84014 9.99565 8.6907Z" fill="#F1614B"/>
<path d="M14.473 9.68645C14.473 9.68645 14.7754 10.2866 13.3565 10.6341C13.2647 10.6565 13.1743 10.6844 13.0843 10.7133C12.4554 10.9158 10.5114 11.0955 9.78969 9.19596C9.82565 9.09997 12.2907 11.2507 14.473 9.68645Z" fill="#EE4337"/>
<path d="M11.737 5.22342C12.0889 5.3293 11.7752 7.37053 12.2061 7.5242C12.6368 7.67787 13.0492 4.55056 13.4581 4.67367C13.867 4.79674 13.4451 6.57745 13.8295 6.88508C14.214 7.1928 15.3612 6.48225 15.5071 6.7901C15.6529 7.09796 14.1212 8.0526 14.0346 8.3745C13.9482 8.69643 15.1111 9.0705 14.5619 9.51705C14.0127 9.96367 13.1223 8.85581 13.1223 8.85581L12.4898 8.8814C12.4898 8.8814 13.497 9.98842 13.0164 10.2757C12.6561 10.4912 11.9519 9.96877 11.6224 9.6941C11.5088 9.59945 11.3621 9.56378 11.2164 9.59872C10.8761 9.68028 10.2489 9.80044 10.0789 9.59552C9.75293 9.2029 10.4751 8.36829 10.7956 7.83858C10.9239 7.62664 11.0144 7.3913 11.0607 7.14579C11.1871 6.4752 11.4731 5.14403 11.737 5.22342Z" fill="#7DC081"/>
<path d="M5.02205 11.1406C4.82922 10.8909 6.06724 9.62194 5.84308 9.29957C5.6189 8.97715 3.76974 10.9554 3.5456 10.6653C3.32147 10.3752 4.50503 9.34221 4.39012 8.9354C4.27527 8.52863 3.11931 8.45214 3.17116 8.16429C3.22292 7.87647 4.76936 7.97443 4.9905 7.79279C5.21161 7.61122 4.58612 6.76936 5.19262 6.73165C5.79915 6.69397 5.86793 7.91214 5.86793 7.91214L6.32244 8.21003C6.32244 8.21003 6.17161 6.93407 6.65069 6.97336C7.00998 7.0028 7.24099 7.71919 7.33401 8.07555C7.36607 8.19828 7.45069 8.29647 7.56983 8.34481C7.84823 8.4577 8.33833 8.6876 8.3627 8.91491C8.38774 9.14857 7.47334 9.5742 6.98507 9.78408C6.78969 9.86807 6.60897 9.98731 6.45406 10.1356C6.03094 10.5408 5.16669 11.3278 5.02205 11.1406Z" fill="#7DC081"/>
<path d="M15.0392 8.40401L5.71228 3.49445L3.85753 10.2449L15.0392 8.40401Z" fill="#FBDCBC"/>
<path d="M11.7317 7.63564C11.7056 7.7 11.6322 7.73098 11.5678 7.70481C11.5035 7.67865 11.4725 7.60529 11.4987 7.54093C11.5248 7.47657 11.5982 7.44561 11.6625 7.47176C11.7269 7.49794 11.7579 7.57128 11.7317 7.63564Z" fill="#E8A96E"/>
<path d="M11.1038 7.15842C11.0788 7.21986 11.0088 7.24941 10.9473 7.22444C10.8859 7.19949 10.8563 7.12945 10.8813 7.06801C10.9063 7.00657 10.9763 6.97704 11.0377 7.00199C11.0992 7.02696 11.1287 7.09698 11.1038 7.15842Z" fill="#E8A96E"/>
<path d="M11.4494 7.16913C11.4405 7.19108 11.4154 7.20158 11.3935 7.19268C11.3716 7.18376 11.361 7.15877 11.3699 7.13682C11.3788 7.11488 11.4038 7.10435 11.4258 7.11327C11.4477 7.12218 11.4583 7.14718 11.4494 7.16913Z" fill="#E8A96E"/>
<path d="M9.18276 7.7105C9.1566 7.77486 9.08324 7.80582 9.01888 7.77967C8.95452 7.75351 8.92356 7.68015 8.94972 7.61579C8.97587 7.55143 9.04923 7.52047 9.11359 7.54662C9.17795 7.57278 9.20892 7.64614 9.18276 7.7105Z" fill="#E8A96E"/>
<path d="M8.97833 7.27346C8.99497 7.23253 8.97525 7.18581 8.93432 7.16917C8.89335 7.15252 8.84667 7.17226 8.83003 7.21319C8.81338 7.25416 8.83308 7.30082 8.87405 7.31747C8.91498 7.33411 8.96168 7.31443 8.97833 7.27346Z" fill="#E8A96E"/>
<path d="M7.35442 8.33769C7.33897 8.3757 7.29559 8.39401 7.25758 8.37857C7.21957 8.36312 7.20126 8.31974 7.21671 8.28173C7.23215 8.24372 7.27554 8.22541 7.31354 8.24086C7.35155 8.2563 7.36986 8.29969 7.35442 8.33769Z" fill="#E8A96E"/>
<path d="M6.7809 8.21567C6.7714 8.23906 6.7447 8.25032 6.72131 8.24082C6.69792 8.23131 6.68665 8.20462 6.69616 8.18123C6.70566 8.15784 6.73236 8.14657 6.75575 8.15607C6.77914 8.16558 6.79041 8.19228 6.7809 8.21567Z" fill="#E8A96E"/>
<path d="M6.02295 8.16677C6.00632 8.2077 5.9596 8.22742 5.91867 8.21078C5.87769 8.19413 5.85802 8.14743 5.87465 8.1065C5.8913 8.06553 5.93796 8.04583 5.97894 8.06248C6.01987 8.07912 6.0396 8.1258 6.02295 8.16677Z" fill="#E8A96E"/>
<path d="M5.51434 8.76285C5.49414 8.81255 5.43741 8.8365 5.3877 8.8163C5.33796 8.79608 5.31406 8.73937 5.33426 8.68966C5.35447 8.63992 5.41114 8.616 5.46089 8.63622C5.51059 8.65642 5.53455 8.7131 5.51434 8.76285Z" fill="#E8A96E"/>
<path d="M5.04957 8.90675C5.0365 8.93891 4.99979 8.9544 4.96763 8.94133C4.93543 8.92824 4.91998 8.89155 4.93305 8.85939C4.94614 8.82719 4.98278 8.81172 5.01499 8.82481C5.04715 8.83788 5.06266 8.87455 5.04957 8.90675Z" fill="#E8A96E"/>
<path d="M6.09769 4.94831C6.07124 5.01339 5.99701 5.04469 5.93197 5.01825C5.86689 4.99181 5.83557 4.91761 5.86202 4.85253C5.88847 4.78745 5.96266 4.75613 6.02775 4.78258C6.09279 4.80902 6.12414 4.88323 6.09769 4.94831Z" fill="#E8A96E"/>
<path d="M8.44566 7.48922C8.25914 7.66925 7.97681 7.78195 7.75159 7.84826C7.43983 7.94007 7.09611 7.84022 6.9033 7.57861C6.76226 7.38725 6.73086 7.15316 6.83661 6.89296C7.02167 6.43759 7.76456 6.31546 8.26115 6.54621C8.84775 6.81872 8.78425 7.1624 8.44566 7.48922Z" fill="#528588"/>
<path d="M7.74666 3.82534C7.74983 4.06973 7.75235 4.31415 7.75184 4.55862C7.75169 4.80303 7.75263 5.04745 7.74981 5.29187C7.74739 5.5363 7.74699 5.78072 7.74284 6.02514C7.73892 6.26961 7.72083 6.51409 7.71026 6.75852C7.6981 6.51414 7.67852 6.2698 7.67303 6.02541C7.66735 5.78099 7.66537 5.53659 7.66137 5.29217C7.65703 5.04775 7.65639 4.80331 7.65472 4.55889C7.65263 4.3145 7.65358 4.07006 7.6552 3.82565L7.74666 3.82534Z" fill="#F7A45A"/>
<path d="M15.0397 8.40391L15.1851 9.09187L3.87248 11.0198C3.87248 11.0198 3.67778 10.2745 3.85805 10.2448C4.03825 10.2152 15.0397 8.40391 15.0397 8.40391Z" fill="#F7A55A"/>
<path d="M7.86534 5.49861C7.33314 5.64313 6.98551 6.0691 7.08896 6.45003C7.1924 6.83097 7.70766 7.02265 8.2399 6.8781C8.77217 6.73358 9.11974 6.3076 9.01629 5.92667C8.91287 5.54578 8.39762 5.35409 7.86534 5.49861Z" fill="#414C47"/>
</svg>
