<svg width="20" height="15" viewBox="0 0 20 15" fill="none" xmlns="http://www.w3.org/2000/svg">
<path d="M3.24201 13.0997C2.92795 13.2072 0.882706 13.8075 1.48028 10.9683C1.57197 10.5326 1.76618 10.1254 2.04135 9.77553C3.49493 7.92731 8.86195 2.07828 15.5072 6.70106C15.5072 6.70106 18.9031 10.1063 15.1676 13.2258C15.1676 13.2258 14.0159 14.3175 12.2958 14.7219C11.2023 14.979 10.0527 14.6917 9.20124 13.9589C8.12888 13.036 6.0221 11.8008 3.31074 13.0718C3.28833 13.0823 3.26544 13.0917 3.24201 13.0997Z" fill="#A0D2DD"/>
<path d="M2.88468 5.61166C2.68628 5.42008 2.36869 3.92899 3.50816 3.28901C3.55361 3.26348 3.59924 3.23839 3.64311 3.21026C4.10793 2.91222 7.17211 1.01256 9.63029 1.09191C9.63029 1.09191 12.3312 1.12216 13.588 0.203655C13.588 0.203655 14.1041 -0.272471 15.1332 0.538629C15.231 0.615709 15.3425 0.672993 15.4635 0.702397C15.7469 0.771253 16.2567 1.03084 15.7924 2.0052C15.7218 2.1534 15.7123 2.32408 15.7671 2.47846C15.8748 2.78147 15.9563 3.35149 15.4043 3.93952C15.2765 4.07576 15.1859 4.24223 15.1354 4.42229C15.0246 4.8183 14.6999 5.48314 13.7747 5.40572C13.3855 5.37317 12.9925 5.47924 12.6848 5.72184C12.6637 5.73853 12.6424 5.756 12.6212 5.77425C12.1156 6.20819 11.5329 6.54121 10.8928 6.7209C8.94618 7.26722 5.23811 7.88417 2.88468 5.61166Z" fill="#AD5D38"/>
<path d="M6.24685 3.19804C6.48703 3.18444 6.99274 3.12769 7.37072 2.89284C7.51178 2.80518 7.66692 2.74264 7.8318 2.72635C8.02992 2.7068 8.2865 2.72321 8.50986 2.87113C8.58156 2.91862 8.57899 3.02628 8.50575 3.07185C8.10297 3.32256 6.91393 3.96463 6.20864 3.3078C6.1678 3.26973 6.1911 3.20119 6.24685 3.19804Z" fill="#D97339"/>
<path d="M5.285 3.8852C5.39432 3.706 5.62453 3.62899 5.80864 3.72771C5.9309 3.79326 6.01831 3.92689 5.94999 4.19403C5.94999 4.19403 5.57521 5.05785 6.79036 5.20055C6.95697 5.22012 7.08263 5.35884 7.08433 5.52732C7.08806 5.89307 6.90812 6.40596 5.73849 6.01028C5.70031 5.99737 5.66121 5.98561 5.62216 5.97548C5.37484 5.91135 4.28401 5.52585 5.285 3.8852Z" fill="#D97339"/>
<path d="M10.5954 2.89217C10.5768 2.89837 10.5648 2.87298 10.5814 2.86253C11.1785 2.48686 13.4119 1.06508 13.9768 1.25847C13.9768 1.25847 14.8187 1.57847 15.0408 2.01046C15.044 2.01684 15.0366 2.02379 15.0303 2.02047C14.8797 1.94222 13.9371 1.48907 13.0702 1.92298C12.2851 2.31604 11.0062 2.75477 10.5954 2.89217Z" fill="#8D5234"/>
<path d="M0.216807 9.97856C0.223931 9.96146 0.231356 9.94451 0.239046 9.92774C0.383498 9.61243 0.690997 9.4026 1.03616 9.36846C2.10324 9.26296 5.91158 8.71509 8.40268 6.14114C8.40268 6.14114 9.66655 4.89277 11.7752 6.31324C12.1622 6.57391 12.5704 6.80211 12.9941 6.99737C13.3573 7.16474 13.7979 7.39566 14.1471 7.66418C14.6234 8.03045 14.7617 8.688 14.4744 9.21571C14.3608 9.42443 14.2006 9.67458 13.9753 9.96021C13.7412 10.2568 13.5384 10.5762 13.3501 10.9038C13.2231 11.1245 12.9372 11.4118 12.2961 11.6434C12.1698 11.6891 12.0463 11.7422 11.9255 11.8008C11.6083 11.9545 11.1037 13.2565 9.334 12.3168C9.24492 12.2695 9.15367 12.2257 9.05997 12.1883C8.48736 11.9602 5.89203 10.5075 5.05307 11.0974C4.61693 11.404 4.05069 12.0117 2.87425 12.1211C2.87425 12.1211 2.10751 12.6364 1.63304 12.6018C1.63304 12.6018 1.26677 12.6093 0.815187 12.2543C0.131534 11.7168 -0.118561 10.781 0.216807 9.97856Z" fill="#CC733D"/>
<path d="M7.63817 9.18775C7.63817 9.18775 7.18915 8.0078 8.4619 7.59188C8.4619 7.59188 10.0809 7.46065 10.7867 7.21494C10.7867 7.21494 11.1292 8.0602 9.79434 8.31658C9.79434 8.31658 8.77627 8.27886 8.44696 8.91232C8.44696 8.91232 7.90527 9.31618 7.63817 9.18775Z" fill="#E77C3F"/>
<path d="M11.2682 8.01438C11.2682 8.01438 10.88 6.99752 11.7674 7.35323C11.7674 7.35323 11.9216 7.8347 11.2682 8.01438Z" fill="#E77C3F"/>
<path d="M12.0566 7.60995C12.1064 7.90558 12.3129 9.66743 10.3542 10.5899C10.3319 10.6003 10.341 10.6339 10.3654 10.6311C11.0293 10.556 13.9403 10.0785 12.0751 7.60232C12.0687 7.59378 12.0548 7.59942 12.0566 7.60995Z" fill="#B7663A"/>
<path d="M9.25832 11.8725L9.59104 12.5445L16.0304 10.4288L15.7544 9.62893L9.25832 11.8725Z" fill="#F16D57"/>
<path d="M12.8503 10.3L12.8875 10.9271C12.8875 10.9271 17.1485 10.8123 17.8384 11.0835C17.8922 11.1047 17.9532 11.0873 17.9867 11.0403C18.0743 10.9174 18.2126 10.6895 18.2021 10.486C18.1948 10.344 18.0841 10.229 17.943 10.2121C17.4697 10.1554 15.6695 9.98793 12.8503 10.3Z" fill="#559BA0"/>
<path d="M12.5202 3.89911C12.366 4.0815 12.2654 4.30342 12.2281 4.53934C12.0478 5.67988 11.8389 9.31696 16.6401 8.80051C16.6401 8.80051 19.4926 8.46095 19.4474 5.22351C19.4474 5.22351 18.8361 2.82373 15.6666 2.61997C15.6666 2.61997 13.6684 2.54081 12.5202 3.89911Z" fill="#363E38"/>
<path d="M12.1841 4.90469C12.1841 4.90469 11.9151 4.01021 13.4044 3.34454C13.4044 3.34454 14.0156 3.63887 14.4005 3.34454C14.7854 3.05026 15.1021 2.77858 15.804 3.23136C15.804 3.23136 16.5513 3.50303 17.0493 3.18609C17.0493 3.18609 17.4568 3.19224 17.7059 3.94759C17.7059 3.94759 17.8884 4.0226 18.3851 4.09164C18.3851 4.09164 18.8152 4.13694 19.2454 5.31417C19.2454 5.31417 18.0907 7.28379 15.4193 7.05742C15.4193 7.05742 12.6164 6.73647 12.1841 4.90469Z" fill="#FAF8D4"/>
<path d="M14.9643 5.03291V4.69148H15.2472L15.3152 4.98013L14.9643 5.03291Z" fill="#6C9B93"/>
<path d="M15.7046 5.26295C15.7017 5.24597 15.7046 5.03278 15.7046 5.03278H15.9394L15.9903 5.17805L15.7356 5.26295H15.7046Z" fill="#6C9B93"/>
<path d="M15.8986 4.69173C15.9042 4.69173 15.9891 4.5276 15.9891 4.5276H16.2834L16.3173 4.69173L16.1475 4.96907L15.8986 4.69173Z" fill="#6C9B93"/>
</svg>
