<svg width="24" height="24" viewBox="0 0 24 24" fill="none" xmlns="http://www.w3.org/2000/svg">
<circle cx="12" cy="12" r="12" fill="#65C7F7"/>
<path d="M17.6827 15.453L12.9773 10.7475L7.47979 5.25H7.05016L6.96243 5.47291C6.73089 6.06129 6.63196 6.66307 6.67638 7.21313C6.727 7.84013 6.9652 8.38296 7.36525 8.78302L11.6569 13.0747L12.223 12.5086L16.1906 16.9452C16.5853 17.3398 17.2646 17.3633 17.6827 16.9452C18.0942 16.5337 18.0942 15.8644 17.6827 15.453Z" fill="white"/>
<path d="M9.66973 12.0806L6.30853 15.4418C5.89716 15.8531 5.89716 16.5225 6.30853 16.9339C6.69933 17.3247 7.37538 17.3592 7.80068 16.9339L11.1619 13.5727L9.66973 12.0806Z" fill="white"/>
<path d="M17.4879 7.24787L15.5812 9.15451L15.0838 8.65712L16.9905 6.75045L16.4931 6.25306L14.5864 8.1597L14.089 7.66231L15.9957 5.75567L15.4983 5.2583L13.0114 7.74526C12.7071 8.0495 12.5255 8.45347 12.4998 8.8828C12.4933 8.99157 12.4686 9.09856 12.4277 9.20033L14.0433 10.8159C14.145 10.7749 14.252 10.7503 14.3608 10.7438C14.7901 10.7182 15.1941 10.5365 15.4983 10.2322L17.9853 7.74528L17.4879 7.24787Z" fill="white"/>
</svg>
