<svg width="42" height="42" viewBox="0 0 42 42" fill="none" xmlns="http://www.w3.org/2000/svg">
<rect x="0.5" y="0.5" width="41" height="41" rx="9.5" stroke="#E6EAEC"/>
<path d="M26.53 16.77C26.46 16.76 26.39 16.76 26.32 16.77C24.77 16.72 23.54 15.45 23.54 13.89C23.54 12.3 24.83 11 26.43 11C28.02 11 29.32 12.29 29.32 13.89C29.31 15.45 28.08 16.72 26.53 16.77Z" fill="#FCCA1C"/>
<path d="M29.7901 23.7004C28.6701 24.4504 27.1001 24.7304 25.6501 24.5404C26.0301 23.7204 26.2301 22.8104 26.2401 21.8504C26.2401 20.8504 26.0201 19.9004 25.6001 19.0704C27.0801 18.8704 28.6501 19.1504 29.7801 19.9004C31.3601 20.9404 31.3601 22.6504 29.7901 23.7004Z" fill="#FCCA1C"/>
<path d="M15.4402 16.77C15.5102 16.76 15.5802 16.76 15.6502 16.77C17.2002 16.72 18.4302 15.45 18.4302 13.89C18.4302 12.29 17.1402 11 15.5402 11C13.9502 11 12.6602 12.29 12.6602 13.89C12.6602 15.45 13.8902 16.72 15.4402 16.77Z" fill="#FCCA1C"/>
<path d="M15.5501 21.8496C15.5501 22.8196 15.7601 23.7396 16.1401 24.5696C14.7301 24.7196 13.2601 24.4196 12.1801 23.7096C10.6001 22.6596 10.6001 20.9496 12.1801 19.8996C13.2501 19.1796 14.7601 18.8896 16.1801 19.0496C15.7701 19.8896 15.5501 20.8396 15.5501 21.8496Z" fill="#FCCA1C"/>
<path d="M21.1198 24.87C21.0398 24.86 20.9498 24.86 20.8598 24.87C19.0198 24.81 17.5498 23.3 17.5498 21.44C17.5598 19.54 19.0898 18 20.9998 18C22.8998 18 24.4398 19.54 24.4398 21.44C24.4298 23.3 22.9698 24.81 21.1198 24.87Z" fill="#FCCA1C"/>
<path d="M17.8698 26.9396C16.3598 27.9496 16.3598 29.6096 17.8698 30.6096C19.5898 31.7596 22.4098 31.7596 24.1298 30.6096C25.6398 29.5996 25.6398 27.9396 24.1298 26.9396C22.4198 25.7896 19.5998 25.7896 17.8698 26.9396Z" fill="#FCCA1C"/>
</svg>
