<svg width="42" height="42" viewBox="0 0 42 42" fill="none" xmlns="http://www.w3.org/2000/svg">
<rect x="0.5" y="0.5" width="41" height="41" rx="9.5" stroke="#E6EAEC"/>
<path d="M31 31H11C10.59 31 10.25 30.66 10.25 30.25C10.25 29.84 10.59 29.5 11 29.5H31C31.41 29.5 31.75 29.84 31.75 30.25C31.75 30.66 31.41 31 31 31Z" fill="#09CA57"/>
<path d="M18.75 13V31H23.25V13C23.25 11.9 22.8 11 21.45 11H20.55C19.2 11 18.75 11.9 18.75 13Z" fill="#09CA57"/>
<path d="M12 19V31H16V19C16 17.9 15.6 17 14.4 17H13.6C12.4 17 12 17.9 12 19Z" fill="#09CA57"/>
<path d="M26 24V31H30V24C30 22.9 29.6 22 28.4 22H27.6C26.4 22 26 22.9 26 24Z" fill="#09CA57"/>
</svg>
