<svg width="42" height="42" viewBox="0 0 42 42" fill="none" xmlns="http://www.w3.org/2000/svg">
<rect x="0.5" y="0.5" width="41" height="41" rx="9.5" stroke="#E6EAEC"/>
<path d="M23.13 20.34C23.52 18.7 22.09 17.27 20.45 17.66C19.68 17.85 19.05 18.48 18.86 19.25C18.47 20.89 19.9 22.32 21.54 21.93C22.32 21.74 22.95 21.11 23.13 20.34Z" fill="#0064DE"/>
<path d="M15.02 26.97C14.84 26.97 14.65 26.9 14.51 26.77C12.57 24.97 11.46 22.43 11.46 19.79C11.46 14.53 15.74 10.25 21 10.25C26.26 10.25 30.54 14.53 30.54 19.79C30.54 22.45 29.47 24.91 27.53 26.74C27.23 27.02 26.75 27.01 26.47 26.71C26.19 26.41 26.2 25.93 26.5 25.65C28.14 24.11 29.04 22.04 29.04 19.8C29.04 15.37 25.43 11.76 21 11.76C16.57 11.76 12.96 15.37 12.96 19.8C12.96 22.06 13.87 24.14 15.53 25.68C15.83 25.96 15.85 26.44 15.57 26.74C15.42 26.89 15.22 26.97 15.02 26.97Z" fill="#0064DE"/>
<path d="M25 24.3001C24.82 24.3001 24.63 24.2301 24.49 24.1001C24.19 23.8201 24.17 23.3401 24.46 23.0401C25.29 22.1601 25.75 21.0001 25.75 19.8001C25.75 17.1801 23.62 15.0601 21.01 15.0601C18.4 15.0601 16.27 17.1901 16.27 19.8001C16.27 21.0101 16.73 22.1601 17.56 23.0401C17.84 23.3401 17.83 23.8201 17.53 24.1001C17.23 24.3901 16.75 24.3701 16.47 24.0701C15.38 22.9101 14.77 21.3901 14.77 19.8001C14.77 16.3601 17.57 13.5601 21.01 13.5601C24.45 13.5601 27.25 16.3601 27.25 19.8001C27.25 21.3901 26.65 22.9101 25.55 24.0701C25.4 24.2201 25.2 24.3001 25 24.3001Z" fill="#0064DE"/>
<path d="M19.2999 25.66L17.8599 27.45C16.7199 28.88 17.7399 31 19.5599 31H22.4299C24.2599 31 25.2799 28.88 24.1299 27.46L22.6899 25.67C21.8299 24.57 20.1699 24.57 19.2999 25.66Z" fill="#0064DE"/>
</svg>
