<svg width="32" height="32" viewBox="0 0 32 32" fill="none" xmlns="http://www.w3.org/2000/svg">
<rect width="32" height="32" rx="5" fill="#F0F5FA"/>
<path d="M17.8896 6.88051L13.1996 6.14051C9.28959 5.53051 7.47959 6.85051 6.85959 10.7605L6.11959 15.4505C5.71959 18.0105 6.13959 19.6705 7.58959 20.6805C8.34959 21.2205 9.38959 21.5805 10.7396 21.7905L15.4296 22.5305C19.3396 23.1405 21.1496 21.8205 21.7696 17.9105L22.4996 13.2205C22.6196 12.4505 22.6696 11.7605 22.6296 11.1505C22.4996 8.65051 21.0296 7.37051 17.8896 6.88051ZM12.2396 13.3505C11.0696 13.3505 10.1196 12.4005 10.1196 11.2405C10.1196 10.0705 11.0696 9.12051 12.2396 9.12051C13.3996 9.12051 14.3496 10.0705 14.3496 11.2405C14.3496 12.4005 13.3996 13.3505 12.2396 13.3505Z" fill="#24A2FD"/>
<path opacity="0.7" fill-rule="evenodd" clip-rule="evenodd" d="M15.2006 8.1388L19.8906 8.8788C23.0306 9.3688 24.5006 10.6488 24.6306 13.1488C24.6706 13.7588 24.6206 14.4488 24.5006 15.2188L23.7706 19.9088C23.1506 23.8188 21.3406 25.1388 17.4306 24.5288L12.7406 23.7888C11.3906 23.5788 10.3506 23.2188 9.59057 22.6788C8.14057 21.6688 7.72057 20.0088 8.12057 17.4488L8.86057 12.7588C9.48057 8.8488 11.2906 7.5288 15.2006 8.1388ZM13.3245 15.1411C13.6018 15.2741 13.9126 15.3488 14.2406 15.3488C15.4006 15.3488 16.3506 14.3988 16.3506 13.2388C16.3506 12.3921 15.853 11.6605 15.1384 11.321C15.8528 11.6606 16.3501 12.392 16.3501 13.2386C16.3501 14.3986 15.4001 15.3486 14.2401 15.3486C13.9123 15.3486 13.6017 15.274 13.3245 15.1411Z" fill="#D7E6F0"/>
<path d="M14.3503 11.2411C14.3503 12.4011 13.4003 13.3511 12.2403 13.3511C11.0703 13.3511 10.1203 12.4011 10.1203 11.2411C10.1203 10.0711 11.0703 9.12109 12.2403 9.12109C13.4003 9.12109 14.3503 10.0711 14.3503 11.2411Z" fill="#1364C4"/>
</svg>
