<svg width="45" height="40" viewBox="0 0 45 40" fill="none" xmlns="http://www.w3.org/2000/svg">
<rect x="0.592285" width="44.2462" height="39.834" rx="5" fill="#F0F5FA"/>
<path d="M36.0724 17.9745L34.7174 23.1779C33.5559 27.6716 31.2606 29.4891 26.9466 29.1156C26.2553 29.0658 25.5086 28.9538 24.7067 28.7795L22.3838 28.2816C16.6179 27.0492 14.8342 24.4849 16.1893 19.2816L17.5443 14.0658C17.8209 13.0077 18.1527 12.0866 18.5675 11.3272C20.1853 8.31478 22.9368 7.50565 27.555 8.48906L29.8641 8.97453C35.6576 10.1945 37.4275 12.7712 36.0724 17.9745Z" fill="#6270FF"/>
<path d="M7.93783 21.0854L9.29287 26.2887C10.4543 30.7825 12.7496 32.5999 17.0636 32.2265C17.755 32.1767 18.5016 32.0646 19.3036 31.8904L21.6265 31.3924C27.3923 30.1601 29.176 27.5957 27.821 22.3924L26.4659 17.1767C26.1894 16.1186 25.8575 15.1974 25.4427 14.4381C23.825 11.4256 21.0734 10.6165 16.4552 11.5999L14.1461 12.0854C8.35264 13.3053 6.58279 15.8821 7.93783 21.0854Z" fill="#FFD339" fill-opacity="0.7"/>
</svg>
