<svg width="45" height="41" viewBox="0 0 45 41" fill="none" xmlns="http://www.w3.org/2000/svg">
<rect x="0.273926" y="0.639038" width="44.2462" height="39.834" rx="5" fill="#F0F5FA"/>
<path opacity="0.4" d="M19.0785 10.5975C16.1803 10.5975 13.8242 12.7187 13.8242 15.3278C13.8242 17.8872 16.0476 19.9585 18.9457 20.0482C19.0342 20.0382 19.1227 20.0382 19.1891 20.0482C19.2112 20.0482 19.2223 20.0482 19.2444 20.0482C19.2554 20.0482 19.2554 20.0482 19.2665 20.0482C22.0983 19.9585 24.3216 17.8872 24.3327 15.3278C24.3327 12.7187 21.9766 10.5975 19.0785 10.5975Z" fill="#FD4985"/>
<path d="M24.6977 22.6971C21.6116 20.8448 16.5786 20.8448 13.4703 22.6971C12.0654 23.5435 11.2911 24.6888 11.2911 25.9137C11.2911 27.1386 12.0654 28.2738 13.4592 29.1103C15.0078 30.0464 17.0431 30.5145 19.0785 30.5145C21.1138 30.5145 23.1491 30.0464 24.6977 29.1103C26.0915 28.2639 26.8658 27.1286 26.8658 25.8938C26.8547 24.6689 26.0915 23.5336 24.6977 22.6971Z" fill="#FD4985"/>
<path opacity="0.4" d="M31.2352 15.9153C31.4121 17.8473 29.8856 19.5402 27.7729 19.7693C27.7618 19.7693 27.7618 19.7693 27.7508 19.7693H27.7176C27.6512 19.7693 27.5848 19.7693 27.5295 19.7892C26.4566 19.839 25.4721 19.5303 24.731 18.9626C25.8703 18.0465 26.5229 16.6722 26.3902 15.1784C26.3128 14.3718 26.003 13.6348 25.5385 13.0075C25.9588 12.8182 26.4455 12.6987 26.9433 12.6589C29.1113 12.4896 31.0471 13.9436 31.2352 15.9153Z" fill="#4680AA"/>
<path d="M33.4474 25.127C33.3589 26.093 32.6731 26.9295 31.5227 27.4971C30.4165 28.0449 29.0228 28.3038 27.6401 28.2739C28.4365 27.6266 28.9011 26.82 28.9896 25.9635C29.1002 24.7287 28.4476 23.5436 27.1423 22.5976C26.4012 22.0698 25.5384 21.6515 24.5981 21.3428C27.0427 20.7054 30.1179 21.1337 32.0094 22.5079C33.027 23.2449 33.5469 24.171 33.4474 25.127Z" fill="#4680AA"/>
</svg>
