<svg width="20" height="20" viewBox="0 0 20 20" fill="none" xmlns="http://www.w3.org/2000/svg">
<g clip-path="url(#clip0_267_7793)">
<path d="M9.21866 4.05508L3.74949 5.1688C3.29183 5.262 3.12183 5.827 3.45207 6.15727L7.80757 10.5128C8.13785 10.8431 8.70284 10.6731 8.79605 10.2154L9.90976 4.74614C9.99351 4.33473 9.63011 3.97133 9.21866 4.05508Z" fill="#FE9901"/>
<path d="M4.93773 5.72737C4.70726 5.4969 4.72066 5.15221 4.90519 4.93323L3.74949 5.16858C3.29183 5.26178 3.12183 5.82678 3.45207 6.15706L7.80757 10.5126C8.13784 10.8428 8.70284 10.6728 8.79605 10.2151L8.90253 9.69218L4.93773 5.72737Z" fill="#FB8801"/>
<path d="M7.89139 8.97705C8.05319 8.97705 8.18436 8.84588 8.18436 8.68408C8.18436 8.52228 8.05319 8.39111 7.89139 8.39111C7.72959 8.39111 7.59842 8.52228 7.59842 8.68408C7.59842 8.84588 7.72959 8.97705 7.89139 8.97705Z" fill="#FEF0AE"/>
<path d="M6.64828 6.13196C6.81008 6.13196 6.94125 6.00079 6.94125 5.83899C6.94125 5.67719 6.81008 5.54602 6.64828 5.54602C6.48648 5.54602 6.35531 5.67719 6.35531 5.83899C6.35531 6.00079 6.48648 6.13196 6.64828 6.13196Z" fill="#FEF0AE"/>
<path d="M5.10167 6.40784C5.26348 6.40784 5.39464 6.27667 5.39464 6.11487C5.39464 5.95307 5.26348 5.8219 5.10167 5.8219C4.93987 5.8219 4.8087 5.95307 4.8087 6.11487C4.8087 6.27667 4.93987 6.40784 5.10167 6.40784Z" fill="#FEF0AE"/>
<path d="M7.94632 7.04346C8.10812 7.04346 8.23929 6.91229 8.23929 6.75049C8.23929 6.58869 8.10812 6.45752 7.94632 6.45752C7.78452 6.45752 7.65335 6.58869 7.65335 6.75049C7.65335 6.91229 7.78452 7.04346 7.94632 7.04346Z" fill="#FEF0AE"/>
<path d="M8.36095 5.74548C8.52275 5.74548 8.65392 5.61432 8.65392 5.45251C8.65392 5.29071 8.52275 5.15955 8.36095 5.15955C8.19915 5.15955 8.06798 5.29071 8.06798 5.45251C8.06798 5.61432 8.19915 5.74548 8.36095 5.74548Z" fill="#FEF0AE"/>
<path d="M6.5653 8.03796C6.7271 8.03796 6.85826 7.9068 6.85826 7.745C6.85826 7.58319 6.7271 7.45203 6.5653 7.45203C6.40349 7.45203 6.27233 7.58319 6.27233 7.745C6.27233 7.9068 6.40349 8.03796 6.5653 8.03796Z" fill="#FEF0AE"/>
<path d="M6.20219 14.133C6.06219 14.133 5.94828 14.0191 5.94828 13.8791C5.94828 13.7391 6.06219 13.6252 6.20219 13.6252H7.30469C7.34887 13.505 7.4091 13.3925 7.48227 13.2899L4.76074 10.3863C4.47363 10.08 3.96695 10.1662 3.79727 10.5502L1.57758 15.5747H7.02019L6.60723 14.133H6.20219Z" fill="#FED402"/>
<path d="M2.86012 15.5747L5.02684 10.6702L4.76074 10.3863C4.47363 10.08 3.96695 10.1662 3.79727 10.5502L1.57758 15.5747H2.86012Z" fill="#FAC600"/>
<path d="M3.76548 13.972C3.92729 13.972 4.05845 13.8409 4.05845 13.6791C4.05845 13.5173 3.92729 13.3861 3.76548 13.3861C3.60368 13.3861 3.47252 13.5173 3.47252 13.6791C3.47252 13.8409 3.60368 13.972 3.76548 13.972Z" fill="#FEF0AE"/>
<path d="M3.09613 15.3929C3.25793 15.3929 3.3891 15.2618 3.3891 15.1C3.3891 14.9382 3.25793 14.807 3.09613 14.807C2.93433 14.807 2.80316 14.9382 2.80316 15.1C2.80316 15.2618 2.93433 15.3929 3.09613 15.3929Z" fill="#FEF0AE"/>
<path d="M5.26003 13.4398C5.42183 13.4398 5.553 13.3087 5.553 13.1469C5.553 12.985 5.42183 12.8539 5.26003 12.8539C5.09823 12.8539 4.96706 12.985 4.96706 13.1469C4.96706 13.3087 5.09823 13.4398 5.26003 13.4398Z" fill="#FEF0AE"/>
<path d="M4.44053 12.351C4.60233 12.351 4.7335 12.2198 4.7335 12.058C4.7335 11.8962 4.60233 11.765 4.44053 11.765C4.27873 11.765 4.14756 11.8962 4.14756 12.058C4.14756 12.2198 4.27873 12.351 4.44053 12.351Z" fill="#FEF0AE"/>
<path d="M4.987 14.799C5.1488 14.799 5.27997 14.6678 5.27997 14.506C5.27997 14.3442 5.1488 14.213 4.987 14.213C4.8252 14.213 4.69403 14.3442 4.69403 14.506C4.69403 14.6678 4.8252 14.799 4.987 14.799Z" fill="#FEF0AE"/>
<path d="M11.2272 12.6777L11.2388 12.69H11.5343C12.0513 12.69 12.5049 12.9667 12.7549 13.3797L16.6175 12.5931L14.3388 8.93036C14.117 8.57384 13.6033 8.55947 13.3619 8.90302L10.8972 12.4106C11.0177 12.4838 11.1291 12.5732 11.2272 12.6777Z" fill="#FE9901"/>
<path d="M11.2557 12.6509H11.5343C11.7459 12.6509 11.9472 12.6968 12.1294 12.7785L14.5711 9.30357L14.3389 8.93036C14.1171 8.57384 13.6033 8.55947 13.3619 8.90302L10.9201 12.3781C11.0438 12.4539 11.1569 12.5456 11.2557 12.6509Z" fill="#FB8801"/>
<path d="M12.7197 12.2583C12.8815 12.2583 13.0127 12.1271 13.0127 11.9653C13.0127 11.8035 12.8815 11.6724 12.7197 11.6724C12.5579 11.6724 12.4268 11.8035 12.4268 11.9653C12.4268 12.1271 12.5579 12.2583 12.7197 12.2583Z" fill="#FEF0AE"/>
<path d="M14.2896 12.0288C14.4514 12.0288 14.5825 11.8976 14.5825 11.7358C14.5825 11.574 14.4514 11.4429 14.2896 11.4429C14.1278 11.4429 13.9966 11.574 13.9966 11.7358C13.9966 11.8976 14.1278 12.0288 14.2896 12.0288Z" fill="#FEF0AE"/>
<path d="M13.6983 10.8008C13.8601 10.8008 13.9913 10.6696 13.9913 10.5078C13.9913 10.346 13.8601 10.2148 13.6983 10.2148C13.5365 10.2148 13.4054 10.346 13.4054 10.5078C13.4054 10.6696 13.5365 10.8008 13.6983 10.8008Z" fill="#FEF0AE"/>
<path d="M17.7514 12.3224L12.7324 13.3444C12.7891 13.4321 12.8367 13.5261 12.8732 13.6255H13.9757C14.1157 13.6255 14.2296 13.7395 14.2296 13.8795C14.2296 14.0195 14.1157 14.1334 13.9757 14.1334H13.5502L13.1372 15.575H17.9209L18.4425 13.0135C18.5262 12.602 18.1628 12.2386 17.7514 12.3224Z" fill="#FED402"/>
<path d="M15.1812 14.3993C15.343 14.3993 15.4741 14.2681 15.4741 14.1063C15.4741 13.9445 15.343 13.8134 15.1812 13.8134C15.0194 13.8134 14.8882 13.9445 14.8882 14.1063C14.8882 14.2681 15.0194 14.3993 15.1812 14.3993Z" fill="#FEF0AE"/>
<path d="M16.4792 15.3108C16.641 15.3108 16.7722 15.1796 16.7722 15.0178C16.7722 14.856 16.641 14.7249 16.4792 14.7249C16.3174 14.7249 16.1863 14.856 16.1863 15.0178C16.1863 15.1796 16.3174 15.3108 16.4792 15.3108Z" fill="#FEF0AE"/>
<path d="M16.8934 14.0128C17.0552 14.0128 17.1864 13.8817 17.1864 13.7198C17.1864 13.558 17.0552 13.4269 16.8934 13.4269C16.7316 13.4269 16.6004 13.558 16.6004 13.7198C16.6004 13.8817 16.7316 14.0128 16.8934 14.0128Z" fill="#FEF0AE"/>
<path d="M12.914 13.6259C12.7112 13.0595 12.1682 12.6514 11.5343 12.6514H11.2557C10.963 12.3394 10.5479 12.1436 10.089 12.1436C9.63011 12.1436 9.21499 12.3394 8.9223 12.6514H8.6437C8.0098 12.6514 7.46683 13.0595 7.26402 13.6259H12.914Z" fill="#FE646F"/>
<path d="M8.38683 13.5869C8.65507 13.2361 9.0775 13.0085 9.55066 13.0085H9.82925C10.1219 12.6966 10.5371 12.5007 10.996 12.5007C11.0299 12.5007 11.0636 12.5021 11.097 12.5042C10.8212 12.2793 10.4703 12.1436 10.0889 12.1436C9.62996 12.1436 9.21484 12.3394 8.92214 12.6514H8.64355C8.02437 12.6514 7.49207 13.0409 7.27867 13.5869H8.38683V13.5869Z" fill="#FD4755"/>
<path d="M6.56659 14.1333L6.9796 15.575H13.1778L13.5908 14.1333H6.56659Z" fill="#017B4E"/>
<path d="M6.56659 14.1333L6.9796 15.575H8.10823L7.69526 14.1333H6.56659Z" fill="#026841"/>
<path d="M17.6369 20.0006H2.36312C2.27785 20.0006 2.20246 19.9452 2.17683 19.8639L0.893787 15.7902C0.854139 15.6644 0.948123 15.5363 1.08008 15.5363H18.9199C19.0519 15.5363 19.1459 15.6644 19.1062 15.7902L17.8232 19.8639C17.7976 19.9452 17.7222 20.0006 17.6369 20.0006Z" fill="#FD4755"/>
<path d="M4.14375 19.8639L2.8607 15.7902C2.82105 15.6644 2.91504 15.5363 3.04699 15.5363H1.08008C0.948123 15.5363 0.854139 15.6644 0.893787 15.7902L2.1768 19.8639C2.20242 19.9452 2.27781 20.0006 2.36308 20.0006H4.33C4.24476 20.0006 4.16937 19.9452 4.14375 19.8639Z" fill="#FB2B3A"/>
<path d="M1.69965 18.3488L2.17684 19.8639C2.20246 19.9452 2.27785 20.0006 2.36312 20.0006H17.6369C17.7222 20.0006 17.7976 19.9452 17.8232 19.8639L18.3004 18.3488H1.69965Z" fill="#FB2B3A"/>
<path d="M4.14379 19.8639L3.6666 18.3488H1.69965L2.17684 19.8639C2.20246 19.9452 2.27785 20.0006 2.36313 20.0006H4.33004C4.24481 20.0006 4.16942 19.9452 4.14379 19.8639Z" fill="#E41F2D"/>
<path d="M10.7987 0.703208L11.9124 6.17243C12.0056 6.63008 12.5706 6.80008 12.9009 6.46985L17.2564 2.1143C17.5867 1.78403 17.4167 1.21903 16.959 1.12583L11.4897 0.0121149C11.0783 -0.0716351 10.7149 0.291763 10.7987 0.703208Z" fill="#FED402"/>
<path d="M13.1962 6.1724L12.0825 0.703218C12.04 0.494585 12.1127 0.298452 12.2481 0.166577L11.4897 0.0121243C11.0783 -0.0716648 10.7149 0.291773 10.7987 0.703179L11.9124 6.1724C12.0056 6.63005 12.5706 6.80005 12.9009 6.46982L13.1966 6.17404C13.1965 6.17349 13.1963 6.17298 13.1962 6.1724Z" fill="#FAC600"/>
<path d="M15.4277 2.32336C15.5895 2.32336 15.7206 2.1922 15.7206 2.0304C15.7206 1.86859 15.5895 1.73743 15.4277 1.73743C15.2659 1.73743 15.1347 1.86859 15.1347 2.0304C15.1347 2.1922 15.2659 2.32336 15.4277 2.32336Z" fill="#FEF0AE"/>
<path d="M12.5826 3.56689C12.7444 3.56689 12.8756 3.43573 12.8756 3.27393C12.8756 3.11212 12.7444 2.98096 12.5826 2.98096C12.4208 2.98096 12.2897 3.11212 12.2897 3.27393C12.2897 3.43573 12.4208 3.56689 12.5826 3.56689Z" fill="#FEF0AE"/>
<path d="M12.8589 5.11316C13.0207 5.11316 13.1519 4.98199 13.1519 4.82019C13.1519 4.65839 13.0207 4.52722 12.8589 4.52722C12.6971 4.52722 12.5659 4.65839 12.5659 4.82019C12.5659 4.98199 12.6971 5.11316 12.8589 5.11316Z" fill="#FEF0AE"/>
<path d="M13.4941 2.26807C13.6559 2.26807 13.787 2.1369 13.787 1.9751C13.787 1.8133 13.6559 1.68213 13.4941 1.68213C13.3323 1.68213 13.2011 1.8133 13.2011 1.9751C13.2011 2.1369 13.3323 2.26807 13.4941 2.26807Z" fill="#FEF0AE"/>
<path d="M11.919 1.57715C12.0808 1.57715 12.212 1.44598 12.212 1.28418C12.212 1.12238 12.0808 0.991211 11.919 0.991211C11.7572 0.991211 11.6261 1.12238 11.6261 1.28418C11.6261 1.44598 11.7572 1.57715 11.919 1.57715Z" fill="#FEF0AE"/>
<path d="M14.4885 3.64905C14.6503 3.64905 14.7815 3.51788 14.7815 3.35608C14.7815 3.19428 14.6503 3.06311 14.4885 3.06311C14.3267 3.06311 14.1956 3.19428 14.1956 3.35608C14.1956 3.51788 14.3267 3.64905 14.4885 3.64905Z" fill="#FEF0AE"/>
<path d="M13.9758 14.1724H6.20241C6.04062 14.1724 5.90945 14.0412 5.90945 13.8794C5.90945 13.7176 6.04062 13.5864 6.20241 13.5864H13.9758C14.1376 13.5864 14.2688 13.7176 14.2688 13.8794C14.2688 14.0412 14.1376 14.1724 13.9758 14.1724Z" fill="#026841"/>
</g>
<defs>
<clipPath id="clip0_267_7793">
<rect width="20" height="20" fill="white"/>
</clipPath>
</defs>
</svg>
