<svg width="32" height="32" viewBox="0 0 32 32" fill="none" xmlns="http://www.w3.org/2000/svg">
<rect width="32" height="32" rx="5" fill="#F0F5FA"/>
<path d="M11.24 6H9.34C7.15 6 6 7.15 6 9.33V11.23C6 13.41 7.15 14.56 9.33 14.56H11.23C13.41 14.56 14.56 13.41 14.56 11.23V9.33C14.57 7.15 13.42 6 11.24 6Z" fill="#FF6067"/>
<path d="M22.67 6H20.77C18.59 6 17.44 7.15 17.44 9.33V11.23C17.44 13.41 18.59 14.56 20.77 14.56H22.67C24.85 14.56 26 13.41 26 11.23V9.33C26 7.15 24.85 6 22.67 6Z" fill="#5CEDA5"/>
<path d="M22.67 17.4301H20.77C18.59 17.4301 17.44 18.5801 17.44 20.7601V22.6601C17.44 24.8401 18.59 25.9901 20.77 25.9901H22.67C24.85 25.9901 26 24.8401 26 22.6601V20.7601C26 18.5801 24.85 17.4301 22.67 17.4301Z" fill="#FF6067"/>
<path d="M11.24 17.4301H9.34C7.15 17.4301 6 18.5801 6 20.7601V22.6601C6 24.8501 7.15 26.0001 9.33 26.0001H11.23C13.41 26.0001 14.56 24.8501 14.56 22.6701V20.7701C14.57 18.5801 13.42 17.4301 11.24 17.4301Z" fill="#5CEDA5"/>
</svg>
