<svg width="42" height="42" viewBox="0 0 42 42" fill="none" xmlns="http://www.w3.org/2000/svg">
<rect x="0.5" y="0.5" width="41" height="41" rx="9.5" stroke="#E6EAEC"/>
<path d="M30 31.75H12C11.59 31.75 11.25 31.41 11.25 31C11.25 30.59 11.59 30.25 12 30.25H30C30.41 30.25 30.75 30.59 30.75 31C30.75 31.41 30.41 31.75 30 31.75Z" fill="#FF2149"/>
<path d="M14.6 17.38H13C12.45 17.38 12 17.83 12 18.38V27C12 27.55 12.45 28 13 28H14.6C15.15 28 15.6 27.55 15.6 27V18.38C15.6 17.82 15.15 17.38 14.6 17.38Z" fill="#FF2149"/>
<path d="M21.8 14.1899H20.2C19.65 14.1899 19.2 14.6399 19.2 15.1899V26.9999C19.2 27.5499 19.65 27.9999 20.2 27.9999H21.8C22.35 27.9999 22.8 27.5499 22.8 26.9999V15.1899C22.8 14.6399 22.35 14.1899 21.8 14.1899Z" fill="#FF2149"/>
<path d="M28.9999 11H27.3999C26.8499 11 26.3999 11.45 26.3999 12V27C26.3999 27.55 26.8499 28 27.3999 28H28.9999C29.5499 28 29.9999 27.55 29.9999 27V12C29.9999 11.45 29.5499 11 28.9999 11Z" fill="#FF2149"/>
</svg>
