<svg width="32" height="32" viewBox="0 0 32 32" fill="none" xmlns="http://www.w3.org/2000/svg">
<rect width="32" height="32" rx="5" fill="#F0F5FA"/>
<path d="M20.19 7H11.82C8.17 7 6 9.17 6 12.81V21.18C6 24.82 8.17 26.99 11.81 26.99H20.18C23.82 26.99 25.99 24.82 25.99 21.18V12.81C26 9.17 23.83 7 20.19 7Z" fill="#5CEDA5"/>
<path fill-rule="evenodd" clip-rule="evenodd" d="M20 7V17.7628C20 18.3237 19.8212 18.7445 19.5106 18.911C19.1906 19.0863 18.6824 18.9987 18.1176 18.6831L16.8753 17.9907C16.3953 17.719 15.6047 17.719 15.1247 17.9907L13.8824 18.6831C13.3176 18.9987 12.8094 19.0775 12.4894 18.911C12.1788 18.7445 12 18.3237 12 17.7628V7H20Z" fill="#5847C0"/>
</svg>
