<svg width="32" height="32" viewBox="0 0 32 32" fill="none" xmlns="http://www.w3.org/2000/svg">
<rect width="32" height="32" rx="5" fill="#F0F5FA"/>
<path d="M20.19 6H11.81C8.17 6 6 8.17 6 11.81V20.18C6 23.83 8.17 26 11.81 26H20.18C23.82 26 25.99 23.83 25.99 20.19V11.81C26 8.17 23.83 6 20.19 6Z" fill="#FDCD24"/>
<path d="M19.75 13.75H12.25C11.84 13.75 11.5 13.41 11.5 13C11.5 12.59 11.84 12.25 12.25 12.25H19.75C20.16 12.25 20.5 12.59 20.5 13C20.5 13.41 20.16 13.75 19.75 13.75Z" fill="white"/>
<path d="M19.75 19.75H12.25C11.84 19.75 11.5 19.41 11.5 19C11.5 18.59 11.84 18.25 12.25 18.25H19.75C20.16 18.25 20.5 18.59 20.5 19C20.5 19.41 20.16 19.75 19.75 19.75Z" fill="white"/>
</svg>
