<svg width="42" height="42" viewBox="0 0 42 42" fill="none" xmlns="http://www.w3.org/2000/svg">
<rect x="0.5" y="0.5" width="41" height="41" rx="9.5" stroke="#E6EAEC"/>
<path d="M22.19 15H15.79C15.53 15 15.28 15.01 15.04 15.04C12.35 15.27 11 16.86 11 19.79V23.79C11 27.79 12.6 28.58 15.79 28.58H16.19C16.41 28.58 16.7 28.73 16.83 28.9L18.03 30.5C18.56 31.21 19.42 31.21 19.95 30.5L21.15 28.9C21.3 28.7 21.54 28.58 21.79 28.58H22.19C25.12 28.58 26.71 27.24 26.94 24.54C26.97 24.3 26.98 24.05 26.98 23.79V19.79C26.98 16.6 25.38 15 22.19 15ZM15.5 23C14.94 23 14.5 22.55 14.5 22C14.5 21.45 14.95 21 15.5 21C16.05 21 16.5 21.45 16.5 22C16.5 22.55 16.05 23 15.5 23ZM18.99 23C18.43 23 17.99 22.55 17.99 22C17.99 21.45 18.44 21 18.99 21C19.54 21 19.99 21.45 19.99 22C19.99 22.55 19.55 23 18.99 23ZM22.49 23C21.93 23 21.49 22.55 21.49 22C21.49 21.45 21.94 21 22.49 21C23.04 21 23.49 21.45 23.49 22C23.49 22.55 23.04 23 22.49 23Z" fill="#C401BC"/>
<path d="M30.9798 15.79V19.79C30.9798 21.79 30.3598 23.15 29.1198 23.9C28.8198 24.08 28.4698 23.84 28.4698 23.49L28.4798 19.79C28.4798 15.79 26.1898 13.5 22.1898 13.5L16.0998 13.51C15.7498 13.51 15.5098 13.16 15.6898 12.86C16.4398 11.62 17.7998 11 19.7898 11H26.1898C29.3798 11 30.9798 12.6 30.9798 15.79Z" fill="#C401BC"/>
</svg>
