<svg width="45" height="41" viewBox="0 0 45 41" fill="none" xmlns="http://www.w3.org/2000/svg">
<rect x="0.273926" y="0.398315" width="44.2462" height="39.834" rx="5" fill="#F0F5FA"/>
<path opacity="0.4" d="M30.6241 14.9751L30.4305 14.8755L28.5086 13.8797L24.5402 11.8133C23.3234 11.1784 21.4706 11.1784 20.2539 11.8133L16.2855 13.8797L14.3636 14.888L14.1147 15.0125C11.6397 16.5062 11.4738 16.7801 11.4738 19.1826V24.9212C11.4738 27.3237 11.6397 27.5975 14.17 29.1287L20.2539 32.2905C20.8623 32.6141 21.6227 32.7635 22.397 32.7635C23.1575 32.7635 23.9318 32.6141 24.5402 32.2905L30.6794 29.0913C33.1544 27.5975 33.3203 27.3237 33.3203 24.9212V19.1826C33.3203 16.7801 33.1544 16.5062 30.6241 14.9751Z" fill="#1169D8"/>
<path d="M14.3635 14.8879L16.2855 13.8796L20.0741 11.9128L20.2538 11.8132C21.4706 11.1784 23.3234 11.1784 24.5402 11.8132L24.7199 11.9128L28.5085 13.8796L30.4304 14.8755V12.2116C30.4304 9.41076 28.7159 7.86719 25.6048 7.86719H19.1753C16.0642 7.86719 14.3635 9.41076 14.3635 12.2116V14.8879Z" fill="#1169D8"/>
<path d="M26.3239 21.9833L25.4666 22.9294C25.3283 23.0663 25.2315 23.3402 25.2454 23.5269L25.3283 24.7468C25.3836 25.4937 24.7891 25.8796 24.0148 25.6057L22.7565 25.1576C22.5629 25.0954 22.2311 25.0954 22.0375 25.1576L20.7793 25.6057C20.005 25.8796 19.4104 25.4937 19.4657 24.7468L19.5487 23.5269C19.5625 23.3402 19.4657 23.0663 19.3274 22.9294L18.4702 21.9833C17.9309 21.4107 18.166 20.7758 18.9679 20.5891L20.2815 20.2904C20.4889 20.2406 20.7378 20.0663 20.8484 19.9045L21.5812 18.8837C22.0375 18.2489 22.7565 18.2489 23.2128 18.8837L23.9456 19.9045C24.0563 20.0663 24.3051 20.2406 24.5125 20.2904L25.8261 20.5891C26.6281 20.7758 26.8631 21.4107 26.3239 21.9833Z" fill="#1169D8"/>
</svg>
